M48
;GenerationSoftware,Autodesk,EAGLE,8.6.0*%
;CreationDate,2018-02-06T17:03:27Z*%
FMAT,2
ICI,OFF
METRIC,TZ,000.000
T6C0.350
T5C0.813
T4C1.000
T3C1.016
T2C1.194
T1C1.321
%
G90
M71
T1
X16510Y40640
X21590Y40640
X19050Y50800
T2
X10120Y45720
X5120Y45720
T3
X11430Y59690
X7620Y59690
X26670Y60960
X31750Y41910
X26670Y40640
X26670Y43180
X26670Y45720
X34290Y8890
X34290Y6350
X31750Y54610
X34290Y54610
X31750Y52070
X34290Y52070
X31750Y49530
X34290Y49530
X31750Y46990
X34290Y46990
X31750Y44450
X34290Y44450
X31750Y6350
X34290Y41910
X31750Y39370
X34290Y39370
X31750Y36830
X34290Y36830
X31750Y34290
X34290Y34290
X31750Y31750
X34290Y31750
X31750Y29210
X34290Y29210
X31750Y26670
X34290Y26670
X31750Y24130
X34290Y24130
X31750Y21590
X26670Y58420
X31750Y19050
X34290Y19050
X31750Y16510
X34290Y16510
X31750Y13970
X34290Y13970
X34290Y21590
X34290Y11430
X31750Y8890
X26670Y55880
X26670Y53340
X26670Y50800
X26670Y48260
X31750Y11430
T4
X27940Y20320
X27940Y17780
X27940Y15240
X27940Y12700
X27940Y10160
X27940Y7620
X27940Y5080
X6350Y30480
X6350Y27940
X6350Y25400
X6350Y22860
X6350Y17780
X6350Y15240
X6350Y12700
X6350Y10160
X6350Y7620
X6350Y5080
X6350Y20320
X27940Y30480
X27940Y27940
X27940Y25400
X27940Y22860
T5
X15240Y60960
X20320Y53340
X22860Y53340
X20320Y60960
X22860Y60960
X2540Y4064
X3556Y59690
X1524Y59690
X1270Y8890
X1270Y16510
X3556Y38100
X1270Y19050
X7874Y54610
X9906Y54610
X3556Y54610
X1524Y54610
X1524Y38100
X15240Y53340
X17780Y53340
X17780Y60960
X2540Y6096
X1270Y26670
T6
X17621Y55880
X16510Y58579
M30