G04 EAGLE Gerber X2 export*
%TF.Part,Single*%
%TF.FileFunction,Legend,Top,1*%
%TF.FilePolarity,Positive*%
%TF.GenerationSoftware,Autodesk,EAGLE,8.6.0*%
%TF.CreationDate,2018-02-06T17:03:28Z*%
G75*
%MOMM*%
%FSLAX34Y34*%
%LPD*%
%AMOC8*
5,1,8,0,0,1.08239X$1,22.5*%
G01*
%ADD10C,0.152400*%
%ADD11C,0.130000*%
%ADD12C,0.127000*%
%ADD13R,0.508000X0.381000*%
%ADD14C,0.050800*%


D10*
X226568Y38862D02*
X210312Y38862D01*
X219343Y44281D01*
X210312Y49699D01*
X226568Y49699D01*
X226568Y56786D02*
X215731Y56786D01*
X211215Y56334D02*
X210312Y56334D01*
X210312Y57237D01*
X211215Y57237D01*
X211215Y56334D01*
X226568Y65800D02*
X226568Y69412D01*
X226568Y65800D02*
X226566Y65699D01*
X226560Y65598D01*
X226551Y65497D01*
X226538Y65396D01*
X226521Y65296D01*
X226500Y65197D01*
X226476Y65099D01*
X226448Y65002D01*
X226416Y64905D01*
X226381Y64810D01*
X226342Y64717D01*
X226300Y64625D01*
X226254Y64534D01*
X226205Y64445D01*
X226153Y64359D01*
X226097Y64274D01*
X226039Y64191D01*
X225977Y64111D01*
X225912Y64033D01*
X225845Y63957D01*
X225775Y63884D01*
X225702Y63814D01*
X225626Y63747D01*
X225548Y63682D01*
X225468Y63620D01*
X225385Y63562D01*
X225300Y63506D01*
X225214Y63454D01*
X225125Y63405D01*
X225034Y63359D01*
X224942Y63317D01*
X224849Y63278D01*
X224754Y63243D01*
X224657Y63211D01*
X224560Y63183D01*
X224462Y63159D01*
X224363Y63138D01*
X224263Y63121D01*
X224162Y63108D01*
X224061Y63099D01*
X223960Y63093D01*
X223859Y63091D01*
X218440Y63091D01*
X218339Y63093D01*
X218238Y63099D01*
X218137Y63108D01*
X218036Y63121D01*
X217936Y63138D01*
X217837Y63159D01*
X217739Y63183D01*
X217642Y63211D01*
X217545Y63243D01*
X217450Y63278D01*
X217357Y63317D01*
X217265Y63359D01*
X217174Y63405D01*
X217086Y63454D01*
X216999Y63506D01*
X216914Y63562D01*
X216831Y63620D01*
X216751Y63682D01*
X216673Y63747D01*
X216597Y63814D01*
X216524Y63884D01*
X216454Y63957D01*
X216387Y64033D01*
X216322Y64111D01*
X216260Y64191D01*
X216202Y64274D01*
X216146Y64359D01*
X216094Y64445D01*
X216045Y64534D01*
X215999Y64625D01*
X215957Y64717D01*
X215918Y64810D01*
X215883Y64905D01*
X215851Y65002D01*
X215823Y65099D01*
X215799Y65197D01*
X215778Y65296D01*
X215761Y65396D01*
X215748Y65497D01*
X215739Y65598D01*
X215733Y65699D01*
X215731Y65800D01*
X215731Y69412D01*
X210312Y75578D02*
X226568Y75578D01*
X215731Y75578D02*
X215731Y80094D01*
X215733Y80198D01*
X215739Y80301D01*
X215749Y80405D01*
X215763Y80508D01*
X215781Y80610D01*
X215802Y80711D01*
X215828Y80812D01*
X215857Y80911D01*
X215890Y81010D01*
X215927Y81107D01*
X215968Y81202D01*
X216012Y81296D01*
X216060Y81388D01*
X216111Y81478D01*
X216166Y81567D01*
X216224Y81653D01*
X216286Y81736D01*
X216350Y81818D01*
X216418Y81896D01*
X216488Y81972D01*
X216561Y82046D01*
X216638Y82116D01*
X216716Y82184D01*
X216798Y82248D01*
X216881Y82310D01*
X216967Y82368D01*
X217056Y82423D01*
X217146Y82474D01*
X217238Y82522D01*
X217332Y82566D01*
X217427Y82607D01*
X217524Y82644D01*
X217623Y82677D01*
X217722Y82706D01*
X217823Y82732D01*
X217924Y82753D01*
X218026Y82771D01*
X218129Y82785D01*
X218233Y82795D01*
X218336Y82801D01*
X218440Y82803D01*
X226568Y82803D01*
X220246Y92734D02*
X220246Y96798D01*
X220246Y92734D02*
X220248Y92622D01*
X220254Y92511D01*
X220264Y92400D01*
X220277Y92289D01*
X220295Y92179D01*
X220317Y92070D01*
X220342Y91961D01*
X220371Y91853D01*
X220404Y91747D01*
X220441Y91641D01*
X220481Y91537D01*
X220525Y91435D01*
X220573Y91334D01*
X220624Y91235D01*
X220679Y91137D01*
X220737Y91042D01*
X220798Y90949D01*
X220863Y90858D01*
X220931Y90769D01*
X221002Y90683D01*
X221075Y90600D01*
X221152Y90519D01*
X221232Y90440D01*
X221314Y90365D01*
X221399Y90293D01*
X221486Y90223D01*
X221576Y90157D01*
X221668Y90094D01*
X221763Y90034D01*
X221859Y89978D01*
X221957Y89925D01*
X222057Y89876D01*
X222159Y89830D01*
X222262Y89788D01*
X222367Y89749D01*
X222473Y89714D01*
X222580Y89683D01*
X222688Y89656D01*
X222797Y89632D01*
X222907Y89613D01*
X223017Y89597D01*
X223128Y89585D01*
X223240Y89577D01*
X223351Y89573D01*
X223463Y89573D01*
X223574Y89577D01*
X223686Y89585D01*
X223797Y89597D01*
X223907Y89613D01*
X224017Y89632D01*
X224126Y89656D01*
X224234Y89683D01*
X224341Y89714D01*
X224447Y89749D01*
X224552Y89788D01*
X224655Y89830D01*
X224757Y89876D01*
X224857Y89925D01*
X224955Y89978D01*
X225051Y90034D01*
X225146Y90094D01*
X225238Y90157D01*
X225328Y90223D01*
X225415Y90293D01*
X225500Y90365D01*
X225582Y90440D01*
X225662Y90519D01*
X225739Y90600D01*
X225812Y90683D01*
X225883Y90769D01*
X225951Y90858D01*
X226016Y90949D01*
X226077Y91042D01*
X226135Y91137D01*
X226190Y91235D01*
X226241Y91334D01*
X226289Y91435D01*
X226333Y91537D01*
X226373Y91641D01*
X226410Y91747D01*
X226443Y91853D01*
X226472Y91961D01*
X226497Y92070D01*
X226519Y92179D01*
X226537Y92289D01*
X226550Y92400D01*
X226560Y92511D01*
X226566Y92622D01*
X226568Y92734D01*
X226568Y96798D01*
X218440Y96798D01*
X218440Y96797D02*
X218339Y96795D01*
X218238Y96789D01*
X218137Y96780D01*
X218036Y96767D01*
X217936Y96750D01*
X217837Y96729D01*
X217739Y96705D01*
X217642Y96677D01*
X217545Y96645D01*
X217450Y96610D01*
X217357Y96571D01*
X217265Y96529D01*
X217174Y96483D01*
X217086Y96434D01*
X216999Y96382D01*
X216914Y96326D01*
X216831Y96268D01*
X216751Y96206D01*
X216673Y96141D01*
X216597Y96074D01*
X216524Y96004D01*
X216454Y95931D01*
X216387Y95855D01*
X216322Y95777D01*
X216260Y95697D01*
X216202Y95614D01*
X216146Y95529D01*
X216094Y95443D01*
X216045Y95354D01*
X215999Y95263D01*
X215957Y95171D01*
X215918Y95078D01*
X215883Y94983D01*
X215851Y94886D01*
X215823Y94789D01*
X215799Y94691D01*
X215778Y94592D01*
X215761Y94492D01*
X215748Y94391D01*
X215739Y94290D01*
X215733Y94189D01*
X215731Y94088D01*
X215731Y90476D01*
X215731Y103679D02*
X226568Y103679D01*
X211215Y103228D02*
X210312Y103228D01*
X210312Y104131D01*
X211215Y104131D01*
X211215Y103228D01*
X210312Y110204D02*
X223859Y110204D01*
X223960Y110206D01*
X224061Y110212D01*
X224162Y110221D01*
X224263Y110234D01*
X224363Y110251D01*
X224462Y110272D01*
X224560Y110296D01*
X224657Y110324D01*
X224754Y110356D01*
X224849Y110391D01*
X224942Y110430D01*
X225034Y110472D01*
X225125Y110518D01*
X225214Y110567D01*
X225300Y110619D01*
X225385Y110675D01*
X225468Y110733D01*
X225548Y110795D01*
X225626Y110860D01*
X225702Y110927D01*
X225775Y110997D01*
X225845Y111070D01*
X225912Y111146D01*
X225977Y111224D01*
X226039Y111304D01*
X226097Y111387D01*
X226153Y111472D01*
X226205Y111558D01*
X226254Y111647D01*
X226300Y111738D01*
X226342Y111830D01*
X226381Y111923D01*
X226416Y112018D01*
X226448Y112115D01*
X226476Y112212D01*
X226500Y112310D01*
X226521Y112409D01*
X226538Y112509D01*
X226551Y112610D01*
X226560Y112711D01*
X226566Y112812D01*
X226568Y112913D01*
X226568Y127300D02*
X210312Y127300D01*
X210312Y131815D01*
X210314Y131946D01*
X210320Y132078D01*
X210329Y132209D01*
X210343Y132339D01*
X210360Y132470D01*
X210381Y132599D01*
X210405Y132728D01*
X210434Y132856D01*
X210466Y132984D01*
X210502Y133110D01*
X210541Y133235D01*
X210584Y133360D01*
X210631Y133482D01*
X210681Y133604D01*
X210735Y133724D01*
X210792Y133842D01*
X210853Y133958D01*
X210917Y134073D01*
X210984Y134186D01*
X211055Y134297D01*
X211129Y134405D01*
X211206Y134512D01*
X211286Y134616D01*
X211369Y134718D01*
X211454Y134817D01*
X211543Y134914D01*
X211635Y135008D01*
X211729Y135100D01*
X211826Y135189D01*
X211925Y135274D01*
X212027Y135357D01*
X212131Y135437D01*
X212238Y135514D01*
X212346Y135588D01*
X212457Y135659D01*
X212570Y135726D01*
X212685Y135790D01*
X212801Y135851D01*
X212919Y135908D01*
X213039Y135962D01*
X213161Y136012D01*
X213283Y136059D01*
X213408Y136102D01*
X213533Y136141D01*
X213659Y136177D01*
X213787Y136209D01*
X213915Y136238D01*
X214044Y136262D01*
X214173Y136283D01*
X214304Y136300D01*
X214434Y136314D01*
X214565Y136323D01*
X214697Y136329D01*
X214828Y136331D01*
X222052Y136331D01*
X222052Y136332D02*
X222183Y136330D01*
X222315Y136324D01*
X222446Y136315D01*
X222576Y136301D01*
X222707Y136284D01*
X222836Y136263D01*
X222965Y136239D01*
X223093Y136210D01*
X223221Y136178D01*
X223347Y136142D01*
X223472Y136103D01*
X223597Y136060D01*
X223719Y136013D01*
X223841Y135963D01*
X223961Y135909D01*
X224079Y135852D01*
X224195Y135791D01*
X224310Y135727D01*
X224423Y135660D01*
X224534Y135589D01*
X224642Y135515D01*
X224749Y135438D01*
X224853Y135358D01*
X224955Y135275D01*
X225054Y135190D01*
X225151Y135101D01*
X225245Y135009D01*
X225337Y134915D01*
X225426Y134818D01*
X225511Y134719D01*
X225594Y134617D01*
X225674Y134513D01*
X225751Y134406D01*
X225825Y134298D01*
X225896Y134187D01*
X225963Y134074D01*
X226027Y133959D01*
X226088Y133843D01*
X226145Y133725D01*
X226199Y133605D01*
X226249Y133483D01*
X226296Y133361D01*
X226339Y133236D01*
X226378Y133111D01*
X226414Y132985D01*
X226446Y132857D01*
X226475Y132729D01*
X226499Y132600D01*
X226520Y132470D01*
X226537Y132340D01*
X226551Y132210D01*
X226560Y132079D01*
X226566Y131947D01*
X226568Y131816D01*
X226568Y131815D02*
X226568Y127300D01*
X215731Y142792D02*
X215731Y150017D01*
X226568Y142792D01*
X226568Y150017D01*
X226568Y155783D02*
X215731Y155783D01*
X211215Y155332D02*
X210312Y155332D01*
X210312Y156235D01*
X211215Y156235D01*
X211215Y155332D01*
X226568Y164707D02*
X226568Y169222D01*
X226568Y164707D02*
X226566Y164606D01*
X226560Y164505D01*
X226551Y164404D01*
X226538Y164303D01*
X226521Y164203D01*
X226500Y164104D01*
X226476Y164006D01*
X226448Y163909D01*
X226416Y163812D01*
X226381Y163717D01*
X226342Y163624D01*
X226300Y163532D01*
X226254Y163441D01*
X226205Y163352D01*
X226153Y163266D01*
X226097Y163181D01*
X226039Y163098D01*
X225977Y163018D01*
X225912Y162940D01*
X225845Y162864D01*
X225775Y162791D01*
X225702Y162721D01*
X225626Y162654D01*
X225548Y162589D01*
X225468Y162527D01*
X225385Y162469D01*
X225300Y162413D01*
X225214Y162361D01*
X225125Y162312D01*
X225034Y162266D01*
X224942Y162224D01*
X224849Y162185D01*
X224754Y162150D01*
X224657Y162118D01*
X224560Y162090D01*
X224462Y162066D01*
X224363Y162045D01*
X224263Y162028D01*
X224162Y162015D01*
X224061Y162006D01*
X223960Y162000D01*
X223859Y161998D01*
X223859Y161997D02*
X218440Y161997D01*
X218440Y161998D02*
X218339Y162000D01*
X218238Y162006D01*
X218137Y162015D01*
X218036Y162028D01*
X217936Y162045D01*
X217837Y162066D01*
X217739Y162090D01*
X217642Y162118D01*
X217545Y162150D01*
X217450Y162185D01*
X217357Y162224D01*
X217265Y162266D01*
X217174Y162312D01*
X217086Y162361D01*
X216999Y162413D01*
X216914Y162469D01*
X216831Y162527D01*
X216751Y162589D01*
X216673Y162654D01*
X216597Y162721D01*
X216524Y162791D01*
X216454Y162864D01*
X216387Y162940D01*
X216322Y163018D01*
X216260Y163098D01*
X216202Y163181D01*
X216146Y163266D01*
X216094Y163353D01*
X216045Y163441D01*
X215999Y163532D01*
X215957Y163624D01*
X215918Y163717D01*
X215883Y163812D01*
X215851Y163909D01*
X215823Y164006D01*
X215799Y164104D01*
X215778Y164203D01*
X215761Y164303D01*
X215748Y164404D01*
X215739Y164505D01*
X215733Y164606D01*
X215731Y164707D01*
X215731Y169222D01*
X229277Y169222D01*
X229378Y169220D01*
X229479Y169214D01*
X229580Y169205D01*
X229681Y169192D01*
X229781Y169175D01*
X229880Y169154D01*
X229978Y169130D01*
X230075Y169102D01*
X230172Y169070D01*
X230267Y169035D01*
X230360Y168996D01*
X230452Y168954D01*
X230543Y168908D01*
X230632Y168859D01*
X230718Y168807D01*
X230803Y168751D01*
X230886Y168693D01*
X230966Y168631D01*
X231044Y168566D01*
X231120Y168499D01*
X231193Y168429D01*
X231263Y168356D01*
X231330Y168280D01*
X231395Y168202D01*
X231457Y168122D01*
X231515Y168039D01*
X231571Y167954D01*
X231623Y167868D01*
X231672Y167779D01*
X231718Y167688D01*
X231760Y167596D01*
X231799Y167503D01*
X231834Y167408D01*
X231866Y167311D01*
X231894Y167214D01*
X231918Y167116D01*
X231939Y167017D01*
X231956Y166917D01*
X231969Y166816D01*
X231978Y166715D01*
X231984Y166614D01*
X231986Y166513D01*
X231987Y166513D02*
X231987Y162900D01*
X220246Y179226D02*
X220246Y183290D01*
X220246Y179226D02*
X220248Y179114D01*
X220254Y179003D01*
X220264Y178892D01*
X220277Y178781D01*
X220295Y178671D01*
X220317Y178562D01*
X220342Y178453D01*
X220371Y178345D01*
X220404Y178239D01*
X220441Y178133D01*
X220481Y178029D01*
X220525Y177927D01*
X220573Y177826D01*
X220624Y177727D01*
X220679Y177629D01*
X220737Y177534D01*
X220798Y177441D01*
X220863Y177350D01*
X220931Y177261D01*
X221002Y177175D01*
X221075Y177092D01*
X221152Y177011D01*
X221232Y176932D01*
X221314Y176857D01*
X221399Y176785D01*
X221486Y176715D01*
X221576Y176649D01*
X221668Y176586D01*
X221763Y176526D01*
X221859Y176470D01*
X221957Y176417D01*
X222057Y176368D01*
X222159Y176322D01*
X222262Y176280D01*
X222367Y176241D01*
X222473Y176206D01*
X222580Y176175D01*
X222688Y176148D01*
X222797Y176124D01*
X222907Y176105D01*
X223017Y176089D01*
X223128Y176077D01*
X223240Y176069D01*
X223351Y176065D01*
X223463Y176065D01*
X223574Y176069D01*
X223686Y176077D01*
X223797Y176089D01*
X223907Y176105D01*
X224017Y176124D01*
X224126Y176148D01*
X224234Y176175D01*
X224341Y176206D01*
X224447Y176241D01*
X224552Y176280D01*
X224655Y176322D01*
X224757Y176368D01*
X224857Y176417D01*
X224955Y176470D01*
X225051Y176526D01*
X225146Y176586D01*
X225238Y176649D01*
X225328Y176715D01*
X225415Y176785D01*
X225500Y176857D01*
X225582Y176932D01*
X225662Y177011D01*
X225739Y177092D01*
X225812Y177175D01*
X225883Y177261D01*
X225951Y177350D01*
X226016Y177441D01*
X226077Y177534D01*
X226135Y177629D01*
X226190Y177727D01*
X226241Y177826D01*
X226289Y177927D01*
X226333Y178029D01*
X226373Y178133D01*
X226410Y178239D01*
X226443Y178345D01*
X226472Y178453D01*
X226497Y178562D01*
X226519Y178671D01*
X226537Y178781D01*
X226550Y178892D01*
X226560Y179003D01*
X226566Y179114D01*
X226568Y179226D01*
X226568Y183290D01*
X218440Y183290D01*
X218339Y183288D01*
X218238Y183282D01*
X218137Y183273D01*
X218036Y183260D01*
X217936Y183243D01*
X217837Y183222D01*
X217739Y183198D01*
X217642Y183170D01*
X217545Y183138D01*
X217450Y183103D01*
X217357Y183064D01*
X217265Y183022D01*
X217174Y182976D01*
X217086Y182927D01*
X216999Y182875D01*
X216914Y182819D01*
X216831Y182761D01*
X216751Y182699D01*
X216673Y182634D01*
X216597Y182567D01*
X216524Y182497D01*
X216454Y182424D01*
X216387Y182348D01*
X216322Y182270D01*
X216260Y182190D01*
X216202Y182107D01*
X216146Y182022D01*
X216094Y181936D01*
X216045Y181847D01*
X215999Y181756D01*
X215957Y181664D01*
X215918Y181571D01*
X215883Y181476D01*
X215851Y181379D01*
X215823Y181282D01*
X215799Y181184D01*
X215778Y181085D01*
X215761Y180985D01*
X215748Y180884D01*
X215739Y180783D01*
X215733Y180682D01*
X215731Y180581D01*
X215731Y176969D01*
X215731Y189929D02*
X229277Y189929D01*
X229277Y189928D02*
X229378Y189926D01*
X229479Y189920D01*
X229580Y189911D01*
X229681Y189898D01*
X229781Y189881D01*
X229880Y189860D01*
X229978Y189836D01*
X230075Y189808D01*
X230172Y189776D01*
X230267Y189741D01*
X230360Y189702D01*
X230452Y189660D01*
X230543Y189614D01*
X230632Y189565D01*
X230718Y189513D01*
X230803Y189457D01*
X230886Y189399D01*
X230966Y189337D01*
X231044Y189272D01*
X231120Y189205D01*
X231193Y189135D01*
X231263Y189062D01*
X231330Y188986D01*
X231395Y188908D01*
X231457Y188828D01*
X231515Y188745D01*
X231571Y188660D01*
X231623Y188574D01*
X231672Y188485D01*
X231718Y188394D01*
X231760Y188302D01*
X231799Y188209D01*
X231834Y188114D01*
X231866Y188017D01*
X231894Y187920D01*
X231918Y187822D01*
X231939Y187723D01*
X231956Y187623D01*
X231969Y187522D01*
X231978Y187421D01*
X231984Y187320D01*
X231986Y187219D01*
X231987Y187219D02*
X231987Y186316D01*
X211215Y189477D02*
X210312Y189477D01*
X210312Y190380D01*
X211215Y190380D01*
X211215Y189477D01*
X226568Y199169D02*
X226568Y203684D01*
X226568Y199169D02*
X226566Y199068D01*
X226560Y198967D01*
X226551Y198866D01*
X226538Y198765D01*
X226521Y198665D01*
X226500Y198566D01*
X226476Y198468D01*
X226448Y198371D01*
X226416Y198274D01*
X226381Y198179D01*
X226342Y198086D01*
X226300Y197994D01*
X226254Y197903D01*
X226205Y197814D01*
X226153Y197728D01*
X226097Y197643D01*
X226039Y197560D01*
X225977Y197480D01*
X225912Y197402D01*
X225845Y197326D01*
X225775Y197253D01*
X225702Y197183D01*
X225626Y197116D01*
X225548Y197051D01*
X225468Y196989D01*
X225385Y196931D01*
X225300Y196875D01*
X225214Y196823D01*
X225125Y196774D01*
X225034Y196728D01*
X224942Y196686D01*
X224849Y196647D01*
X224754Y196612D01*
X224657Y196580D01*
X224560Y196552D01*
X224462Y196528D01*
X224363Y196507D01*
X224263Y196490D01*
X224162Y196477D01*
X224061Y196468D01*
X223960Y196462D01*
X223859Y196460D01*
X223859Y196459D02*
X219343Y196459D01*
X219343Y196460D02*
X219224Y196462D01*
X219104Y196468D01*
X218985Y196478D01*
X218867Y196492D01*
X218748Y196509D01*
X218631Y196531D01*
X218514Y196556D01*
X218399Y196586D01*
X218284Y196619D01*
X218170Y196656D01*
X218058Y196696D01*
X217947Y196741D01*
X217838Y196789D01*
X217730Y196840D01*
X217624Y196895D01*
X217520Y196954D01*
X217418Y197016D01*
X217318Y197081D01*
X217220Y197150D01*
X217124Y197222D01*
X217031Y197297D01*
X216941Y197374D01*
X216853Y197455D01*
X216768Y197539D01*
X216686Y197626D01*
X216606Y197715D01*
X216530Y197807D01*
X216456Y197901D01*
X216386Y197998D01*
X216319Y198096D01*
X216255Y198197D01*
X216195Y198301D01*
X216138Y198406D01*
X216085Y198513D01*
X216035Y198621D01*
X215989Y198731D01*
X215947Y198843D01*
X215908Y198956D01*
X215873Y199070D01*
X215842Y199185D01*
X215814Y199302D01*
X215791Y199419D01*
X215771Y199536D01*
X215755Y199655D01*
X215743Y199774D01*
X215735Y199893D01*
X215731Y200012D01*
X215731Y200132D01*
X215735Y200251D01*
X215743Y200370D01*
X215755Y200489D01*
X215771Y200608D01*
X215791Y200725D01*
X215814Y200842D01*
X215842Y200959D01*
X215873Y201074D01*
X215908Y201188D01*
X215947Y201301D01*
X215989Y201413D01*
X216035Y201523D01*
X216085Y201631D01*
X216138Y201738D01*
X216195Y201843D01*
X216255Y201947D01*
X216319Y202048D01*
X216386Y202146D01*
X216456Y202243D01*
X216530Y202337D01*
X216606Y202429D01*
X216686Y202518D01*
X216768Y202605D01*
X216853Y202689D01*
X216941Y202770D01*
X217031Y202847D01*
X217124Y202922D01*
X217220Y202994D01*
X217318Y203063D01*
X217418Y203128D01*
X217520Y203190D01*
X217624Y203249D01*
X217730Y203304D01*
X217838Y203355D01*
X217947Y203403D01*
X218058Y203448D01*
X218170Y203488D01*
X218284Y203525D01*
X218399Y203558D01*
X218514Y203588D01*
X218631Y203613D01*
X218748Y203635D01*
X218867Y203652D01*
X218985Y203666D01*
X219104Y203676D01*
X219224Y203682D01*
X219343Y203684D01*
X221149Y203684D01*
X221149Y196459D01*
X215731Y209485D02*
X226568Y213098D01*
X215731Y216710D01*
X236982Y38862D02*
X253238Y38862D01*
X246013Y44281D02*
X236982Y38862D01*
X246013Y44281D02*
X236982Y49699D01*
X253238Y49699D01*
X253238Y56334D02*
X252335Y56334D01*
X252335Y57237D01*
X253238Y57237D01*
X253238Y56334D01*
X253238Y63733D02*
X236982Y63733D01*
X236982Y68249D01*
X236984Y68380D01*
X236990Y68512D01*
X236999Y68643D01*
X237013Y68773D01*
X237030Y68904D01*
X237051Y69033D01*
X237075Y69162D01*
X237104Y69290D01*
X237136Y69418D01*
X237172Y69544D01*
X237211Y69669D01*
X237254Y69794D01*
X237301Y69916D01*
X237351Y70038D01*
X237405Y70158D01*
X237462Y70276D01*
X237523Y70392D01*
X237587Y70507D01*
X237654Y70620D01*
X237725Y70731D01*
X237799Y70839D01*
X237876Y70946D01*
X237956Y71050D01*
X238039Y71152D01*
X238124Y71251D01*
X238213Y71348D01*
X238305Y71442D01*
X238399Y71534D01*
X238496Y71623D01*
X238595Y71708D01*
X238697Y71791D01*
X238801Y71871D01*
X238908Y71948D01*
X239016Y72022D01*
X239127Y72093D01*
X239240Y72160D01*
X239355Y72224D01*
X239471Y72285D01*
X239589Y72342D01*
X239709Y72396D01*
X239831Y72446D01*
X239953Y72493D01*
X240078Y72536D01*
X240203Y72575D01*
X240329Y72611D01*
X240457Y72643D01*
X240585Y72672D01*
X240714Y72696D01*
X240843Y72717D01*
X240974Y72734D01*
X241104Y72748D01*
X241235Y72757D01*
X241367Y72763D01*
X241498Y72765D01*
X241498Y72764D02*
X248722Y72764D01*
X248722Y72765D02*
X248853Y72763D01*
X248985Y72757D01*
X249116Y72748D01*
X249246Y72734D01*
X249377Y72717D01*
X249506Y72696D01*
X249635Y72672D01*
X249763Y72643D01*
X249891Y72611D01*
X250017Y72575D01*
X250142Y72536D01*
X250267Y72493D01*
X250389Y72446D01*
X250511Y72396D01*
X250631Y72342D01*
X250749Y72285D01*
X250865Y72224D01*
X250980Y72160D01*
X251093Y72093D01*
X251204Y72022D01*
X251312Y71948D01*
X251419Y71871D01*
X251523Y71791D01*
X251625Y71708D01*
X251724Y71623D01*
X251821Y71534D01*
X251915Y71442D01*
X252007Y71348D01*
X252096Y71251D01*
X252181Y71152D01*
X252264Y71050D01*
X252344Y70946D01*
X252421Y70839D01*
X252495Y70731D01*
X252566Y70620D01*
X252633Y70507D01*
X252697Y70392D01*
X252758Y70276D01*
X252815Y70158D01*
X252869Y70038D01*
X252919Y69916D01*
X252966Y69794D01*
X253009Y69669D01*
X253048Y69544D01*
X253084Y69418D01*
X253116Y69290D01*
X253145Y69162D01*
X253169Y69033D01*
X253190Y68903D01*
X253207Y68773D01*
X253221Y68643D01*
X253230Y68512D01*
X253236Y68380D01*
X253238Y68249D01*
X253238Y63733D01*
X242401Y79225D02*
X242401Y86450D01*
X253238Y79225D01*
X253238Y86450D01*
X253238Y92216D02*
X242401Y92216D01*
X237885Y91765D02*
X236982Y91765D01*
X236982Y92668D01*
X237885Y92668D01*
X237885Y91765D01*
X253238Y101140D02*
X253238Y105655D01*
X253238Y101140D02*
X253236Y101039D01*
X253230Y100938D01*
X253221Y100837D01*
X253208Y100736D01*
X253191Y100636D01*
X253170Y100537D01*
X253146Y100439D01*
X253118Y100342D01*
X253086Y100245D01*
X253051Y100150D01*
X253012Y100057D01*
X252970Y99965D01*
X252924Y99874D01*
X252875Y99785D01*
X252823Y99699D01*
X252767Y99614D01*
X252709Y99531D01*
X252647Y99451D01*
X252582Y99373D01*
X252515Y99297D01*
X252445Y99224D01*
X252372Y99154D01*
X252296Y99087D01*
X252218Y99022D01*
X252138Y98960D01*
X252055Y98902D01*
X251970Y98846D01*
X251884Y98794D01*
X251795Y98745D01*
X251704Y98699D01*
X251612Y98657D01*
X251519Y98618D01*
X251424Y98583D01*
X251327Y98551D01*
X251230Y98523D01*
X251132Y98499D01*
X251033Y98478D01*
X250933Y98461D01*
X250832Y98448D01*
X250731Y98439D01*
X250630Y98433D01*
X250529Y98431D01*
X250529Y98430D02*
X245110Y98430D01*
X245110Y98431D02*
X245009Y98433D01*
X244908Y98439D01*
X244807Y98448D01*
X244706Y98461D01*
X244606Y98478D01*
X244507Y98499D01*
X244409Y98523D01*
X244312Y98551D01*
X244215Y98583D01*
X244120Y98618D01*
X244027Y98657D01*
X243935Y98699D01*
X243844Y98745D01*
X243756Y98794D01*
X243669Y98846D01*
X243584Y98902D01*
X243501Y98960D01*
X243421Y99022D01*
X243343Y99087D01*
X243267Y99154D01*
X243194Y99224D01*
X243124Y99297D01*
X243057Y99373D01*
X242992Y99451D01*
X242930Y99531D01*
X242872Y99614D01*
X242816Y99699D01*
X242764Y99786D01*
X242715Y99874D01*
X242669Y99965D01*
X242627Y100057D01*
X242588Y100150D01*
X242553Y100245D01*
X242521Y100342D01*
X242493Y100439D01*
X242469Y100537D01*
X242448Y100636D01*
X242431Y100736D01*
X242418Y100837D01*
X242409Y100938D01*
X242403Y101039D01*
X242401Y101140D01*
X242401Y105655D01*
X255947Y105655D01*
X256048Y105653D01*
X256149Y105647D01*
X256250Y105638D01*
X256351Y105625D01*
X256451Y105608D01*
X256550Y105587D01*
X256648Y105563D01*
X256745Y105535D01*
X256842Y105503D01*
X256937Y105468D01*
X257030Y105429D01*
X257122Y105387D01*
X257213Y105341D01*
X257302Y105292D01*
X257388Y105240D01*
X257473Y105184D01*
X257556Y105126D01*
X257636Y105064D01*
X257714Y104999D01*
X257790Y104932D01*
X257863Y104862D01*
X257933Y104789D01*
X258000Y104713D01*
X258065Y104635D01*
X258127Y104555D01*
X258185Y104472D01*
X258241Y104387D01*
X258293Y104301D01*
X258342Y104212D01*
X258388Y104121D01*
X258430Y104029D01*
X258469Y103936D01*
X258504Y103841D01*
X258536Y103744D01*
X258564Y103647D01*
X258588Y103549D01*
X258609Y103450D01*
X258626Y103350D01*
X258639Y103249D01*
X258648Y103148D01*
X258654Y103047D01*
X258656Y102946D01*
X258657Y102946D02*
X258657Y99334D01*
X246916Y115659D02*
X246916Y119723D01*
X246916Y115659D02*
X246918Y115547D01*
X246924Y115436D01*
X246934Y115325D01*
X246947Y115214D01*
X246965Y115104D01*
X246987Y114995D01*
X247012Y114886D01*
X247041Y114778D01*
X247074Y114672D01*
X247111Y114566D01*
X247151Y114462D01*
X247195Y114360D01*
X247243Y114259D01*
X247294Y114160D01*
X247349Y114062D01*
X247407Y113967D01*
X247468Y113874D01*
X247533Y113783D01*
X247601Y113694D01*
X247672Y113608D01*
X247745Y113525D01*
X247822Y113444D01*
X247902Y113365D01*
X247984Y113290D01*
X248069Y113218D01*
X248156Y113148D01*
X248246Y113082D01*
X248338Y113019D01*
X248433Y112959D01*
X248529Y112903D01*
X248627Y112850D01*
X248727Y112801D01*
X248829Y112755D01*
X248932Y112713D01*
X249037Y112674D01*
X249143Y112639D01*
X249250Y112608D01*
X249358Y112581D01*
X249467Y112557D01*
X249577Y112538D01*
X249687Y112522D01*
X249798Y112510D01*
X249910Y112502D01*
X250021Y112498D01*
X250133Y112498D01*
X250244Y112502D01*
X250356Y112510D01*
X250467Y112522D01*
X250577Y112538D01*
X250687Y112557D01*
X250796Y112581D01*
X250904Y112608D01*
X251011Y112639D01*
X251117Y112674D01*
X251222Y112713D01*
X251325Y112755D01*
X251427Y112801D01*
X251527Y112850D01*
X251625Y112903D01*
X251721Y112959D01*
X251816Y113019D01*
X251908Y113082D01*
X251998Y113148D01*
X252085Y113218D01*
X252170Y113290D01*
X252252Y113365D01*
X252332Y113444D01*
X252409Y113525D01*
X252482Y113608D01*
X252553Y113694D01*
X252621Y113783D01*
X252686Y113874D01*
X252747Y113967D01*
X252805Y114062D01*
X252860Y114160D01*
X252911Y114259D01*
X252959Y114360D01*
X253003Y114462D01*
X253043Y114566D01*
X253080Y114672D01*
X253113Y114778D01*
X253142Y114886D01*
X253167Y114995D01*
X253189Y115104D01*
X253207Y115214D01*
X253220Y115325D01*
X253230Y115436D01*
X253236Y115547D01*
X253238Y115659D01*
X253238Y119723D01*
X245110Y119723D01*
X245009Y119721D01*
X244908Y119715D01*
X244807Y119706D01*
X244706Y119693D01*
X244606Y119676D01*
X244507Y119655D01*
X244409Y119631D01*
X244312Y119603D01*
X244215Y119571D01*
X244120Y119536D01*
X244027Y119497D01*
X243935Y119455D01*
X243844Y119409D01*
X243756Y119360D01*
X243669Y119308D01*
X243584Y119252D01*
X243501Y119194D01*
X243421Y119132D01*
X243343Y119067D01*
X243267Y119000D01*
X243194Y118930D01*
X243124Y118857D01*
X243057Y118781D01*
X242992Y118703D01*
X242930Y118623D01*
X242872Y118540D01*
X242816Y118455D01*
X242764Y118369D01*
X242715Y118280D01*
X242669Y118189D01*
X242627Y118097D01*
X242588Y118004D01*
X242553Y117909D01*
X242521Y117812D01*
X242493Y117715D01*
X242469Y117617D01*
X242448Y117518D01*
X242431Y117418D01*
X242418Y117317D01*
X242409Y117216D01*
X242403Y117115D01*
X242401Y117014D01*
X242401Y113402D01*
X242401Y126362D02*
X255947Y126362D01*
X256048Y126360D01*
X256149Y126354D01*
X256250Y126345D01*
X256351Y126332D01*
X256451Y126315D01*
X256550Y126294D01*
X256648Y126270D01*
X256745Y126242D01*
X256842Y126210D01*
X256937Y126175D01*
X257030Y126136D01*
X257122Y126094D01*
X257213Y126048D01*
X257302Y125999D01*
X257388Y125947D01*
X257473Y125891D01*
X257556Y125833D01*
X257636Y125771D01*
X257714Y125706D01*
X257790Y125639D01*
X257863Y125569D01*
X257933Y125496D01*
X258000Y125420D01*
X258065Y125342D01*
X258127Y125262D01*
X258185Y125179D01*
X258241Y125094D01*
X258293Y125008D01*
X258342Y124919D01*
X258388Y124828D01*
X258430Y124736D01*
X258469Y124643D01*
X258504Y124548D01*
X258536Y124451D01*
X258564Y124354D01*
X258588Y124256D01*
X258609Y124157D01*
X258626Y124057D01*
X258639Y123956D01*
X258648Y123855D01*
X258654Y123754D01*
X258656Y123653D01*
X258657Y123653D02*
X258657Y122749D01*
X237885Y125910D02*
X236982Y125910D01*
X236982Y126813D01*
X237885Y126813D01*
X237885Y125910D01*
X253238Y135602D02*
X253238Y140117D01*
X253238Y135602D02*
X253236Y135501D01*
X253230Y135400D01*
X253221Y135299D01*
X253208Y135198D01*
X253191Y135098D01*
X253170Y134999D01*
X253146Y134901D01*
X253118Y134804D01*
X253086Y134707D01*
X253051Y134612D01*
X253012Y134519D01*
X252970Y134427D01*
X252924Y134336D01*
X252875Y134247D01*
X252823Y134161D01*
X252767Y134076D01*
X252709Y133993D01*
X252647Y133913D01*
X252582Y133835D01*
X252515Y133759D01*
X252445Y133686D01*
X252372Y133616D01*
X252296Y133549D01*
X252218Y133484D01*
X252138Y133422D01*
X252055Y133364D01*
X251970Y133308D01*
X251884Y133256D01*
X251795Y133207D01*
X251704Y133161D01*
X251612Y133119D01*
X251519Y133080D01*
X251424Y133045D01*
X251327Y133013D01*
X251230Y132985D01*
X251132Y132961D01*
X251033Y132940D01*
X250933Y132923D01*
X250832Y132910D01*
X250731Y132901D01*
X250630Y132895D01*
X250529Y132893D01*
X250529Y132892D02*
X246013Y132892D01*
X246013Y132893D02*
X245894Y132895D01*
X245774Y132901D01*
X245655Y132911D01*
X245537Y132925D01*
X245418Y132942D01*
X245301Y132964D01*
X245184Y132989D01*
X245069Y133019D01*
X244954Y133052D01*
X244840Y133089D01*
X244728Y133129D01*
X244617Y133174D01*
X244508Y133222D01*
X244400Y133273D01*
X244294Y133328D01*
X244190Y133387D01*
X244088Y133449D01*
X243988Y133514D01*
X243890Y133583D01*
X243794Y133655D01*
X243701Y133730D01*
X243611Y133807D01*
X243523Y133888D01*
X243438Y133972D01*
X243356Y134059D01*
X243276Y134148D01*
X243200Y134240D01*
X243126Y134334D01*
X243056Y134431D01*
X242989Y134529D01*
X242925Y134630D01*
X242865Y134734D01*
X242808Y134839D01*
X242755Y134946D01*
X242705Y135054D01*
X242659Y135164D01*
X242617Y135276D01*
X242578Y135389D01*
X242543Y135503D01*
X242512Y135618D01*
X242484Y135735D01*
X242461Y135852D01*
X242441Y135969D01*
X242425Y136088D01*
X242413Y136207D01*
X242405Y136326D01*
X242401Y136445D01*
X242401Y136565D01*
X242405Y136684D01*
X242413Y136803D01*
X242425Y136922D01*
X242441Y137041D01*
X242461Y137158D01*
X242484Y137275D01*
X242512Y137392D01*
X242543Y137507D01*
X242578Y137621D01*
X242617Y137734D01*
X242659Y137846D01*
X242705Y137956D01*
X242755Y138064D01*
X242808Y138171D01*
X242865Y138276D01*
X242925Y138380D01*
X242989Y138481D01*
X243056Y138579D01*
X243126Y138676D01*
X243200Y138770D01*
X243276Y138862D01*
X243356Y138951D01*
X243438Y139038D01*
X243523Y139122D01*
X243611Y139203D01*
X243701Y139280D01*
X243794Y139355D01*
X243890Y139427D01*
X243988Y139496D01*
X244088Y139561D01*
X244190Y139623D01*
X244294Y139682D01*
X244400Y139737D01*
X244508Y139788D01*
X244617Y139836D01*
X244728Y139881D01*
X244840Y139921D01*
X244954Y139958D01*
X245069Y139991D01*
X245184Y140021D01*
X245301Y140046D01*
X245418Y140068D01*
X245537Y140085D01*
X245655Y140099D01*
X245774Y140109D01*
X245894Y140115D01*
X246013Y140117D01*
X247819Y140117D01*
X247819Y132892D01*
X242401Y145918D02*
X253238Y149531D01*
X242401Y153143D01*
X239691Y167246D02*
X239691Y169956D01*
X239692Y167246D02*
X239694Y167145D01*
X239700Y167044D01*
X239709Y166943D01*
X239722Y166842D01*
X239739Y166742D01*
X239760Y166643D01*
X239784Y166545D01*
X239812Y166448D01*
X239844Y166351D01*
X239879Y166256D01*
X239918Y166163D01*
X239960Y166071D01*
X240006Y165980D01*
X240055Y165892D01*
X240107Y165805D01*
X240163Y165720D01*
X240221Y165637D01*
X240283Y165557D01*
X240348Y165479D01*
X240415Y165403D01*
X240485Y165330D01*
X240558Y165260D01*
X240634Y165193D01*
X240712Y165128D01*
X240792Y165066D01*
X240875Y165008D01*
X240960Y164952D01*
X241047Y164900D01*
X241135Y164851D01*
X241226Y164805D01*
X241318Y164763D01*
X241411Y164724D01*
X241506Y164689D01*
X241603Y164657D01*
X241700Y164629D01*
X241798Y164605D01*
X241897Y164584D01*
X241997Y164567D01*
X242098Y164554D01*
X242199Y164545D01*
X242300Y164539D01*
X242401Y164537D01*
X247819Y164537D01*
X247922Y164539D01*
X248024Y164545D01*
X248126Y164554D01*
X248228Y164568D01*
X248329Y164585D01*
X248429Y164607D01*
X248528Y164632D01*
X248627Y164660D01*
X248724Y164693D01*
X248820Y164729D01*
X248915Y164768D01*
X249008Y164812D01*
X249099Y164858D01*
X249188Y164909D01*
X249276Y164962D01*
X249361Y165019D01*
X249444Y165079D01*
X249525Y165142D01*
X249604Y165208D01*
X249679Y165277D01*
X249753Y165349D01*
X249823Y165423D01*
X249891Y165500D01*
X249955Y165580D01*
X250017Y165662D01*
X250075Y165746D01*
X250130Y165833D01*
X250182Y165921D01*
X250230Y166012D01*
X250275Y166104D01*
X250317Y166197D01*
X250355Y166293D01*
X250389Y166389D01*
X250420Y166487D01*
X250446Y166586D01*
X250470Y166686D01*
X250489Y166787D01*
X250504Y166888D01*
X250516Y166990D01*
X250524Y167092D01*
X250528Y167195D01*
X250528Y167297D01*
X250524Y167400D01*
X250516Y167502D01*
X250504Y167604D01*
X250489Y167705D01*
X250470Y167806D01*
X250446Y167906D01*
X250420Y168005D01*
X250389Y168103D01*
X250355Y168199D01*
X250317Y168295D01*
X250275Y168388D01*
X250230Y168480D01*
X250182Y168571D01*
X250130Y168659D01*
X250075Y168746D01*
X250017Y168830D01*
X249955Y168912D01*
X249891Y168992D01*
X249823Y169069D01*
X249753Y169143D01*
X249679Y169215D01*
X249604Y169284D01*
X249525Y169350D01*
X249444Y169413D01*
X249361Y169473D01*
X249276Y169530D01*
X249188Y169583D01*
X249099Y169634D01*
X249008Y169680D01*
X248915Y169724D01*
X248820Y169763D01*
X248724Y169799D01*
X248627Y169832D01*
X248528Y169860D01*
X248429Y169885D01*
X248329Y169907D01*
X248228Y169924D01*
X248126Y169938D01*
X248024Y169947D01*
X247922Y169953D01*
X247819Y169955D01*
X248271Y169956D02*
X239691Y169956D01*
X248271Y169955D02*
X248364Y169957D01*
X248457Y169963D01*
X248550Y169972D01*
X248643Y169986D01*
X248734Y170003D01*
X248825Y170024D01*
X248915Y170049D01*
X249004Y170077D01*
X249092Y170109D01*
X249178Y170145D01*
X249263Y170184D01*
X249346Y170227D01*
X249427Y170273D01*
X249506Y170323D01*
X249583Y170375D01*
X249658Y170431D01*
X249730Y170490D01*
X249800Y170552D01*
X249868Y170616D01*
X249932Y170684D01*
X249994Y170754D01*
X250053Y170826D01*
X250109Y170901D01*
X250161Y170978D01*
X250211Y171057D01*
X250257Y171138D01*
X250300Y171221D01*
X250339Y171306D01*
X250375Y171392D01*
X250407Y171480D01*
X250435Y171569D01*
X250460Y171659D01*
X250481Y171750D01*
X250498Y171841D01*
X250512Y171934D01*
X250521Y172027D01*
X250527Y172120D01*
X250529Y172213D01*
X250527Y172306D01*
X250521Y172399D01*
X250512Y172492D01*
X250498Y172585D01*
X250481Y172676D01*
X250460Y172767D01*
X250435Y172857D01*
X250407Y172946D01*
X250375Y173034D01*
X250339Y173120D01*
X250300Y173205D01*
X250257Y173288D01*
X250211Y173369D01*
X250161Y173448D01*
X250109Y173525D01*
X250053Y173600D01*
X249994Y173672D01*
X249932Y173742D01*
X249868Y173810D01*
X249800Y173874D01*
X249730Y173936D01*
X249658Y173995D01*
X249583Y174051D01*
X249506Y174103D01*
X249427Y174153D01*
X249346Y174199D01*
X249263Y174242D01*
X249178Y174281D01*
X249092Y174317D01*
X249004Y174349D01*
X248915Y174377D01*
X248825Y174402D01*
X248734Y174423D01*
X248643Y174440D01*
X248550Y174454D01*
X248457Y174463D01*
X248364Y174469D01*
X248271Y174471D01*
X241498Y174471D01*
X241322Y174469D01*
X241146Y174462D01*
X240971Y174452D01*
X240795Y174437D01*
X240620Y174418D01*
X240446Y174394D01*
X240272Y174366D01*
X240099Y174334D01*
X239927Y174298D01*
X239756Y174258D01*
X239586Y174213D01*
X239416Y174165D01*
X239249Y174112D01*
X239082Y174055D01*
X238917Y173994D01*
X238753Y173929D01*
X238592Y173861D01*
X238431Y173788D01*
X238273Y173711D01*
X238116Y173631D01*
X237962Y173547D01*
X237810Y173459D01*
X237659Y173367D01*
X237511Y173272D01*
X237366Y173173D01*
X237223Y173070D01*
X237082Y172965D01*
X236944Y172855D01*
X236809Y172743D01*
X236677Y172627D01*
X236547Y172508D01*
X236420Y172386D01*
X236297Y172261D01*
X236176Y172133D01*
X236059Y172001D01*
X235945Y171868D01*
X235834Y171731D01*
X235726Y171592D01*
X235622Y171450D01*
X235521Y171306D01*
X235424Y171159D01*
X235331Y171010D01*
X235241Y170859D01*
X235155Y170705D01*
X235073Y170550D01*
X234994Y170392D01*
X234919Y170233D01*
X234848Y170072D01*
X234782Y169909D01*
X234719Y169745D01*
X234660Y169579D01*
X234605Y169412D01*
X234555Y169243D01*
X234508Y169073D01*
X234466Y168903D01*
X234427Y168731D01*
X234393Y168558D01*
X234363Y168385D01*
X234338Y168211D01*
X234316Y168036D01*
X234299Y167861D01*
X234286Y167686D01*
X234278Y167510D01*
X234274Y167334D01*
X234274Y167158D01*
X234278Y166982D01*
X234286Y166806D01*
X234299Y166631D01*
X234316Y166456D01*
X234338Y166281D01*
X234363Y166107D01*
X234393Y165934D01*
X234427Y165761D01*
X234466Y165589D01*
X234508Y165419D01*
X234555Y165249D01*
X234605Y165080D01*
X234660Y164913D01*
X234719Y164747D01*
X234782Y164583D01*
X234848Y164420D01*
X234919Y164259D01*
X234994Y164100D01*
X235073Y163942D01*
X235155Y163787D01*
X235241Y163633D01*
X235331Y163482D01*
X235424Y163333D01*
X235521Y163186D01*
X235622Y163042D01*
X235726Y162900D01*
X235834Y162761D01*
X235945Y162624D01*
X236059Y162491D01*
X236176Y162359D01*
X236297Y162231D01*
X236420Y162106D01*
X236547Y161984D01*
X236677Y161865D01*
X236809Y161749D01*
X236944Y161637D01*
X237082Y161527D01*
X237223Y161422D01*
X237366Y161319D01*
X237511Y161220D01*
X237659Y161125D01*
X237810Y161033D01*
X237962Y160945D01*
X238116Y160861D01*
X238273Y160781D01*
X238431Y160704D01*
X238592Y160631D01*
X238753Y160563D01*
X238917Y160498D01*
X239082Y160437D01*
X239249Y160380D01*
X239416Y160327D01*
X239586Y160279D01*
X239756Y160234D01*
X239927Y160194D01*
X240099Y160158D01*
X240272Y160126D01*
X240446Y160098D01*
X240620Y160074D01*
X240795Y160055D01*
X240971Y160040D01*
X241146Y160030D01*
X241322Y160023D01*
X241498Y160021D01*
X249174Y160021D01*
X249174Y160022D02*
X249338Y160024D01*
X249503Y160030D01*
X249667Y160040D01*
X249831Y160054D01*
X249994Y160072D01*
X250157Y160094D01*
X250320Y160119D01*
X250481Y160149D01*
X250642Y160183D01*
X250802Y160220D01*
X250962Y160262D01*
X251120Y160307D01*
X251277Y160356D01*
X251432Y160409D01*
X251587Y160465D01*
X251740Y160526D01*
X251891Y160590D01*
X252041Y160657D01*
X252189Y160728D01*
X252336Y160803D01*
X252480Y160882D01*
X252623Y160963D01*
X252764Y161049D01*
X252902Y161137D01*
X253039Y161229D01*
X253173Y161325D01*
X253304Y161423D01*
X253434Y161525D01*
X253560Y161629D01*
X253685Y161737D01*
X253806Y161848D01*
X253925Y161962D01*
X254041Y162078D01*
X254154Y162197D01*
X254265Y162319D01*
X254372Y162444D01*
X254476Y162571D01*
X254577Y162701D01*
X254675Y162833D01*
X254770Y162967D01*
X254862Y163104D01*
X254950Y163243D01*
X255034Y163384D01*
X255116Y163527D01*
X255193Y163672D01*
X255268Y163818D01*
X255338Y163967D01*
X255406Y164117D01*
X255469Y164269D01*
X255529Y164422D01*
X255585Y164576D01*
X255637Y164732D01*
X255685Y164890D01*
X255730Y165048D01*
X255771Y165207D01*
X255808Y165367D01*
X255841Y165528D01*
X255870Y165690D01*
X255895Y165853D01*
X255916Y166016D01*
X255934Y166179D01*
X255947Y166343D01*
X253238Y184506D02*
X253238Y189022D01*
X253238Y184506D02*
X253236Y184405D01*
X253230Y184304D01*
X253221Y184203D01*
X253208Y184102D01*
X253191Y184002D01*
X253170Y183903D01*
X253146Y183805D01*
X253118Y183708D01*
X253086Y183611D01*
X253051Y183516D01*
X253012Y183423D01*
X252970Y183331D01*
X252924Y183240D01*
X252875Y183151D01*
X252823Y183065D01*
X252767Y182980D01*
X252709Y182897D01*
X252647Y182817D01*
X252582Y182739D01*
X252515Y182663D01*
X252445Y182590D01*
X252372Y182520D01*
X252296Y182453D01*
X252218Y182388D01*
X252138Y182326D01*
X252055Y182268D01*
X251970Y182212D01*
X251884Y182160D01*
X251795Y182111D01*
X251704Y182065D01*
X251612Y182023D01*
X251519Y181984D01*
X251424Y181949D01*
X251327Y181917D01*
X251230Y181889D01*
X251132Y181865D01*
X251033Y181844D01*
X250933Y181827D01*
X250832Y181814D01*
X250731Y181805D01*
X250630Y181799D01*
X250529Y181797D01*
X245110Y181797D01*
X245009Y181799D01*
X244908Y181805D01*
X244807Y181814D01*
X244706Y181827D01*
X244606Y181844D01*
X244507Y181865D01*
X244409Y181889D01*
X244312Y181917D01*
X244215Y181949D01*
X244120Y181984D01*
X244027Y182023D01*
X243935Y182065D01*
X243844Y182111D01*
X243756Y182160D01*
X243669Y182212D01*
X243584Y182268D01*
X243501Y182326D01*
X243421Y182388D01*
X243343Y182453D01*
X243267Y182520D01*
X243194Y182590D01*
X243124Y182663D01*
X243057Y182739D01*
X242992Y182817D01*
X242930Y182897D01*
X242872Y182980D01*
X242816Y183065D01*
X242764Y183152D01*
X242715Y183240D01*
X242669Y183331D01*
X242627Y183423D01*
X242588Y183516D01*
X242553Y183611D01*
X242521Y183708D01*
X242493Y183805D01*
X242469Y183903D01*
X242448Y184002D01*
X242431Y184102D01*
X242418Y184203D01*
X242409Y184304D01*
X242403Y184405D01*
X242401Y184506D01*
X242401Y189022D01*
X255947Y189022D01*
X255947Y189021D02*
X256048Y189019D01*
X256149Y189013D01*
X256250Y189004D01*
X256351Y188991D01*
X256451Y188974D01*
X256550Y188953D01*
X256648Y188929D01*
X256745Y188901D01*
X256842Y188869D01*
X256937Y188834D01*
X257030Y188795D01*
X257122Y188753D01*
X257213Y188707D01*
X257302Y188658D01*
X257388Y188606D01*
X257473Y188550D01*
X257556Y188492D01*
X257636Y188430D01*
X257714Y188365D01*
X257790Y188298D01*
X257863Y188228D01*
X257933Y188155D01*
X258000Y188079D01*
X258065Y188001D01*
X258127Y187921D01*
X258185Y187838D01*
X258241Y187753D01*
X258293Y187667D01*
X258342Y187578D01*
X258388Y187487D01*
X258430Y187395D01*
X258469Y187302D01*
X258504Y187207D01*
X258536Y187110D01*
X258564Y187013D01*
X258588Y186915D01*
X258609Y186816D01*
X258626Y186716D01*
X258639Y186615D01*
X258648Y186514D01*
X258654Y186413D01*
X258656Y186312D01*
X258657Y186312D02*
X258657Y182700D01*
X253238Y196737D02*
X242401Y196737D01*
X242401Y204865D01*
X242403Y204966D01*
X242409Y205067D01*
X242418Y205168D01*
X242431Y205269D01*
X242448Y205369D01*
X242469Y205468D01*
X242493Y205566D01*
X242521Y205663D01*
X242553Y205760D01*
X242588Y205855D01*
X242627Y205948D01*
X242669Y206040D01*
X242715Y206131D01*
X242764Y206220D01*
X242816Y206306D01*
X242872Y206391D01*
X242930Y206474D01*
X242992Y206554D01*
X243057Y206632D01*
X243124Y206708D01*
X243194Y206781D01*
X243267Y206851D01*
X243343Y206918D01*
X243421Y206983D01*
X243501Y207045D01*
X243584Y207103D01*
X243669Y207159D01*
X243756Y207211D01*
X243844Y207260D01*
X243935Y207306D01*
X244027Y207348D01*
X244120Y207387D01*
X244215Y207422D01*
X244312Y207454D01*
X244409Y207482D01*
X244507Y207506D01*
X244606Y207527D01*
X244706Y207544D01*
X244807Y207557D01*
X244908Y207566D01*
X245009Y207572D01*
X245110Y207574D01*
X245110Y207575D02*
X253238Y207575D01*
X253238Y202156D02*
X242401Y202156D01*
X246916Y217783D02*
X246916Y221847D01*
X246916Y217783D02*
X246918Y217671D01*
X246924Y217560D01*
X246934Y217449D01*
X246947Y217338D01*
X246965Y217228D01*
X246987Y217119D01*
X247012Y217010D01*
X247041Y216902D01*
X247074Y216796D01*
X247111Y216690D01*
X247151Y216586D01*
X247195Y216484D01*
X247243Y216383D01*
X247294Y216284D01*
X247349Y216186D01*
X247407Y216091D01*
X247468Y215998D01*
X247533Y215907D01*
X247601Y215818D01*
X247672Y215732D01*
X247745Y215649D01*
X247822Y215568D01*
X247902Y215489D01*
X247984Y215414D01*
X248069Y215342D01*
X248156Y215272D01*
X248246Y215206D01*
X248338Y215143D01*
X248433Y215083D01*
X248529Y215027D01*
X248627Y214974D01*
X248727Y214925D01*
X248829Y214879D01*
X248932Y214837D01*
X249037Y214798D01*
X249143Y214763D01*
X249250Y214732D01*
X249358Y214705D01*
X249467Y214681D01*
X249577Y214662D01*
X249687Y214646D01*
X249798Y214634D01*
X249910Y214626D01*
X250021Y214622D01*
X250133Y214622D01*
X250244Y214626D01*
X250356Y214634D01*
X250467Y214646D01*
X250577Y214662D01*
X250687Y214681D01*
X250796Y214705D01*
X250904Y214732D01*
X251011Y214763D01*
X251117Y214798D01*
X251222Y214837D01*
X251325Y214879D01*
X251427Y214925D01*
X251527Y214974D01*
X251625Y215027D01*
X251721Y215083D01*
X251816Y215143D01*
X251908Y215206D01*
X251998Y215272D01*
X252085Y215342D01*
X252170Y215414D01*
X252252Y215489D01*
X252332Y215568D01*
X252409Y215649D01*
X252482Y215732D01*
X252553Y215818D01*
X252621Y215907D01*
X252686Y215998D01*
X252747Y216091D01*
X252805Y216186D01*
X252860Y216284D01*
X252911Y216383D01*
X252959Y216484D01*
X253003Y216586D01*
X253043Y216690D01*
X253080Y216796D01*
X253113Y216902D01*
X253142Y217010D01*
X253167Y217119D01*
X253189Y217228D01*
X253207Y217338D01*
X253220Y217449D01*
X253230Y217560D01*
X253236Y217671D01*
X253238Y217783D01*
X253238Y221847D01*
X245110Y221847D01*
X245009Y221845D01*
X244908Y221839D01*
X244807Y221830D01*
X244706Y221817D01*
X244606Y221800D01*
X244507Y221779D01*
X244409Y221755D01*
X244312Y221727D01*
X244215Y221695D01*
X244120Y221660D01*
X244027Y221621D01*
X243935Y221579D01*
X243844Y221533D01*
X243756Y221484D01*
X243669Y221432D01*
X243584Y221376D01*
X243501Y221318D01*
X243421Y221256D01*
X243343Y221191D01*
X243267Y221124D01*
X243194Y221054D01*
X243124Y220981D01*
X243057Y220905D01*
X242992Y220827D01*
X242930Y220747D01*
X242872Y220664D01*
X242816Y220579D01*
X242764Y220493D01*
X242715Y220404D01*
X242669Y220313D01*
X242627Y220221D01*
X242588Y220128D01*
X242553Y220033D01*
X242521Y219936D01*
X242493Y219839D01*
X242469Y219741D01*
X242448Y219642D01*
X242431Y219542D01*
X242418Y219441D01*
X242409Y219340D01*
X242403Y219239D01*
X242401Y219138D01*
X242401Y215526D01*
X242401Y228729D02*
X253238Y228729D01*
X237885Y228278D02*
X236982Y228278D01*
X236982Y229181D01*
X237885Y229181D01*
X237885Y228278D01*
X236982Y235253D02*
X250529Y235253D01*
X250529Y235254D02*
X250630Y235256D01*
X250731Y235262D01*
X250832Y235271D01*
X250933Y235284D01*
X251033Y235301D01*
X251132Y235322D01*
X251230Y235346D01*
X251327Y235374D01*
X251424Y235406D01*
X251519Y235441D01*
X251612Y235480D01*
X251704Y235522D01*
X251795Y235568D01*
X251884Y235617D01*
X251970Y235669D01*
X252055Y235725D01*
X252138Y235783D01*
X252218Y235845D01*
X252296Y235910D01*
X252372Y235977D01*
X252445Y236047D01*
X252515Y236120D01*
X252582Y236196D01*
X252647Y236274D01*
X252709Y236354D01*
X252767Y236437D01*
X252823Y236522D01*
X252875Y236608D01*
X252924Y236697D01*
X252970Y236788D01*
X253012Y236880D01*
X253051Y236973D01*
X253086Y237068D01*
X253118Y237165D01*
X253146Y237262D01*
X253170Y237360D01*
X253191Y237459D01*
X253208Y237559D01*
X253221Y237660D01*
X253230Y237761D01*
X253236Y237862D01*
X253238Y237963D01*
X253238Y242867D02*
X252335Y242867D01*
X252335Y243770D01*
X253238Y243770D01*
X253238Y242867D01*
X253238Y252332D02*
X253238Y255945D01*
X253238Y252332D02*
X253236Y252231D01*
X253230Y252130D01*
X253221Y252029D01*
X253208Y251928D01*
X253191Y251828D01*
X253170Y251729D01*
X253146Y251631D01*
X253118Y251534D01*
X253086Y251437D01*
X253051Y251342D01*
X253012Y251249D01*
X252970Y251157D01*
X252924Y251066D01*
X252875Y250977D01*
X252823Y250891D01*
X252767Y250806D01*
X252709Y250723D01*
X252647Y250643D01*
X252582Y250565D01*
X252515Y250489D01*
X252445Y250416D01*
X252372Y250346D01*
X252296Y250279D01*
X252218Y250214D01*
X252138Y250152D01*
X252055Y250094D01*
X251970Y250038D01*
X251884Y249986D01*
X251795Y249937D01*
X251704Y249891D01*
X251612Y249849D01*
X251519Y249810D01*
X251424Y249775D01*
X251327Y249743D01*
X251230Y249715D01*
X251132Y249691D01*
X251033Y249670D01*
X250933Y249653D01*
X250832Y249640D01*
X250731Y249631D01*
X250630Y249625D01*
X250529Y249623D01*
X245110Y249623D01*
X245009Y249625D01*
X244908Y249631D01*
X244807Y249640D01*
X244706Y249653D01*
X244606Y249670D01*
X244507Y249691D01*
X244409Y249715D01*
X244312Y249743D01*
X244215Y249775D01*
X244120Y249810D01*
X244027Y249849D01*
X243935Y249891D01*
X243844Y249937D01*
X243756Y249986D01*
X243669Y250038D01*
X243584Y250094D01*
X243501Y250152D01*
X243421Y250214D01*
X243343Y250279D01*
X243267Y250346D01*
X243194Y250416D01*
X243124Y250489D01*
X243057Y250565D01*
X242992Y250643D01*
X242930Y250723D01*
X242872Y250806D01*
X242816Y250891D01*
X242764Y250978D01*
X242715Y251066D01*
X242669Y251157D01*
X242627Y251249D01*
X242588Y251342D01*
X242553Y251437D01*
X242521Y251534D01*
X242493Y251631D01*
X242469Y251729D01*
X242448Y251828D01*
X242431Y251928D01*
X242418Y252029D01*
X242409Y252130D01*
X242403Y252231D01*
X242401Y252332D01*
X242401Y255945D01*
X246013Y261589D02*
X249626Y261589D01*
X246013Y261590D02*
X245894Y261592D01*
X245774Y261598D01*
X245655Y261608D01*
X245537Y261622D01*
X245418Y261639D01*
X245301Y261661D01*
X245184Y261686D01*
X245069Y261716D01*
X244954Y261749D01*
X244840Y261786D01*
X244728Y261826D01*
X244617Y261871D01*
X244508Y261919D01*
X244400Y261970D01*
X244294Y262025D01*
X244190Y262084D01*
X244088Y262146D01*
X243988Y262211D01*
X243890Y262280D01*
X243794Y262352D01*
X243701Y262427D01*
X243611Y262504D01*
X243523Y262585D01*
X243438Y262669D01*
X243356Y262756D01*
X243276Y262845D01*
X243200Y262937D01*
X243126Y263031D01*
X243056Y263128D01*
X242989Y263226D01*
X242925Y263327D01*
X242865Y263431D01*
X242808Y263536D01*
X242755Y263643D01*
X242705Y263751D01*
X242659Y263861D01*
X242617Y263973D01*
X242578Y264086D01*
X242543Y264200D01*
X242512Y264315D01*
X242484Y264432D01*
X242461Y264549D01*
X242441Y264666D01*
X242425Y264785D01*
X242413Y264904D01*
X242405Y265023D01*
X242401Y265142D01*
X242401Y265262D01*
X242405Y265381D01*
X242413Y265500D01*
X242425Y265619D01*
X242441Y265738D01*
X242461Y265855D01*
X242484Y265972D01*
X242512Y266089D01*
X242543Y266204D01*
X242578Y266318D01*
X242617Y266431D01*
X242659Y266543D01*
X242705Y266653D01*
X242755Y266761D01*
X242808Y266868D01*
X242865Y266973D01*
X242925Y267077D01*
X242989Y267178D01*
X243056Y267276D01*
X243126Y267373D01*
X243200Y267467D01*
X243276Y267559D01*
X243356Y267648D01*
X243438Y267735D01*
X243523Y267819D01*
X243611Y267900D01*
X243701Y267977D01*
X243794Y268052D01*
X243890Y268124D01*
X243988Y268193D01*
X244088Y268258D01*
X244190Y268320D01*
X244294Y268379D01*
X244400Y268434D01*
X244508Y268485D01*
X244617Y268533D01*
X244728Y268578D01*
X244840Y268618D01*
X244954Y268655D01*
X245069Y268688D01*
X245184Y268718D01*
X245301Y268743D01*
X245418Y268765D01*
X245537Y268782D01*
X245655Y268796D01*
X245774Y268806D01*
X245894Y268812D01*
X246013Y268814D01*
X249626Y268814D01*
X249745Y268812D01*
X249865Y268806D01*
X249984Y268796D01*
X250102Y268782D01*
X250221Y268765D01*
X250338Y268743D01*
X250455Y268718D01*
X250570Y268688D01*
X250685Y268655D01*
X250799Y268618D01*
X250911Y268578D01*
X251022Y268533D01*
X251131Y268485D01*
X251239Y268434D01*
X251345Y268379D01*
X251449Y268320D01*
X251551Y268258D01*
X251651Y268193D01*
X251749Y268124D01*
X251845Y268052D01*
X251938Y267977D01*
X252028Y267900D01*
X252116Y267819D01*
X252201Y267735D01*
X252283Y267648D01*
X252363Y267559D01*
X252439Y267467D01*
X252513Y267373D01*
X252583Y267276D01*
X252650Y267178D01*
X252714Y267077D01*
X252774Y266973D01*
X252831Y266868D01*
X252884Y266761D01*
X252934Y266653D01*
X252980Y266543D01*
X253022Y266431D01*
X253061Y266318D01*
X253096Y266204D01*
X253127Y266089D01*
X253155Y265972D01*
X253178Y265855D01*
X253198Y265738D01*
X253214Y265619D01*
X253226Y265500D01*
X253234Y265381D01*
X253238Y265262D01*
X253238Y265142D01*
X253234Y265023D01*
X253226Y264904D01*
X253214Y264785D01*
X253198Y264666D01*
X253178Y264549D01*
X253155Y264432D01*
X253127Y264315D01*
X253096Y264200D01*
X253061Y264086D01*
X253022Y263973D01*
X252980Y263861D01*
X252934Y263751D01*
X252884Y263643D01*
X252831Y263536D01*
X252774Y263431D01*
X252714Y263327D01*
X252650Y263226D01*
X252583Y263128D01*
X252513Y263031D01*
X252439Y262937D01*
X252363Y262845D01*
X252283Y262756D01*
X252201Y262669D01*
X252116Y262585D01*
X252028Y262504D01*
X251938Y262427D01*
X251845Y262352D01*
X251749Y262280D01*
X251651Y262211D01*
X251551Y262146D01*
X251449Y262084D01*
X251345Y262025D01*
X251239Y261970D01*
X251131Y261919D01*
X251022Y261871D01*
X250911Y261826D01*
X250799Y261786D01*
X250685Y261749D01*
X250570Y261716D01*
X250455Y261686D01*
X250338Y261661D01*
X250221Y261639D01*
X250102Y261622D01*
X249984Y261608D01*
X249865Y261598D01*
X249745Y261592D01*
X249626Y261590D01*
X253238Y275936D02*
X242401Y275936D01*
X242401Y284064D01*
X242403Y284165D01*
X242409Y284266D01*
X242418Y284367D01*
X242431Y284468D01*
X242448Y284568D01*
X242469Y284667D01*
X242493Y284765D01*
X242521Y284862D01*
X242553Y284959D01*
X242588Y285054D01*
X242627Y285147D01*
X242669Y285239D01*
X242715Y285330D01*
X242764Y285419D01*
X242816Y285505D01*
X242872Y285590D01*
X242930Y285673D01*
X242992Y285753D01*
X243057Y285831D01*
X243124Y285907D01*
X243194Y285980D01*
X243267Y286050D01*
X243343Y286117D01*
X243421Y286182D01*
X243501Y286244D01*
X243584Y286302D01*
X243669Y286358D01*
X243756Y286410D01*
X243844Y286459D01*
X243935Y286505D01*
X244027Y286547D01*
X244120Y286586D01*
X244215Y286621D01*
X244312Y286653D01*
X244409Y286681D01*
X244507Y286705D01*
X244606Y286726D01*
X244706Y286743D01*
X244807Y286756D01*
X244908Y286765D01*
X245009Y286771D01*
X245110Y286773D01*
X253238Y286773D01*
X253238Y281354D02*
X242401Y281354D01*
D11*
X-12700Y12700D02*
X-12700Y-44900D01*
X377700Y-44900D02*
X377700Y12700D01*
X377050Y-25400D02*
X-12050Y-25400D01*
X13300Y-22208D01*
X13300Y-28592D01*
X-12050Y-25400D01*
X13300Y-24100D01*
X13300Y-26700D02*
X-12050Y-25400D01*
X13300Y-22800D01*
X13300Y-28000D02*
X-12050Y-25400D01*
X351700Y-22208D02*
X377050Y-25400D01*
X351700Y-22208D02*
X351700Y-28592D01*
X377050Y-25400D01*
X351700Y-24100D01*
X351700Y-26700D02*
X377050Y-25400D01*
X351700Y-22800D01*
X351700Y-28000D02*
X377050Y-25400D01*
D10*
X155868Y-18893D02*
X151352Y-18893D01*
X155868Y-18893D02*
X156001Y-18891D01*
X156133Y-18885D01*
X156265Y-18875D01*
X156397Y-18862D01*
X156529Y-18844D01*
X156659Y-18823D01*
X156790Y-18798D01*
X156919Y-18769D01*
X157047Y-18736D01*
X157175Y-18700D01*
X157301Y-18660D01*
X157426Y-18616D01*
X157550Y-18568D01*
X157672Y-18517D01*
X157793Y-18462D01*
X157912Y-18404D01*
X158030Y-18342D01*
X158145Y-18277D01*
X158259Y-18208D01*
X158370Y-18137D01*
X158479Y-18061D01*
X158586Y-17983D01*
X158691Y-17902D01*
X158793Y-17817D01*
X158893Y-17730D01*
X158990Y-17640D01*
X159085Y-17547D01*
X159176Y-17451D01*
X159265Y-17353D01*
X159351Y-17252D01*
X159434Y-17148D01*
X159514Y-17042D01*
X159590Y-16934D01*
X159664Y-16824D01*
X159734Y-16711D01*
X159801Y-16597D01*
X159864Y-16480D01*
X159924Y-16362D01*
X159981Y-16242D01*
X160034Y-16120D01*
X160083Y-15997D01*
X160129Y-15873D01*
X160171Y-15747D01*
X160209Y-15620D01*
X160244Y-15492D01*
X160275Y-15363D01*
X160302Y-15234D01*
X160325Y-15103D01*
X160345Y-14972D01*
X160360Y-14840D01*
X160372Y-14708D01*
X160380Y-14576D01*
X160384Y-14443D01*
X160384Y-14311D01*
X160380Y-14178D01*
X160372Y-14046D01*
X160360Y-13914D01*
X160345Y-13782D01*
X160325Y-13651D01*
X160302Y-13520D01*
X160275Y-13391D01*
X160244Y-13262D01*
X160209Y-13134D01*
X160171Y-13007D01*
X160129Y-12881D01*
X160083Y-12757D01*
X160034Y-12634D01*
X159981Y-12512D01*
X159924Y-12392D01*
X159864Y-12274D01*
X159801Y-12157D01*
X159734Y-12043D01*
X159664Y-11930D01*
X159590Y-11820D01*
X159514Y-11712D01*
X159434Y-11606D01*
X159351Y-11502D01*
X159265Y-11401D01*
X159176Y-11303D01*
X159085Y-11207D01*
X158990Y-11114D01*
X158893Y-11024D01*
X158793Y-10937D01*
X158691Y-10852D01*
X158586Y-10771D01*
X158479Y-10693D01*
X158370Y-10617D01*
X158259Y-10546D01*
X158145Y-10477D01*
X158030Y-10412D01*
X157912Y-10350D01*
X157793Y-10292D01*
X157672Y-10237D01*
X157550Y-10186D01*
X157426Y-10138D01*
X157301Y-10094D01*
X157175Y-10054D01*
X157047Y-10018D01*
X156919Y-9985D01*
X156790Y-9956D01*
X156659Y-9931D01*
X156529Y-9910D01*
X156397Y-9892D01*
X156265Y-9879D01*
X156133Y-9869D01*
X156001Y-9863D01*
X155868Y-9861D01*
X156771Y-2637D02*
X151352Y-2637D01*
X156771Y-2637D02*
X156890Y-2639D01*
X157010Y-2645D01*
X157129Y-2655D01*
X157247Y-2669D01*
X157366Y-2686D01*
X157483Y-2708D01*
X157600Y-2733D01*
X157715Y-2763D01*
X157830Y-2796D01*
X157944Y-2833D01*
X158056Y-2873D01*
X158167Y-2918D01*
X158276Y-2966D01*
X158384Y-3017D01*
X158490Y-3072D01*
X158594Y-3131D01*
X158696Y-3193D01*
X158796Y-3258D01*
X158894Y-3327D01*
X158990Y-3399D01*
X159083Y-3474D01*
X159173Y-3551D01*
X159261Y-3632D01*
X159346Y-3716D01*
X159428Y-3803D01*
X159508Y-3892D01*
X159584Y-3984D01*
X159658Y-4078D01*
X159728Y-4175D01*
X159795Y-4273D01*
X159859Y-4374D01*
X159919Y-4478D01*
X159976Y-4583D01*
X160029Y-4690D01*
X160079Y-4798D01*
X160125Y-4908D01*
X160167Y-5020D01*
X160206Y-5133D01*
X160241Y-5247D01*
X160272Y-5362D01*
X160300Y-5479D01*
X160323Y-5596D01*
X160343Y-5713D01*
X160359Y-5832D01*
X160371Y-5951D01*
X160379Y-6070D01*
X160383Y-6189D01*
X160383Y-6309D01*
X160379Y-6428D01*
X160371Y-6547D01*
X160359Y-6666D01*
X160343Y-6785D01*
X160323Y-6902D01*
X160300Y-7019D01*
X160272Y-7136D01*
X160241Y-7251D01*
X160206Y-7365D01*
X160167Y-7478D01*
X160125Y-7590D01*
X160079Y-7700D01*
X160029Y-7808D01*
X159976Y-7915D01*
X159919Y-8020D01*
X159859Y-8124D01*
X159795Y-8225D01*
X159728Y-8323D01*
X159658Y-8420D01*
X159584Y-8514D01*
X159508Y-8606D01*
X159428Y-8695D01*
X159346Y-8782D01*
X159261Y-8866D01*
X159173Y-8947D01*
X159083Y-9024D01*
X158990Y-9099D01*
X158894Y-9171D01*
X158796Y-9240D01*
X158696Y-9305D01*
X158594Y-9367D01*
X158490Y-9426D01*
X158384Y-9481D01*
X158276Y-9532D01*
X158167Y-9580D01*
X158056Y-9625D01*
X157944Y-9665D01*
X157830Y-9702D01*
X157715Y-9735D01*
X157600Y-9765D01*
X157483Y-9790D01*
X157366Y-9812D01*
X157247Y-9829D01*
X157129Y-9843D01*
X157010Y-9853D01*
X156890Y-9859D01*
X156771Y-9861D01*
X156771Y-9862D02*
X153158Y-9862D01*
X170596Y-11668D02*
X176014Y-11668D01*
X170596Y-11668D02*
X170478Y-11666D01*
X170360Y-11660D01*
X170242Y-11651D01*
X170125Y-11637D01*
X170008Y-11620D01*
X169891Y-11599D01*
X169776Y-11574D01*
X169661Y-11545D01*
X169547Y-11512D01*
X169435Y-11476D01*
X169324Y-11436D01*
X169214Y-11393D01*
X169105Y-11346D01*
X168998Y-11296D01*
X168893Y-11241D01*
X168790Y-11184D01*
X168689Y-11123D01*
X168589Y-11059D01*
X168492Y-10992D01*
X168397Y-10922D01*
X168305Y-10848D01*
X168214Y-10772D01*
X168127Y-10692D01*
X168042Y-10610D01*
X167960Y-10525D01*
X167880Y-10438D01*
X167804Y-10347D01*
X167730Y-10255D01*
X167660Y-10160D01*
X167593Y-10063D01*
X167529Y-9963D01*
X167468Y-9862D01*
X167411Y-9759D01*
X167356Y-9654D01*
X167306Y-9547D01*
X167259Y-9438D01*
X167216Y-9328D01*
X167176Y-9217D01*
X167140Y-9105D01*
X167107Y-8991D01*
X167078Y-8876D01*
X167053Y-8761D01*
X167032Y-8644D01*
X167015Y-8527D01*
X167001Y-8410D01*
X166992Y-8292D01*
X166986Y-8174D01*
X166984Y-8056D01*
X166983Y-8056D02*
X166983Y-7153D01*
X166985Y-7020D01*
X166991Y-6888D01*
X167001Y-6756D01*
X167014Y-6624D01*
X167032Y-6492D01*
X167053Y-6362D01*
X167078Y-6231D01*
X167107Y-6102D01*
X167140Y-5974D01*
X167176Y-5846D01*
X167216Y-5720D01*
X167260Y-5595D01*
X167308Y-5471D01*
X167359Y-5349D01*
X167414Y-5228D01*
X167472Y-5109D01*
X167534Y-4991D01*
X167599Y-4876D01*
X167668Y-4762D01*
X167739Y-4651D01*
X167815Y-4542D01*
X167893Y-4435D01*
X167974Y-4330D01*
X168059Y-4228D01*
X168146Y-4128D01*
X168236Y-4031D01*
X168329Y-3936D01*
X168425Y-3845D01*
X168523Y-3756D01*
X168624Y-3670D01*
X168728Y-3587D01*
X168834Y-3507D01*
X168942Y-3431D01*
X169052Y-3357D01*
X169165Y-3287D01*
X169279Y-3220D01*
X169396Y-3157D01*
X169514Y-3097D01*
X169634Y-3040D01*
X169756Y-2987D01*
X169879Y-2938D01*
X170003Y-2892D01*
X170129Y-2850D01*
X170256Y-2812D01*
X170384Y-2777D01*
X170513Y-2746D01*
X170642Y-2719D01*
X170773Y-2696D01*
X170904Y-2676D01*
X171036Y-2661D01*
X171168Y-2649D01*
X171300Y-2641D01*
X171433Y-2637D01*
X171565Y-2637D01*
X171698Y-2641D01*
X171830Y-2649D01*
X171962Y-2661D01*
X172094Y-2676D01*
X172225Y-2696D01*
X172356Y-2719D01*
X172485Y-2746D01*
X172614Y-2777D01*
X172742Y-2812D01*
X172869Y-2850D01*
X172995Y-2892D01*
X173119Y-2938D01*
X173242Y-2987D01*
X173364Y-3040D01*
X173484Y-3097D01*
X173602Y-3157D01*
X173719Y-3220D01*
X173833Y-3287D01*
X173946Y-3357D01*
X174056Y-3431D01*
X174164Y-3507D01*
X174270Y-3587D01*
X174374Y-3670D01*
X174475Y-3756D01*
X174573Y-3845D01*
X174669Y-3936D01*
X174762Y-4031D01*
X174852Y-4128D01*
X174939Y-4228D01*
X175024Y-4330D01*
X175105Y-4435D01*
X175183Y-4542D01*
X175259Y-4651D01*
X175330Y-4762D01*
X175399Y-4876D01*
X175464Y-4991D01*
X175526Y-5109D01*
X175584Y-5228D01*
X175639Y-5349D01*
X175690Y-5471D01*
X175738Y-5595D01*
X175782Y-5720D01*
X175822Y-5846D01*
X175858Y-5974D01*
X175891Y-6102D01*
X175920Y-6231D01*
X175945Y-6362D01*
X175966Y-6492D01*
X175984Y-6624D01*
X175997Y-6756D01*
X176007Y-6888D01*
X176013Y-7020D01*
X176015Y-7153D01*
X176014Y-7153D02*
X176014Y-11668D01*
X176012Y-11843D01*
X176006Y-12017D01*
X175995Y-12191D01*
X175980Y-12365D01*
X175961Y-12539D01*
X175938Y-12712D01*
X175911Y-12884D01*
X175879Y-13056D01*
X175844Y-13227D01*
X175804Y-13397D01*
X175760Y-13566D01*
X175712Y-13734D01*
X175660Y-13901D01*
X175604Y-14066D01*
X175544Y-14230D01*
X175481Y-14393D01*
X175413Y-14553D01*
X175341Y-14713D01*
X175266Y-14870D01*
X175186Y-15026D01*
X175103Y-15179D01*
X175017Y-15331D01*
X174926Y-15480D01*
X174832Y-15627D01*
X174735Y-15772D01*
X174634Y-15915D01*
X174530Y-16055D01*
X174422Y-16192D01*
X174311Y-16327D01*
X174197Y-16459D01*
X174080Y-16588D01*
X173959Y-16715D01*
X173836Y-16838D01*
X173709Y-16959D01*
X173580Y-17076D01*
X173448Y-17190D01*
X173313Y-17301D01*
X173176Y-17409D01*
X173036Y-17513D01*
X172893Y-17614D01*
X172748Y-17711D01*
X172601Y-17805D01*
X172452Y-17896D01*
X172300Y-17982D01*
X172147Y-18065D01*
X171991Y-18145D01*
X171834Y-18220D01*
X171674Y-18292D01*
X171514Y-18360D01*
X171351Y-18423D01*
X171187Y-18483D01*
X171022Y-18539D01*
X170855Y-18591D01*
X170687Y-18639D01*
X170518Y-18683D01*
X170348Y-18723D01*
X170177Y-18758D01*
X170005Y-18790D01*
X169833Y-18817D01*
X169660Y-18840D01*
X169486Y-18859D01*
X169312Y-18874D01*
X169138Y-18885D01*
X168964Y-18891D01*
X168789Y-18893D01*
X181989Y-18893D02*
X181989Y-17990D01*
X182892Y-17990D01*
X182892Y-18893D01*
X181989Y-18893D01*
X188867Y-10765D02*
X188871Y-10445D01*
X188882Y-10126D01*
X188901Y-9806D01*
X188928Y-9488D01*
X188962Y-9170D01*
X189004Y-8853D01*
X189054Y-8537D01*
X189111Y-8222D01*
X189175Y-7909D01*
X189247Y-7597D01*
X189326Y-7287D01*
X189413Y-6980D01*
X189507Y-6674D01*
X189608Y-6371D01*
X189717Y-6070D01*
X189832Y-5772D01*
X189955Y-5476D01*
X190085Y-5184D01*
X190222Y-4895D01*
X190222Y-4894D02*
X190261Y-4786D01*
X190304Y-4679D01*
X190350Y-4574D01*
X190400Y-4471D01*
X190454Y-4369D01*
X190511Y-4269D01*
X190572Y-4171D01*
X190636Y-4075D01*
X190703Y-3982D01*
X190773Y-3891D01*
X190847Y-3802D01*
X190923Y-3716D01*
X191003Y-3633D01*
X191085Y-3552D01*
X191170Y-3474D01*
X191257Y-3400D01*
X191348Y-3328D01*
X191440Y-3259D01*
X191535Y-3194D01*
X191632Y-3132D01*
X191731Y-3073D01*
X191832Y-3018D01*
X191935Y-2967D01*
X192040Y-2919D01*
X192146Y-2874D01*
X192253Y-2833D01*
X192362Y-2796D01*
X192473Y-2763D01*
X192584Y-2734D01*
X192696Y-2708D01*
X192809Y-2686D01*
X192923Y-2669D01*
X193037Y-2655D01*
X193152Y-2645D01*
X193267Y-2639D01*
X193382Y-2637D01*
X193497Y-2639D01*
X193612Y-2645D01*
X193727Y-2655D01*
X193841Y-2669D01*
X193955Y-2686D01*
X194068Y-2708D01*
X194180Y-2734D01*
X194292Y-2763D01*
X194402Y-2796D01*
X194511Y-2833D01*
X194619Y-2874D01*
X194725Y-2919D01*
X194830Y-2967D01*
X194932Y-3018D01*
X195034Y-3074D01*
X195133Y-3132D01*
X195230Y-3194D01*
X195325Y-3260D01*
X195417Y-3328D01*
X195507Y-3400D01*
X195595Y-3474D01*
X195680Y-3552D01*
X195762Y-3633D01*
X195841Y-3716D01*
X195918Y-3802D01*
X195991Y-3891D01*
X196062Y-3982D01*
X196129Y-4076D01*
X196193Y-4171D01*
X196254Y-4269D01*
X196311Y-4369D01*
X196364Y-4471D01*
X196415Y-4575D01*
X196461Y-4680D01*
X196504Y-4787D01*
X196543Y-4895D01*
X196680Y-5184D01*
X196810Y-5476D01*
X196933Y-5772D01*
X197048Y-6070D01*
X197157Y-6371D01*
X197258Y-6674D01*
X197352Y-6980D01*
X197439Y-7287D01*
X197518Y-7597D01*
X197590Y-7909D01*
X197654Y-8222D01*
X197711Y-8537D01*
X197761Y-8853D01*
X197803Y-9170D01*
X197837Y-9488D01*
X197864Y-9806D01*
X197883Y-10126D01*
X197894Y-10445D01*
X197898Y-10765D01*
X188867Y-10765D02*
X188871Y-11085D01*
X188882Y-11404D01*
X188901Y-11724D01*
X188928Y-12042D01*
X188962Y-12360D01*
X189004Y-12677D01*
X189054Y-12993D01*
X189111Y-13308D01*
X189175Y-13621D01*
X189247Y-13933D01*
X189326Y-14243D01*
X189413Y-14550D01*
X189507Y-14856D01*
X189608Y-15159D01*
X189717Y-15460D01*
X189832Y-15758D01*
X189955Y-16054D01*
X190085Y-16346D01*
X190222Y-16635D01*
X190221Y-16636D02*
X190260Y-16744D01*
X190303Y-16851D01*
X190349Y-16956D01*
X190400Y-17060D01*
X190453Y-17162D01*
X190510Y-17262D01*
X190571Y-17360D01*
X190635Y-17455D01*
X190702Y-17549D01*
X190773Y-17640D01*
X190846Y-17729D01*
X190923Y-17815D01*
X191002Y-17898D01*
X191084Y-17979D01*
X191169Y-18057D01*
X191257Y-18131D01*
X191347Y-18203D01*
X191440Y-18272D01*
X191534Y-18337D01*
X191631Y-18399D01*
X191731Y-18457D01*
X191832Y-18513D01*
X191934Y-18564D01*
X192039Y-18612D01*
X192145Y-18657D01*
X192253Y-18698D01*
X192362Y-18735D01*
X192472Y-18768D01*
X192584Y-18797D01*
X192696Y-18823D01*
X192809Y-18845D01*
X192923Y-18862D01*
X193037Y-18876D01*
X193152Y-18886D01*
X193267Y-18892D01*
X193382Y-18894D01*
X196543Y-16635D02*
X196680Y-16346D01*
X196810Y-16054D01*
X196933Y-15758D01*
X197048Y-15460D01*
X197157Y-15159D01*
X197258Y-14856D01*
X197352Y-14550D01*
X197439Y-14243D01*
X197518Y-13933D01*
X197590Y-13621D01*
X197654Y-13308D01*
X197711Y-12993D01*
X197761Y-12677D01*
X197803Y-12360D01*
X197837Y-12042D01*
X197864Y-11724D01*
X197883Y-11404D01*
X197894Y-11085D01*
X197898Y-10765D01*
X196543Y-16635D02*
X196504Y-16743D01*
X196461Y-16850D01*
X196415Y-16955D01*
X196364Y-17059D01*
X196311Y-17161D01*
X196254Y-17261D01*
X196193Y-17359D01*
X196129Y-17454D01*
X196062Y-17548D01*
X195991Y-17639D01*
X195918Y-17728D01*
X195841Y-17814D01*
X195762Y-17897D01*
X195680Y-17978D01*
X195595Y-18056D01*
X195507Y-18130D01*
X195417Y-18202D01*
X195324Y-18271D01*
X195230Y-18336D01*
X195133Y-18398D01*
X195033Y-18456D01*
X194932Y-18512D01*
X194829Y-18563D01*
X194725Y-18611D01*
X194619Y-18656D01*
X194511Y-18697D01*
X194402Y-18734D01*
X194292Y-18767D01*
X194180Y-18796D01*
X194068Y-18822D01*
X193955Y-18844D01*
X193841Y-18861D01*
X193727Y-18875D01*
X193612Y-18885D01*
X193497Y-18891D01*
X193382Y-18893D01*
X189770Y-15281D02*
X196995Y-6249D01*
X208111Y-2637D02*
X204498Y-15281D01*
X213529Y-15281D01*
X210820Y-11668D02*
X210820Y-18893D01*
D11*
X377700Y12700D02*
X514800Y12700D01*
X514800Y635000D02*
X381000Y635000D01*
X495300Y634350D02*
X495300Y13350D01*
X492108Y38700D01*
X498492Y38700D01*
X495300Y13350D01*
X494000Y38700D01*
X496600Y38700D02*
X495300Y13350D01*
X492700Y38700D01*
X497900Y38700D02*
X495300Y13350D01*
X492108Y609000D02*
X495300Y634350D01*
X492108Y609000D02*
X498492Y609000D01*
X495300Y634350D01*
X494000Y609000D01*
X496600Y609000D02*
X495300Y634350D01*
X492700Y609000D01*
X497900Y609000D02*
X495300Y634350D01*
D10*
X479762Y298121D02*
X479762Y292702D01*
X479762Y298121D02*
X479764Y298239D01*
X479770Y298357D01*
X479779Y298475D01*
X479793Y298592D01*
X479810Y298709D01*
X479831Y298826D01*
X479856Y298941D01*
X479885Y299056D01*
X479918Y299170D01*
X479954Y299282D01*
X479994Y299393D01*
X480037Y299503D01*
X480084Y299612D01*
X480134Y299719D01*
X480189Y299824D01*
X480246Y299927D01*
X480307Y300028D01*
X480371Y300128D01*
X480438Y300225D01*
X480508Y300320D01*
X480582Y300412D01*
X480658Y300503D01*
X480738Y300590D01*
X480820Y300675D01*
X480905Y300757D01*
X480992Y300837D01*
X481083Y300913D01*
X481175Y300987D01*
X481270Y301057D01*
X481367Y301124D01*
X481467Y301188D01*
X481568Y301249D01*
X481671Y301306D01*
X481776Y301361D01*
X481883Y301411D01*
X481992Y301458D01*
X482102Y301501D01*
X482213Y301541D01*
X482325Y301577D01*
X482439Y301610D01*
X482554Y301639D01*
X482669Y301664D01*
X482786Y301685D01*
X482903Y301702D01*
X483020Y301716D01*
X483138Y301725D01*
X483256Y301731D01*
X483374Y301733D01*
X484277Y301733D01*
X484277Y301734D02*
X484410Y301732D01*
X484542Y301726D01*
X484674Y301716D01*
X484806Y301703D01*
X484938Y301685D01*
X485068Y301664D01*
X485199Y301639D01*
X485328Y301610D01*
X485456Y301577D01*
X485584Y301541D01*
X485710Y301501D01*
X485835Y301457D01*
X485959Y301409D01*
X486081Y301358D01*
X486202Y301303D01*
X486321Y301245D01*
X486439Y301183D01*
X486554Y301118D01*
X486668Y301049D01*
X486779Y300978D01*
X486888Y300902D01*
X486995Y300824D01*
X487100Y300743D01*
X487202Y300658D01*
X487302Y300571D01*
X487399Y300481D01*
X487494Y300388D01*
X487585Y300292D01*
X487674Y300194D01*
X487760Y300093D01*
X487843Y299989D01*
X487923Y299883D01*
X487999Y299775D01*
X488073Y299665D01*
X488143Y299552D01*
X488210Y299438D01*
X488273Y299321D01*
X488333Y299203D01*
X488390Y299083D01*
X488443Y298961D01*
X488492Y298838D01*
X488538Y298714D01*
X488580Y298588D01*
X488618Y298461D01*
X488653Y298333D01*
X488684Y298204D01*
X488711Y298075D01*
X488734Y297944D01*
X488754Y297813D01*
X488769Y297681D01*
X488781Y297549D01*
X488789Y297417D01*
X488793Y297284D01*
X488793Y297152D01*
X488789Y297019D01*
X488781Y296887D01*
X488769Y296755D01*
X488754Y296623D01*
X488734Y296492D01*
X488711Y296361D01*
X488684Y296232D01*
X488653Y296103D01*
X488618Y295975D01*
X488580Y295848D01*
X488538Y295722D01*
X488492Y295598D01*
X488443Y295475D01*
X488390Y295353D01*
X488333Y295233D01*
X488273Y295115D01*
X488210Y294998D01*
X488143Y294884D01*
X488073Y294771D01*
X487999Y294661D01*
X487923Y294553D01*
X487843Y294447D01*
X487760Y294343D01*
X487674Y294242D01*
X487585Y294144D01*
X487494Y294048D01*
X487399Y293955D01*
X487302Y293865D01*
X487202Y293778D01*
X487100Y293693D01*
X486995Y293612D01*
X486888Y293534D01*
X486779Y293458D01*
X486668Y293387D01*
X486554Y293318D01*
X486439Y293253D01*
X486321Y293191D01*
X486202Y293133D01*
X486081Y293078D01*
X485959Y293027D01*
X485835Y292979D01*
X485710Y292935D01*
X485584Y292895D01*
X485456Y292859D01*
X485328Y292826D01*
X485199Y292797D01*
X485068Y292772D01*
X484938Y292751D01*
X484806Y292733D01*
X484674Y292720D01*
X484542Y292710D01*
X484410Y292704D01*
X484277Y292702D01*
X479762Y292702D01*
X479585Y292704D01*
X479407Y292711D01*
X479230Y292722D01*
X479054Y292737D01*
X478878Y292756D01*
X478702Y292780D01*
X478527Y292808D01*
X478352Y292841D01*
X478179Y292878D01*
X478006Y292919D01*
X477835Y292964D01*
X477665Y293013D01*
X477496Y293067D01*
X477328Y293124D01*
X477162Y293186D01*
X476997Y293252D01*
X476834Y293322D01*
X476673Y293396D01*
X476514Y293473D01*
X476356Y293555D01*
X476201Y293641D01*
X476048Y293730D01*
X475897Y293823D01*
X475748Y293920D01*
X475602Y294020D01*
X475458Y294124D01*
X475317Y294231D01*
X475179Y294342D01*
X475043Y294456D01*
X474910Y294574D01*
X474780Y294694D01*
X474653Y294818D01*
X474529Y294945D01*
X474409Y295075D01*
X474291Y295208D01*
X474177Y295343D01*
X474066Y295482D01*
X473959Y295623D01*
X473855Y295767D01*
X473755Y295913D01*
X473658Y296062D01*
X473565Y296213D01*
X473476Y296366D01*
X473390Y296521D01*
X473308Y296679D01*
X473231Y296838D01*
X473157Y296999D01*
X473087Y297162D01*
X473021Y297327D01*
X472959Y297493D01*
X472902Y297661D01*
X472848Y297830D01*
X472799Y298000D01*
X472754Y298171D01*
X472713Y298344D01*
X472676Y298517D01*
X472643Y298692D01*
X472615Y298867D01*
X472591Y299043D01*
X472572Y299219D01*
X472557Y299395D01*
X472546Y299572D01*
X472539Y299750D01*
X472537Y299927D01*
X472537Y313300D02*
X472539Y313425D01*
X472545Y313550D01*
X472554Y313675D01*
X472568Y313799D01*
X472585Y313923D01*
X472606Y314047D01*
X472631Y314169D01*
X472660Y314291D01*
X472692Y314412D01*
X472728Y314532D01*
X472768Y314651D01*
X472811Y314768D01*
X472858Y314884D01*
X472909Y314999D01*
X472963Y315111D01*
X473021Y315223D01*
X473081Y315332D01*
X473146Y315439D01*
X473213Y315545D01*
X473284Y315648D01*
X473358Y315749D01*
X473435Y315848D01*
X473515Y315944D01*
X473598Y316038D01*
X473683Y316129D01*
X473772Y316218D01*
X473863Y316303D01*
X473957Y316386D01*
X474053Y316466D01*
X474152Y316543D01*
X474253Y316617D01*
X474356Y316688D01*
X474462Y316755D01*
X474569Y316820D01*
X474678Y316880D01*
X474790Y316938D01*
X474902Y316992D01*
X475017Y317043D01*
X475133Y317090D01*
X475250Y317133D01*
X475369Y317173D01*
X475489Y317209D01*
X475610Y317241D01*
X475732Y317270D01*
X475854Y317295D01*
X475978Y317316D01*
X476102Y317333D01*
X476226Y317347D01*
X476351Y317356D01*
X476476Y317362D01*
X476601Y317364D01*
X472537Y313300D02*
X472539Y313157D01*
X472545Y313015D01*
X472555Y312872D01*
X472568Y312730D01*
X472586Y312589D01*
X472607Y312447D01*
X472632Y312307D01*
X472661Y312167D01*
X472694Y312028D01*
X472731Y311890D01*
X472771Y311753D01*
X472815Y311618D01*
X472863Y311483D01*
X472915Y311350D01*
X472970Y311218D01*
X473029Y311088D01*
X473091Y310960D01*
X473157Y310833D01*
X473226Y310708D01*
X473298Y310585D01*
X473374Y310464D01*
X473453Y310346D01*
X473536Y310229D01*
X473621Y310115D01*
X473710Y310003D01*
X473801Y309894D01*
X473896Y309787D01*
X473993Y309682D01*
X474094Y309581D01*
X474197Y309482D01*
X474302Y309386D01*
X474411Y309293D01*
X474522Y309203D01*
X474635Y309116D01*
X474750Y309032D01*
X474868Y308952D01*
X474988Y308874D01*
X475110Y308800D01*
X475234Y308730D01*
X475360Y308662D01*
X475488Y308599D01*
X475617Y308538D01*
X475748Y308481D01*
X475880Y308428D01*
X476014Y308379D01*
X476149Y308333D01*
X479762Y316009D02*
X479670Y316103D01*
X479576Y316193D01*
X479479Y316281D01*
X479379Y316366D01*
X479277Y316448D01*
X479172Y316526D01*
X479065Y316602D01*
X478956Y316674D01*
X478845Y316743D01*
X478731Y316809D01*
X478616Y316871D01*
X478499Y316930D01*
X478380Y316985D01*
X478260Y317036D01*
X478138Y317084D01*
X478015Y317129D01*
X477891Y317169D01*
X477765Y317206D01*
X477638Y317239D01*
X477511Y317268D01*
X477382Y317294D01*
X477253Y317315D01*
X477123Y317333D01*
X476993Y317346D01*
X476863Y317356D01*
X476732Y317362D01*
X476601Y317364D01*
X479762Y316010D02*
X488793Y308333D01*
X488793Y317364D01*
X488793Y323339D02*
X487890Y323339D01*
X487890Y324242D01*
X488793Y324242D01*
X488793Y323339D01*
X476601Y339248D02*
X476476Y339246D01*
X476351Y339240D01*
X476226Y339231D01*
X476102Y339217D01*
X475978Y339200D01*
X475854Y339179D01*
X475732Y339154D01*
X475610Y339125D01*
X475489Y339093D01*
X475369Y339057D01*
X475250Y339017D01*
X475133Y338974D01*
X475017Y338927D01*
X474902Y338876D01*
X474790Y338822D01*
X474678Y338764D01*
X474569Y338704D01*
X474462Y338639D01*
X474356Y338572D01*
X474253Y338501D01*
X474152Y338427D01*
X474053Y338350D01*
X473957Y338270D01*
X473863Y338187D01*
X473772Y338102D01*
X473683Y338013D01*
X473598Y337922D01*
X473515Y337828D01*
X473435Y337732D01*
X473358Y337633D01*
X473284Y337532D01*
X473213Y337429D01*
X473146Y337323D01*
X473081Y337216D01*
X473021Y337107D01*
X472963Y336995D01*
X472909Y336883D01*
X472858Y336768D01*
X472811Y336652D01*
X472768Y336535D01*
X472728Y336416D01*
X472692Y336296D01*
X472660Y336175D01*
X472631Y336053D01*
X472606Y335931D01*
X472585Y335807D01*
X472568Y335683D01*
X472554Y335559D01*
X472545Y335434D01*
X472539Y335309D01*
X472537Y335184D01*
X472539Y335041D01*
X472545Y334899D01*
X472555Y334756D01*
X472568Y334614D01*
X472586Y334473D01*
X472607Y334331D01*
X472632Y334191D01*
X472661Y334051D01*
X472694Y333912D01*
X472731Y333774D01*
X472771Y333637D01*
X472815Y333502D01*
X472863Y333367D01*
X472915Y333234D01*
X472970Y333102D01*
X473029Y332972D01*
X473091Y332844D01*
X473157Y332717D01*
X473226Y332592D01*
X473298Y332469D01*
X473374Y332348D01*
X473453Y332230D01*
X473536Y332113D01*
X473621Y331999D01*
X473710Y331887D01*
X473801Y331778D01*
X473896Y331671D01*
X473993Y331566D01*
X474094Y331465D01*
X474197Y331366D01*
X474302Y331270D01*
X474411Y331177D01*
X474522Y331087D01*
X474635Y331000D01*
X474750Y330916D01*
X474868Y330836D01*
X474988Y330758D01*
X475110Y330684D01*
X475234Y330614D01*
X475360Y330546D01*
X475488Y330483D01*
X475617Y330422D01*
X475748Y330365D01*
X475880Y330312D01*
X476014Y330263D01*
X476149Y330217D01*
X479762Y337893D02*
X479670Y337987D01*
X479576Y338077D01*
X479479Y338165D01*
X479379Y338250D01*
X479277Y338332D01*
X479172Y338410D01*
X479065Y338486D01*
X478956Y338558D01*
X478845Y338627D01*
X478731Y338693D01*
X478616Y338755D01*
X478499Y338814D01*
X478380Y338869D01*
X478260Y338920D01*
X478138Y338968D01*
X478015Y339013D01*
X477891Y339053D01*
X477765Y339090D01*
X477638Y339123D01*
X477511Y339152D01*
X477382Y339178D01*
X477253Y339199D01*
X477123Y339217D01*
X476993Y339230D01*
X476863Y339240D01*
X476732Y339246D01*
X476601Y339248D01*
X479762Y337893D02*
X488793Y330217D01*
X488793Y339248D01*
X488793Y345848D02*
X488793Y350364D01*
X488791Y350497D01*
X488785Y350629D01*
X488775Y350761D01*
X488762Y350893D01*
X488744Y351025D01*
X488723Y351155D01*
X488698Y351286D01*
X488669Y351415D01*
X488636Y351543D01*
X488600Y351671D01*
X488560Y351797D01*
X488516Y351922D01*
X488468Y352046D01*
X488417Y352168D01*
X488362Y352289D01*
X488304Y352408D01*
X488242Y352526D01*
X488177Y352641D01*
X488108Y352755D01*
X488037Y352866D01*
X487961Y352975D01*
X487883Y353082D01*
X487802Y353187D01*
X487717Y353289D01*
X487630Y353389D01*
X487540Y353486D01*
X487447Y353581D01*
X487351Y353672D01*
X487253Y353761D01*
X487152Y353847D01*
X487048Y353930D01*
X486942Y354010D01*
X486834Y354086D01*
X486724Y354160D01*
X486611Y354230D01*
X486497Y354297D01*
X486380Y354360D01*
X486262Y354420D01*
X486142Y354477D01*
X486020Y354530D01*
X485897Y354579D01*
X485773Y354625D01*
X485647Y354667D01*
X485520Y354705D01*
X485392Y354740D01*
X485263Y354771D01*
X485134Y354798D01*
X485003Y354821D01*
X484872Y354841D01*
X484740Y354856D01*
X484608Y354868D01*
X484476Y354876D01*
X484343Y354880D01*
X484211Y354880D01*
X484078Y354876D01*
X483946Y354868D01*
X483814Y354856D01*
X483682Y354841D01*
X483551Y354821D01*
X483420Y354798D01*
X483291Y354771D01*
X483162Y354740D01*
X483034Y354705D01*
X482907Y354667D01*
X482781Y354625D01*
X482657Y354579D01*
X482534Y354530D01*
X482412Y354477D01*
X482292Y354420D01*
X482174Y354360D01*
X482057Y354297D01*
X481943Y354230D01*
X481830Y354160D01*
X481720Y354086D01*
X481612Y354010D01*
X481506Y353930D01*
X481402Y353847D01*
X481301Y353761D01*
X481203Y353672D01*
X481107Y353581D01*
X481014Y353486D01*
X480924Y353389D01*
X480837Y353289D01*
X480752Y353187D01*
X480671Y353082D01*
X480593Y352975D01*
X480517Y352866D01*
X480446Y352755D01*
X480377Y352641D01*
X480312Y352526D01*
X480250Y352408D01*
X480192Y352289D01*
X480137Y352168D01*
X480086Y352046D01*
X480038Y351922D01*
X479994Y351797D01*
X479954Y351671D01*
X479918Y351543D01*
X479885Y351415D01*
X479856Y351286D01*
X479831Y351155D01*
X479810Y351025D01*
X479792Y350893D01*
X479779Y350761D01*
X479769Y350629D01*
X479763Y350497D01*
X479761Y350364D01*
X472537Y351267D02*
X472537Y345848D01*
X472537Y351267D02*
X472539Y351386D01*
X472545Y351506D01*
X472555Y351625D01*
X472569Y351743D01*
X472586Y351862D01*
X472608Y351979D01*
X472633Y352096D01*
X472663Y352211D01*
X472696Y352326D01*
X472733Y352440D01*
X472773Y352552D01*
X472818Y352663D01*
X472866Y352772D01*
X472917Y352880D01*
X472972Y352986D01*
X473031Y353090D01*
X473093Y353192D01*
X473158Y353292D01*
X473227Y353390D01*
X473299Y353486D01*
X473374Y353579D01*
X473451Y353669D01*
X473532Y353757D01*
X473616Y353842D01*
X473703Y353924D01*
X473792Y354004D01*
X473884Y354080D01*
X473978Y354154D01*
X474075Y354224D01*
X474173Y354291D01*
X474274Y354355D01*
X474378Y354415D01*
X474483Y354472D01*
X474590Y354525D01*
X474698Y354575D01*
X474808Y354621D01*
X474920Y354663D01*
X475033Y354702D01*
X475147Y354737D01*
X475262Y354768D01*
X475379Y354796D01*
X475496Y354819D01*
X475613Y354839D01*
X475732Y354855D01*
X475851Y354867D01*
X475970Y354875D01*
X476089Y354879D01*
X476209Y354879D01*
X476328Y354875D01*
X476447Y354867D01*
X476566Y354855D01*
X476685Y354839D01*
X476802Y354819D01*
X476919Y354796D01*
X477036Y354768D01*
X477151Y354737D01*
X477265Y354702D01*
X477378Y354663D01*
X477490Y354621D01*
X477600Y354575D01*
X477708Y354525D01*
X477815Y354472D01*
X477920Y354415D01*
X478024Y354355D01*
X478125Y354291D01*
X478223Y354224D01*
X478320Y354154D01*
X478414Y354080D01*
X478506Y354004D01*
X478595Y353924D01*
X478682Y353842D01*
X478766Y353757D01*
X478847Y353669D01*
X478924Y353579D01*
X478999Y353486D01*
X479071Y353390D01*
X479140Y353292D01*
X479205Y353192D01*
X479267Y353090D01*
X479326Y352986D01*
X479381Y352880D01*
X479432Y352772D01*
X479480Y352663D01*
X479525Y352552D01*
X479565Y352440D01*
X479602Y352326D01*
X479635Y352211D01*
X479665Y352096D01*
X479690Y351979D01*
X479712Y351862D01*
X479729Y351743D01*
X479743Y351625D01*
X479753Y351506D01*
X479759Y351386D01*
X479761Y351267D01*
X479762Y351267D02*
X479762Y347654D01*
X99568Y40668D02*
X83312Y40668D01*
X99568Y38862D02*
X99568Y42474D01*
X83312Y42474D02*
X83312Y38862D01*
X88731Y49040D02*
X99568Y49040D01*
X88731Y49040D02*
X88731Y53555D01*
X88733Y53659D01*
X88739Y53762D01*
X88749Y53866D01*
X88763Y53969D01*
X88781Y54071D01*
X88802Y54172D01*
X88828Y54273D01*
X88857Y54372D01*
X88890Y54471D01*
X88927Y54568D01*
X88968Y54663D01*
X89012Y54757D01*
X89060Y54849D01*
X89111Y54939D01*
X89166Y55028D01*
X89224Y55114D01*
X89286Y55197D01*
X89350Y55279D01*
X89418Y55357D01*
X89488Y55433D01*
X89561Y55507D01*
X89638Y55577D01*
X89716Y55645D01*
X89798Y55709D01*
X89881Y55771D01*
X89967Y55829D01*
X90056Y55884D01*
X90146Y55935D01*
X90238Y55983D01*
X90332Y56027D01*
X90427Y56068D01*
X90524Y56105D01*
X90623Y56138D01*
X90722Y56167D01*
X90823Y56193D01*
X90924Y56214D01*
X91026Y56232D01*
X91129Y56246D01*
X91233Y56256D01*
X91336Y56262D01*
X91440Y56264D01*
X91440Y56265D02*
X99568Y56265D01*
X88731Y61811D02*
X88731Y67229D01*
X83312Y63617D02*
X96859Y63617D01*
X96960Y63619D01*
X97061Y63625D01*
X97162Y63634D01*
X97263Y63647D01*
X97363Y63664D01*
X97462Y63685D01*
X97560Y63709D01*
X97657Y63737D01*
X97754Y63769D01*
X97849Y63804D01*
X97942Y63843D01*
X98034Y63885D01*
X98125Y63931D01*
X98213Y63980D01*
X98300Y64032D01*
X98385Y64088D01*
X98468Y64146D01*
X98548Y64208D01*
X98626Y64273D01*
X98702Y64340D01*
X98775Y64410D01*
X98845Y64483D01*
X98912Y64559D01*
X98977Y64637D01*
X99039Y64717D01*
X99097Y64800D01*
X99153Y64885D01*
X99205Y64971D01*
X99254Y65060D01*
X99300Y65151D01*
X99342Y65243D01*
X99381Y65336D01*
X99416Y65431D01*
X99448Y65528D01*
X99476Y65625D01*
X99500Y65723D01*
X99521Y65822D01*
X99538Y65922D01*
X99551Y66023D01*
X99560Y66124D01*
X99566Y66225D01*
X99568Y66326D01*
X99568Y67229D01*
X99568Y75717D02*
X99568Y80232D01*
X99568Y75717D02*
X99566Y75616D01*
X99560Y75515D01*
X99551Y75414D01*
X99538Y75313D01*
X99521Y75213D01*
X99500Y75114D01*
X99476Y75016D01*
X99448Y74919D01*
X99416Y74822D01*
X99381Y74727D01*
X99342Y74634D01*
X99300Y74542D01*
X99254Y74451D01*
X99205Y74362D01*
X99153Y74276D01*
X99097Y74191D01*
X99039Y74108D01*
X98977Y74028D01*
X98912Y73950D01*
X98845Y73874D01*
X98775Y73801D01*
X98702Y73731D01*
X98626Y73664D01*
X98548Y73599D01*
X98468Y73537D01*
X98385Y73479D01*
X98300Y73423D01*
X98213Y73371D01*
X98125Y73322D01*
X98034Y73276D01*
X97942Y73234D01*
X97849Y73195D01*
X97754Y73160D01*
X97657Y73128D01*
X97560Y73100D01*
X97462Y73076D01*
X97363Y73055D01*
X97263Y73038D01*
X97162Y73025D01*
X97061Y73016D01*
X96960Y73010D01*
X96859Y73008D01*
X92343Y73008D01*
X92224Y73010D01*
X92104Y73016D01*
X91985Y73026D01*
X91867Y73040D01*
X91748Y73057D01*
X91631Y73079D01*
X91514Y73104D01*
X91399Y73134D01*
X91284Y73167D01*
X91170Y73204D01*
X91058Y73244D01*
X90947Y73289D01*
X90838Y73337D01*
X90730Y73388D01*
X90624Y73443D01*
X90520Y73502D01*
X90418Y73564D01*
X90318Y73629D01*
X90220Y73698D01*
X90124Y73770D01*
X90031Y73845D01*
X89941Y73922D01*
X89853Y74003D01*
X89768Y74087D01*
X89686Y74174D01*
X89606Y74263D01*
X89530Y74355D01*
X89456Y74449D01*
X89386Y74546D01*
X89319Y74644D01*
X89255Y74745D01*
X89195Y74849D01*
X89138Y74954D01*
X89085Y75061D01*
X89035Y75169D01*
X88989Y75279D01*
X88947Y75391D01*
X88908Y75504D01*
X88873Y75618D01*
X88842Y75733D01*
X88814Y75850D01*
X88791Y75967D01*
X88771Y76084D01*
X88755Y76203D01*
X88743Y76322D01*
X88735Y76441D01*
X88731Y76560D01*
X88731Y76680D01*
X88735Y76799D01*
X88743Y76918D01*
X88755Y77037D01*
X88771Y77156D01*
X88791Y77273D01*
X88814Y77390D01*
X88842Y77507D01*
X88873Y77622D01*
X88908Y77736D01*
X88947Y77849D01*
X88989Y77961D01*
X89035Y78071D01*
X89085Y78179D01*
X89138Y78286D01*
X89195Y78391D01*
X89255Y78495D01*
X89319Y78596D01*
X89386Y78694D01*
X89456Y78791D01*
X89530Y78885D01*
X89606Y78977D01*
X89686Y79066D01*
X89768Y79153D01*
X89853Y79237D01*
X89941Y79318D01*
X90031Y79395D01*
X90124Y79470D01*
X90220Y79542D01*
X90318Y79611D01*
X90418Y79676D01*
X90520Y79738D01*
X90624Y79797D01*
X90730Y79852D01*
X90838Y79903D01*
X90947Y79951D01*
X91058Y79996D01*
X91170Y80036D01*
X91284Y80073D01*
X91399Y80106D01*
X91514Y80136D01*
X91631Y80161D01*
X91748Y80183D01*
X91867Y80200D01*
X91985Y80214D01*
X92104Y80224D01*
X92224Y80230D01*
X92343Y80232D01*
X94149Y80232D01*
X94149Y73008D01*
X99568Y87161D02*
X88731Y87161D01*
X88731Y92579D01*
X90537Y92579D01*
X93246Y100584D02*
X93246Y104648D01*
X93246Y100584D02*
X93248Y100472D01*
X93254Y100361D01*
X93264Y100250D01*
X93277Y100139D01*
X93295Y100029D01*
X93317Y99920D01*
X93342Y99811D01*
X93371Y99703D01*
X93404Y99597D01*
X93441Y99491D01*
X93481Y99387D01*
X93525Y99285D01*
X93573Y99184D01*
X93624Y99085D01*
X93679Y98987D01*
X93737Y98892D01*
X93798Y98799D01*
X93863Y98708D01*
X93931Y98619D01*
X94002Y98533D01*
X94075Y98450D01*
X94152Y98369D01*
X94232Y98290D01*
X94314Y98215D01*
X94399Y98143D01*
X94486Y98073D01*
X94576Y98007D01*
X94668Y97944D01*
X94763Y97884D01*
X94859Y97828D01*
X94957Y97775D01*
X95057Y97726D01*
X95159Y97680D01*
X95262Y97638D01*
X95367Y97599D01*
X95473Y97564D01*
X95580Y97533D01*
X95688Y97506D01*
X95797Y97482D01*
X95907Y97463D01*
X96017Y97447D01*
X96128Y97435D01*
X96240Y97427D01*
X96351Y97423D01*
X96463Y97423D01*
X96574Y97427D01*
X96686Y97435D01*
X96797Y97447D01*
X96907Y97463D01*
X97017Y97482D01*
X97126Y97506D01*
X97234Y97533D01*
X97341Y97564D01*
X97447Y97599D01*
X97552Y97638D01*
X97655Y97680D01*
X97757Y97726D01*
X97857Y97775D01*
X97955Y97828D01*
X98051Y97884D01*
X98146Y97944D01*
X98238Y98007D01*
X98328Y98073D01*
X98415Y98143D01*
X98500Y98215D01*
X98582Y98290D01*
X98662Y98369D01*
X98739Y98450D01*
X98812Y98533D01*
X98883Y98619D01*
X98951Y98708D01*
X99016Y98799D01*
X99077Y98892D01*
X99135Y98987D01*
X99190Y99085D01*
X99241Y99184D01*
X99289Y99285D01*
X99333Y99387D01*
X99373Y99491D01*
X99410Y99597D01*
X99443Y99703D01*
X99472Y99811D01*
X99497Y99920D01*
X99519Y100029D01*
X99537Y100139D01*
X99550Y100250D01*
X99560Y100361D01*
X99566Y100472D01*
X99568Y100584D01*
X99568Y104648D01*
X91440Y104648D01*
X91339Y104646D01*
X91238Y104640D01*
X91137Y104631D01*
X91036Y104618D01*
X90936Y104601D01*
X90837Y104580D01*
X90739Y104556D01*
X90642Y104528D01*
X90545Y104496D01*
X90450Y104461D01*
X90357Y104422D01*
X90265Y104380D01*
X90174Y104334D01*
X90086Y104285D01*
X89999Y104233D01*
X89914Y104177D01*
X89831Y104119D01*
X89751Y104057D01*
X89673Y103992D01*
X89597Y103925D01*
X89524Y103855D01*
X89454Y103782D01*
X89387Y103706D01*
X89322Y103628D01*
X89260Y103548D01*
X89202Y103465D01*
X89146Y103380D01*
X89094Y103294D01*
X89045Y103205D01*
X88999Y103114D01*
X88957Y103022D01*
X88918Y102929D01*
X88883Y102834D01*
X88851Y102737D01*
X88823Y102640D01*
X88799Y102542D01*
X88778Y102443D01*
X88761Y102343D01*
X88748Y102242D01*
X88739Y102141D01*
X88733Y102040D01*
X88731Y101939D01*
X88731Y98326D01*
X99568Y114291D02*
X99568Y117904D01*
X99568Y114291D02*
X99566Y114190D01*
X99560Y114089D01*
X99551Y113988D01*
X99538Y113887D01*
X99521Y113787D01*
X99500Y113688D01*
X99476Y113590D01*
X99448Y113493D01*
X99416Y113396D01*
X99381Y113301D01*
X99342Y113208D01*
X99300Y113116D01*
X99254Y113025D01*
X99205Y112936D01*
X99153Y112850D01*
X99097Y112765D01*
X99039Y112682D01*
X98977Y112602D01*
X98912Y112524D01*
X98845Y112448D01*
X98775Y112375D01*
X98702Y112305D01*
X98626Y112238D01*
X98548Y112173D01*
X98468Y112111D01*
X98385Y112053D01*
X98300Y111997D01*
X98213Y111945D01*
X98125Y111896D01*
X98034Y111850D01*
X97942Y111808D01*
X97849Y111769D01*
X97754Y111734D01*
X97657Y111702D01*
X97560Y111674D01*
X97462Y111650D01*
X97363Y111629D01*
X97263Y111612D01*
X97162Y111599D01*
X97061Y111590D01*
X96960Y111584D01*
X96859Y111582D01*
X91440Y111582D01*
X91339Y111584D01*
X91238Y111590D01*
X91137Y111599D01*
X91036Y111612D01*
X90936Y111629D01*
X90837Y111650D01*
X90739Y111674D01*
X90642Y111702D01*
X90545Y111734D01*
X90450Y111769D01*
X90357Y111808D01*
X90265Y111850D01*
X90174Y111896D01*
X90086Y111945D01*
X89999Y111997D01*
X89914Y112053D01*
X89831Y112111D01*
X89751Y112173D01*
X89673Y112238D01*
X89597Y112305D01*
X89524Y112375D01*
X89454Y112448D01*
X89387Y112524D01*
X89322Y112602D01*
X89260Y112682D01*
X89202Y112765D01*
X89146Y112850D01*
X89094Y112937D01*
X89045Y113025D01*
X88999Y113116D01*
X88957Y113208D01*
X88918Y113301D01*
X88883Y113396D01*
X88851Y113493D01*
X88823Y113590D01*
X88799Y113688D01*
X88778Y113787D01*
X88761Y113887D01*
X88748Y113988D01*
X88739Y114089D01*
X88733Y114190D01*
X88731Y114291D01*
X88731Y117904D01*
X88731Y122251D02*
X88731Y127670D01*
X83312Y124057D02*
X96859Y124057D01*
X96859Y124058D02*
X96960Y124060D01*
X97061Y124066D01*
X97162Y124075D01*
X97263Y124088D01*
X97363Y124105D01*
X97462Y124126D01*
X97560Y124150D01*
X97657Y124178D01*
X97754Y124210D01*
X97849Y124245D01*
X97942Y124284D01*
X98034Y124326D01*
X98125Y124372D01*
X98213Y124421D01*
X98300Y124473D01*
X98385Y124529D01*
X98468Y124587D01*
X98548Y124649D01*
X98626Y124714D01*
X98702Y124781D01*
X98775Y124851D01*
X98845Y124924D01*
X98912Y125000D01*
X98977Y125078D01*
X99039Y125158D01*
X99097Y125241D01*
X99153Y125326D01*
X99205Y125412D01*
X99254Y125501D01*
X99300Y125592D01*
X99342Y125684D01*
X99381Y125777D01*
X99416Y125872D01*
X99448Y125969D01*
X99476Y126066D01*
X99500Y126164D01*
X99521Y126263D01*
X99538Y126363D01*
X99551Y126464D01*
X99560Y126565D01*
X99566Y126666D01*
X99568Y126767D01*
X99568Y127670D01*
X99568Y133413D02*
X88731Y133413D01*
X84215Y132962D02*
X83312Y132962D01*
X83312Y133865D01*
X84215Y133865D01*
X84215Y132962D01*
X88731Y139180D02*
X99568Y142792D01*
X88731Y146405D01*
X99568Y154915D02*
X99568Y159431D01*
X99568Y154915D02*
X99566Y154814D01*
X99560Y154713D01*
X99551Y154612D01*
X99538Y154511D01*
X99521Y154411D01*
X99500Y154312D01*
X99476Y154214D01*
X99448Y154117D01*
X99416Y154020D01*
X99381Y153925D01*
X99342Y153832D01*
X99300Y153740D01*
X99254Y153649D01*
X99205Y153560D01*
X99153Y153474D01*
X99097Y153389D01*
X99039Y153306D01*
X98977Y153226D01*
X98912Y153148D01*
X98845Y153072D01*
X98775Y152999D01*
X98702Y152929D01*
X98626Y152862D01*
X98548Y152797D01*
X98468Y152735D01*
X98385Y152677D01*
X98300Y152621D01*
X98213Y152569D01*
X98125Y152520D01*
X98034Y152474D01*
X97942Y152432D01*
X97849Y152393D01*
X97754Y152358D01*
X97657Y152326D01*
X97560Y152298D01*
X97462Y152274D01*
X97363Y152253D01*
X97263Y152236D01*
X97162Y152223D01*
X97061Y152214D01*
X96960Y152208D01*
X96859Y152206D01*
X92343Y152206D01*
X92224Y152208D01*
X92104Y152214D01*
X91985Y152224D01*
X91867Y152238D01*
X91748Y152255D01*
X91631Y152277D01*
X91514Y152302D01*
X91399Y152332D01*
X91284Y152365D01*
X91170Y152402D01*
X91058Y152442D01*
X90947Y152487D01*
X90838Y152535D01*
X90730Y152586D01*
X90624Y152641D01*
X90520Y152700D01*
X90418Y152762D01*
X90318Y152827D01*
X90220Y152896D01*
X90124Y152968D01*
X90031Y153043D01*
X89941Y153120D01*
X89853Y153201D01*
X89768Y153285D01*
X89686Y153372D01*
X89606Y153461D01*
X89530Y153553D01*
X89456Y153647D01*
X89386Y153744D01*
X89319Y153842D01*
X89255Y153943D01*
X89195Y154047D01*
X89138Y154152D01*
X89085Y154259D01*
X89035Y154367D01*
X88989Y154477D01*
X88947Y154589D01*
X88908Y154702D01*
X88873Y154816D01*
X88842Y154931D01*
X88814Y155048D01*
X88791Y155165D01*
X88771Y155282D01*
X88755Y155401D01*
X88743Y155520D01*
X88735Y155639D01*
X88731Y155758D01*
X88731Y155878D01*
X88735Y155997D01*
X88743Y156116D01*
X88755Y156235D01*
X88771Y156354D01*
X88791Y156471D01*
X88814Y156588D01*
X88842Y156705D01*
X88873Y156820D01*
X88908Y156934D01*
X88947Y157047D01*
X88989Y157159D01*
X89035Y157269D01*
X89085Y157377D01*
X89138Y157484D01*
X89195Y157589D01*
X89255Y157693D01*
X89319Y157794D01*
X89386Y157892D01*
X89456Y157989D01*
X89530Y158083D01*
X89606Y158175D01*
X89686Y158264D01*
X89768Y158351D01*
X89853Y158435D01*
X89941Y158516D01*
X90031Y158593D01*
X90124Y158668D01*
X90220Y158740D01*
X90318Y158809D01*
X90418Y158874D01*
X90520Y158936D01*
X90624Y158995D01*
X90730Y159050D01*
X90838Y159101D01*
X90947Y159149D01*
X91058Y159194D01*
X91170Y159234D01*
X91284Y159271D01*
X91399Y159304D01*
X91514Y159334D01*
X91631Y159359D01*
X91748Y159381D01*
X91867Y159398D01*
X91985Y159412D01*
X92104Y159422D01*
X92224Y159428D01*
X92343Y159430D01*
X92343Y159431D02*
X94149Y159431D01*
X94149Y152206D01*
X99568Y174749D02*
X83312Y174749D01*
X83312Y179265D01*
X83314Y179396D01*
X83320Y179528D01*
X83329Y179659D01*
X83343Y179789D01*
X83360Y179920D01*
X83381Y180049D01*
X83405Y180178D01*
X83434Y180306D01*
X83466Y180434D01*
X83502Y180560D01*
X83541Y180685D01*
X83584Y180810D01*
X83631Y180932D01*
X83681Y181054D01*
X83735Y181174D01*
X83792Y181292D01*
X83853Y181408D01*
X83917Y181523D01*
X83984Y181636D01*
X84055Y181747D01*
X84129Y181855D01*
X84206Y181962D01*
X84286Y182066D01*
X84369Y182168D01*
X84454Y182267D01*
X84543Y182364D01*
X84635Y182458D01*
X84729Y182550D01*
X84826Y182639D01*
X84925Y182724D01*
X85027Y182807D01*
X85131Y182887D01*
X85238Y182964D01*
X85346Y183038D01*
X85457Y183109D01*
X85570Y183176D01*
X85685Y183240D01*
X85801Y183301D01*
X85919Y183358D01*
X86039Y183412D01*
X86161Y183462D01*
X86283Y183509D01*
X86408Y183552D01*
X86533Y183591D01*
X86659Y183627D01*
X86787Y183659D01*
X86915Y183688D01*
X87044Y183712D01*
X87173Y183733D01*
X87304Y183750D01*
X87434Y183764D01*
X87565Y183773D01*
X87697Y183779D01*
X87828Y183781D01*
X87828Y183780D02*
X95052Y183780D01*
X95052Y183781D02*
X95183Y183779D01*
X95315Y183773D01*
X95446Y183764D01*
X95576Y183750D01*
X95707Y183733D01*
X95836Y183712D01*
X95965Y183688D01*
X96093Y183659D01*
X96221Y183627D01*
X96347Y183591D01*
X96472Y183552D01*
X96597Y183509D01*
X96719Y183462D01*
X96841Y183412D01*
X96961Y183358D01*
X97079Y183301D01*
X97195Y183240D01*
X97310Y183176D01*
X97423Y183109D01*
X97534Y183038D01*
X97642Y182964D01*
X97749Y182887D01*
X97853Y182807D01*
X97955Y182724D01*
X98054Y182639D01*
X98151Y182550D01*
X98245Y182458D01*
X98337Y182364D01*
X98426Y182267D01*
X98511Y182168D01*
X98594Y182066D01*
X98674Y181962D01*
X98751Y181855D01*
X98825Y181747D01*
X98896Y181636D01*
X98963Y181523D01*
X99027Y181408D01*
X99088Y181292D01*
X99145Y181174D01*
X99199Y181054D01*
X99249Y180932D01*
X99296Y180810D01*
X99339Y180685D01*
X99378Y180560D01*
X99414Y180434D01*
X99446Y180306D01*
X99475Y180178D01*
X99499Y180049D01*
X99520Y179919D01*
X99537Y179789D01*
X99551Y179659D01*
X99560Y179528D01*
X99566Y179396D01*
X99568Y179265D01*
X99568Y174749D01*
X99568Y193472D02*
X99568Y197988D01*
X99568Y193472D02*
X99566Y193371D01*
X99560Y193270D01*
X99551Y193169D01*
X99538Y193068D01*
X99521Y192968D01*
X99500Y192869D01*
X99476Y192771D01*
X99448Y192674D01*
X99416Y192577D01*
X99381Y192482D01*
X99342Y192389D01*
X99300Y192297D01*
X99254Y192206D01*
X99205Y192117D01*
X99153Y192031D01*
X99097Y191946D01*
X99039Y191863D01*
X98977Y191783D01*
X98912Y191705D01*
X98845Y191629D01*
X98775Y191556D01*
X98702Y191486D01*
X98626Y191419D01*
X98548Y191354D01*
X98468Y191292D01*
X98385Y191234D01*
X98300Y191178D01*
X98213Y191126D01*
X98125Y191077D01*
X98034Y191031D01*
X97942Y190989D01*
X97849Y190950D01*
X97754Y190915D01*
X97657Y190883D01*
X97560Y190855D01*
X97462Y190831D01*
X97363Y190810D01*
X97263Y190793D01*
X97162Y190780D01*
X97061Y190771D01*
X96960Y190765D01*
X96859Y190763D01*
X92343Y190763D01*
X92224Y190765D01*
X92104Y190771D01*
X91985Y190781D01*
X91867Y190795D01*
X91748Y190812D01*
X91631Y190834D01*
X91514Y190859D01*
X91399Y190889D01*
X91284Y190922D01*
X91170Y190959D01*
X91058Y190999D01*
X90947Y191044D01*
X90838Y191092D01*
X90730Y191143D01*
X90624Y191198D01*
X90520Y191257D01*
X90418Y191319D01*
X90318Y191384D01*
X90220Y191453D01*
X90124Y191525D01*
X90031Y191600D01*
X89941Y191677D01*
X89853Y191758D01*
X89768Y191842D01*
X89686Y191929D01*
X89606Y192018D01*
X89530Y192110D01*
X89456Y192204D01*
X89386Y192301D01*
X89319Y192399D01*
X89255Y192500D01*
X89195Y192604D01*
X89138Y192709D01*
X89085Y192816D01*
X89035Y192924D01*
X88989Y193034D01*
X88947Y193146D01*
X88908Y193259D01*
X88873Y193373D01*
X88842Y193488D01*
X88814Y193605D01*
X88791Y193722D01*
X88771Y193839D01*
X88755Y193958D01*
X88743Y194077D01*
X88735Y194196D01*
X88731Y194315D01*
X88731Y194435D01*
X88735Y194554D01*
X88743Y194673D01*
X88755Y194792D01*
X88771Y194911D01*
X88791Y195028D01*
X88814Y195145D01*
X88842Y195262D01*
X88873Y195377D01*
X88908Y195491D01*
X88947Y195604D01*
X88989Y195716D01*
X89035Y195826D01*
X89085Y195934D01*
X89138Y196041D01*
X89195Y196146D01*
X89255Y196250D01*
X89319Y196351D01*
X89386Y196449D01*
X89456Y196546D01*
X89530Y196640D01*
X89606Y196732D01*
X89686Y196821D01*
X89768Y196908D01*
X89853Y196992D01*
X89941Y197073D01*
X90031Y197150D01*
X90124Y197225D01*
X90220Y197297D01*
X90318Y197366D01*
X90418Y197431D01*
X90520Y197493D01*
X90624Y197552D01*
X90730Y197607D01*
X90838Y197658D01*
X90947Y197706D01*
X91058Y197751D01*
X91170Y197791D01*
X91284Y197828D01*
X91399Y197861D01*
X91514Y197891D01*
X91631Y197916D01*
X91748Y197938D01*
X91867Y197955D01*
X91985Y197969D01*
X92104Y197979D01*
X92224Y197985D01*
X92343Y197987D01*
X92343Y197988D02*
X94149Y197988D01*
X94149Y190763D01*
X93246Y205664D02*
X95052Y210180D01*
X93246Y205664D02*
X93209Y205576D01*
X93168Y205490D01*
X93124Y205405D01*
X93076Y205322D01*
X93025Y205242D01*
X92971Y205163D01*
X92913Y205087D01*
X92853Y205013D01*
X92789Y204941D01*
X92723Y204873D01*
X92653Y204807D01*
X92582Y204744D01*
X92507Y204683D01*
X92431Y204626D01*
X92352Y204573D01*
X92271Y204522D01*
X92188Y204475D01*
X92103Y204431D01*
X92016Y204391D01*
X91928Y204354D01*
X91838Y204321D01*
X91747Y204291D01*
X91655Y204266D01*
X91562Y204244D01*
X91468Y204226D01*
X91374Y204211D01*
X91279Y204201D01*
X91183Y204195D01*
X91088Y204192D01*
X90992Y204193D01*
X90897Y204199D01*
X90801Y204208D01*
X90707Y204221D01*
X90613Y204237D01*
X90519Y204258D01*
X90427Y204283D01*
X90336Y204311D01*
X90246Y204343D01*
X90157Y204378D01*
X90070Y204417D01*
X89984Y204460D01*
X89900Y204506D01*
X89819Y204556D01*
X89739Y204608D01*
X89661Y204664D01*
X89586Y204724D01*
X89514Y204786D01*
X89444Y204851D01*
X89376Y204919D01*
X89312Y204989D01*
X89250Y205062D01*
X89192Y205138D01*
X89136Y205216D01*
X89084Y205296D01*
X89035Y205378D01*
X88990Y205462D01*
X88948Y205548D01*
X88909Y205635D01*
X88874Y205724D01*
X88843Y205815D01*
X88816Y205906D01*
X88792Y205999D01*
X88772Y206092D01*
X88756Y206186D01*
X88744Y206281D01*
X88735Y206376D01*
X88731Y206472D01*
X88730Y206567D01*
X88737Y206814D01*
X88749Y207060D01*
X88767Y207306D01*
X88792Y207552D01*
X88822Y207796D01*
X88858Y208040D01*
X88900Y208283D01*
X88947Y208525D01*
X89001Y208766D01*
X89060Y209005D01*
X89125Y209243D01*
X89196Y209480D01*
X89272Y209714D01*
X89354Y209947D01*
X89442Y210177D01*
X89535Y210405D01*
X89633Y210632D01*
X95053Y210180D02*
X95090Y210268D01*
X95131Y210354D01*
X95175Y210439D01*
X95223Y210522D01*
X95274Y210602D01*
X95328Y210681D01*
X95386Y210757D01*
X95446Y210831D01*
X95510Y210903D01*
X95576Y210971D01*
X95646Y211037D01*
X95717Y211100D01*
X95792Y211161D01*
X95868Y211218D01*
X95947Y211271D01*
X96028Y211322D01*
X96111Y211369D01*
X96196Y211413D01*
X96283Y211453D01*
X96371Y211490D01*
X96461Y211523D01*
X96552Y211553D01*
X96644Y211578D01*
X96737Y211600D01*
X96831Y211618D01*
X96925Y211633D01*
X97020Y211643D01*
X97116Y211649D01*
X97211Y211652D01*
X97307Y211651D01*
X97402Y211645D01*
X97498Y211636D01*
X97592Y211623D01*
X97686Y211607D01*
X97780Y211586D01*
X97872Y211561D01*
X97963Y211533D01*
X98053Y211501D01*
X98142Y211466D01*
X98229Y211427D01*
X98315Y211384D01*
X98399Y211338D01*
X98480Y211288D01*
X98560Y211236D01*
X98638Y211180D01*
X98713Y211120D01*
X98785Y211058D01*
X98855Y210993D01*
X98923Y210925D01*
X98987Y210855D01*
X99049Y210782D01*
X99107Y210706D01*
X99163Y210628D01*
X99215Y210548D01*
X99264Y210466D01*
X99309Y210382D01*
X99351Y210296D01*
X99390Y210209D01*
X99425Y210120D01*
X99456Y210029D01*
X99483Y209938D01*
X99507Y209845D01*
X99527Y209752D01*
X99543Y209658D01*
X99555Y209563D01*
X99564Y209468D01*
X99568Y209372D01*
X99569Y209277D01*
X99568Y209277D02*
X99559Y208915D01*
X99541Y208553D01*
X99514Y208192D01*
X99479Y207832D01*
X99436Y207472D01*
X99384Y207113D01*
X99323Y206756D01*
X99254Y206401D01*
X99177Y206047D01*
X99091Y205695D01*
X98997Y205345D01*
X98894Y204997D01*
X98784Y204652D01*
X98665Y204310D01*
X99568Y217822D02*
X88731Y217822D01*
X84215Y217370D02*
X83312Y217370D01*
X83312Y218274D01*
X84215Y218274D01*
X84215Y217370D01*
X99568Y226745D02*
X99568Y231261D01*
X99568Y226745D02*
X99566Y226644D01*
X99560Y226543D01*
X99551Y226442D01*
X99538Y226341D01*
X99521Y226241D01*
X99500Y226142D01*
X99476Y226044D01*
X99448Y225947D01*
X99416Y225850D01*
X99381Y225755D01*
X99342Y225662D01*
X99300Y225570D01*
X99254Y225479D01*
X99205Y225390D01*
X99153Y225304D01*
X99097Y225219D01*
X99039Y225136D01*
X98977Y225056D01*
X98912Y224978D01*
X98845Y224902D01*
X98775Y224829D01*
X98702Y224759D01*
X98626Y224692D01*
X98548Y224627D01*
X98468Y224565D01*
X98385Y224507D01*
X98300Y224451D01*
X98213Y224399D01*
X98125Y224350D01*
X98034Y224304D01*
X97942Y224262D01*
X97849Y224223D01*
X97754Y224188D01*
X97657Y224156D01*
X97560Y224128D01*
X97462Y224104D01*
X97363Y224083D01*
X97263Y224066D01*
X97162Y224053D01*
X97061Y224044D01*
X96960Y224038D01*
X96859Y224036D01*
X91440Y224036D01*
X91339Y224038D01*
X91238Y224044D01*
X91137Y224053D01*
X91036Y224066D01*
X90936Y224083D01*
X90837Y224104D01*
X90739Y224128D01*
X90642Y224156D01*
X90545Y224188D01*
X90450Y224223D01*
X90357Y224262D01*
X90265Y224304D01*
X90174Y224350D01*
X90086Y224399D01*
X89999Y224451D01*
X89914Y224507D01*
X89831Y224565D01*
X89751Y224627D01*
X89673Y224692D01*
X89597Y224759D01*
X89524Y224829D01*
X89454Y224902D01*
X89387Y224978D01*
X89322Y225056D01*
X89260Y225136D01*
X89202Y225219D01*
X89146Y225304D01*
X89094Y225391D01*
X89045Y225479D01*
X88999Y225570D01*
X88957Y225662D01*
X88918Y225755D01*
X88883Y225850D01*
X88851Y225947D01*
X88823Y226044D01*
X88799Y226142D01*
X88778Y226241D01*
X88761Y226341D01*
X88748Y226442D01*
X88739Y226543D01*
X88733Y226644D01*
X88731Y226745D01*
X88731Y231261D01*
X102277Y231261D01*
X102378Y231259D01*
X102479Y231253D01*
X102580Y231244D01*
X102681Y231231D01*
X102781Y231214D01*
X102880Y231193D01*
X102978Y231169D01*
X103075Y231141D01*
X103172Y231109D01*
X103267Y231074D01*
X103360Y231035D01*
X103452Y230993D01*
X103543Y230947D01*
X103632Y230898D01*
X103718Y230846D01*
X103803Y230790D01*
X103886Y230732D01*
X103966Y230670D01*
X104044Y230605D01*
X104120Y230538D01*
X104193Y230468D01*
X104263Y230395D01*
X104330Y230319D01*
X104395Y230241D01*
X104457Y230161D01*
X104515Y230078D01*
X104571Y229993D01*
X104623Y229907D01*
X104672Y229818D01*
X104718Y229727D01*
X104760Y229635D01*
X104799Y229542D01*
X104834Y229447D01*
X104866Y229350D01*
X104894Y229253D01*
X104918Y229155D01*
X104939Y229056D01*
X104956Y228956D01*
X104969Y228855D01*
X104978Y228754D01*
X104984Y228653D01*
X104986Y228552D01*
X104987Y228552D02*
X104987Y224939D01*
X99568Y238698D02*
X88731Y238698D01*
X88731Y243214D01*
X88733Y243318D01*
X88739Y243421D01*
X88749Y243525D01*
X88763Y243628D01*
X88781Y243730D01*
X88802Y243831D01*
X88828Y243932D01*
X88857Y244031D01*
X88890Y244130D01*
X88927Y244227D01*
X88968Y244322D01*
X89012Y244416D01*
X89060Y244508D01*
X89111Y244598D01*
X89166Y244687D01*
X89224Y244773D01*
X89286Y244856D01*
X89350Y244938D01*
X89418Y245016D01*
X89488Y245092D01*
X89561Y245166D01*
X89638Y245236D01*
X89716Y245304D01*
X89798Y245368D01*
X89881Y245430D01*
X89967Y245488D01*
X90056Y245543D01*
X90146Y245594D01*
X90238Y245642D01*
X90332Y245686D01*
X90427Y245727D01*
X90524Y245764D01*
X90623Y245797D01*
X90722Y245826D01*
X90823Y245852D01*
X90924Y245873D01*
X91026Y245891D01*
X91129Y245905D01*
X91233Y245915D01*
X91336Y245921D01*
X91440Y245923D01*
X99568Y245923D01*
X99568Y255476D02*
X99568Y259991D01*
X99568Y255476D02*
X99566Y255375D01*
X99560Y255274D01*
X99551Y255173D01*
X99538Y255072D01*
X99521Y254972D01*
X99500Y254873D01*
X99476Y254775D01*
X99448Y254678D01*
X99416Y254581D01*
X99381Y254486D01*
X99342Y254393D01*
X99300Y254301D01*
X99254Y254210D01*
X99205Y254121D01*
X99153Y254035D01*
X99097Y253950D01*
X99039Y253867D01*
X98977Y253787D01*
X98912Y253709D01*
X98845Y253633D01*
X98775Y253560D01*
X98702Y253490D01*
X98626Y253423D01*
X98548Y253358D01*
X98468Y253296D01*
X98385Y253238D01*
X98300Y253182D01*
X98213Y253130D01*
X98125Y253081D01*
X98034Y253035D01*
X97942Y252993D01*
X97849Y252954D01*
X97754Y252919D01*
X97657Y252887D01*
X97560Y252859D01*
X97462Y252835D01*
X97363Y252814D01*
X97263Y252797D01*
X97162Y252784D01*
X97061Y252775D01*
X96960Y252769D01*
X96859Y252767D01*
X92343Y252767D01*
X92224Y252769D01*
X92104Y252775D01*
X91985Y252785D01*
X91867Y252799D01*
X91748Y252816D01*
X91631Y252838D01*
X91514Y252863D01*
X91399Y252893D01*
X91284Y252926D01*
X91170Y252963D01*
X91058Y253003D01*
X90947Y253048D01*
X90838Y253096D01*
X90730Y253147D01*
X90624Y253202D01*
X90520Y253261D01*
X90418Y253323D01*
X90318Y253388D01*
X90220Y253457D01*
X90124Y253529D01*
X90031Y253604D01*
X89941Y253681D01*
X89853Y253762D01*
X89768Y253846D01*
X89686Y253933D01*
X89606Y254022D01*
X89530Y254114D01*
X89456Y254208D01*
X89386Y254305D01*
X89319Y254403D01*
X89255Y254504D01*
X89195Y254608D01*
X89138Y254713D01*
X89085Y254820D01*
X89035Y254928D01*
X88989Y255038D01*
X88947Y255150D01*
X88908Y255263D01*
X88873Y255377D01*
X88842Y255492D01*
X88814Y255609D01*
X88791Y255726D01*
X88771Y255843D01*
X88755Y255962D01*
X88743Y256081D01*
X88735Y256200D01*
X88731Y256319D01*
X88731Y256439D01*
X88735Y256558D01*
X88743Y256677D01*
X88755Y256796D01*
X88771Y256915D01*
X88791Y257032D01*
X88814Y257149D01*
X88842Y257266D01*
X88873Y257381D01*
X88908Y257495D01*
X88947Y257608D01*
X88989Y257720D01*
X89035Y257830D01*
X89085Y257938D01*
X89138Y258045D01*
X89195Y258150D01*
X89255Y258254D01*
X89319Y258355D01*
X89386Y258453D01*
X89456Y258550D01*
X89530Y258644D01*
X89606Y258736D01*
X89686Y258825D01*
X89768Y258912D01*
X89853Y258996D01*
X89941Y259077D01*
X90031Y259154D01*
X90124Y259229D01*
X90220Y259301D01*
X90318Y259370D01*
X90418Y259435D01*
X90520Y259497D01*
X90624Y259556D01*
X90730Y259611D01*
X90838Y259662D01*
X90947Y259710D01*
X91058Y259755D01*
X91170Y259795D01*
X91284Y259832D01*
X91399Y259865D01*
X91514Y259895D01*
X91631Y259920D01*
X91748Y259942D01*
X91867Y259959D01*
X91985Y259973D01*
X92104Y259983D01*
X92224Y259989D01*
X92343Y259991D01*
X94149Y259991D01*
X94149Y252767D01*
X88731Y266919D02*
X99568Y266919D01*
X88731Y266919D02*
X88731Y272338D01*
X90537Y272338D01*
X109982Y38862D02*
X126238Y38862D01*
X109982Y38862D02*
X109982Y43378D01*
X109984Y43511D01*
X109990Y43643D01*
X110000Y43775D01*
X110013Y43907D01*
X110031Y44039D01*
X110052Y44169D01*
X110077Y44300D01*
X110106Y44429D01*
X110139Y44557D01*
X110175Y44685D01*
X110215Y44811D01*
X110259Y44936D01*
X110307Y45060D01*
X110358Y45182D01*
X110413Y45303D01*
X110471Y45422D01*
X110533Y45540D01*
X110598Y45655D01*
X110667Y45769D01*
X110738Y45880D01*
X110814Y45989D01*
X110892Y46096D01*
X110973Y46201D01*
X111058Y46303D01*
X111145Y46403D01*
X111235Y46500D01*
X111328Y46595D01*
X111424Y46686D01*
X111522Y46775D01*
X111623Y46861D01*
X111727Y46944D01*
X111833Y47024D01*
X111941Y47100D01*
X112051Y47174D01*
X112164Y47244D01*
X112278Y47311D01*
X112395Y47374D01*
X112513Y47434D01*
X112633Y47491D01*
X112755Y47544D01*
X112878Y47593D01*
X113002Y47639D01*
X113128Y47681D01*
X113255Y47719D01*
X113383Y47754D01*
X113512Y47785D01*
X113641Y47812D01*
X113772Y47835D01*
X113903Y47855D01*
X114035Y47870D01*
X114167Y47882D01*
X114299Y47890D01*
X114432Y47894D01*
X114564Y47894D01*
X114697Y47890D01*
X114829Y47882D01*
X114961Y47870D01*
X115093Y47855D01*
X115224Y47835D01*
X115355Y47812D01*
X115484Y47785D01*
X115613Y47754D01*
X115741Y47719D01*
X115868Y47681D01*
X115994Y47639D01*
X116118Y47593D01*
X116241Y47544D01*
X116363Y47491D01*
X116483Y47434D01*
X116601Y47374D01*
X116718Y47311D01*
X116832Y47244D01*
X116945Y47174D01*
X117055Y47100D01*
X117163Y47024D01*
X117269Y46944D01*
X117373Y46861D01*
X117474Y46775D01*
X117572Y46686D01*
X117668Y46595D01*
X117761Y46500D01*
X117851Y46403D01*
X117938Y46303D01*
X118023Y46201D01*
X118104Y46096D01*
X118182Y45989D01*
X118258Y45880D01*
X118329Y45769D01*
X118398Y45655D01*
X118463Y45540D01*
X118525Y45422D01*
X118583Y45303D01*
X118638Y45182D01*
X118689Y45060D01*
X118737Y44936D01*
X118781Y44811D01*
X118821Y44685D01*
X118857Y44557D01*
X118890Y44429D01*
X118919Y44300D01*
X118944Y44169D01*
X118965Y44039D01*
X118983Y43907D01*
X118996Y43775D01*
X119006Y43643D01*
X119012Y43511D01*
X119014Y43378D01*
X119013Y43378D02*
X119013Y38862D01*
X119013Y44281D02*
X126238Y47893D01*
X126238Y54953D02*
X126238Y62177D01*
X126238Y54953D02*
X109982Y54953D01*
X109982Y62177D01*
X117207Y60371D02*
X117207Y54953D01*
X109982Y67046D02*
X126238Y72464D01*
X109982Y77883D01*
X123980Y83476D02*
X124883Y83476D01*
X123980Y83476D02*
X123980Y84379D01*
X124883Y84379D01*
X124883Y83476D01*
X117658Y83476D02*
X116755Y83476D01*
X116755Y84379D01*
X117658Y84379D01*
X117658Y83476D01*
X113594Y90875D02*
X109982Y95390D01*
X126238Y95390D01*
X126238Y90875D02*
X126238Y99906D01*
X126238Y105880D02*
X125335Y105880D01*
X125335Y106783D01*
X126238Y106783D01*
X126238Y105880D01*
X118110Y112758D02*
X117790Y112762D01*
X117471Y112773D01*
X117151Y112792D01*
X116833Y112819D01*
X116515Y112853D01*
X116198Y112895D01*
X115882Y112945D01*
X115567Y113002D01*
X115254Y113066D01*
X114942Y113138D01*
X114632Y113217D01*
X114325Y113304D01*
X114019Y113398D01*
X113716Y113499D01*
X113415Y113608D01*
X113117Y113723D01*
X112821Y113846D01*
X112529Y113976D01*
X112240Y114113D01*
X112239Y114114D02*
X112131Y114153D01*
X112024Y114196D01*
X111919Y114242D01*
X111816Y114292D01*
X111714Y114346D01*
X111614Y114403D01*
X111516Y114464D01*
X111420Y114528D01*
X111327Y114595D01*
X111236Y114665D01*
X111147Y114739D01*
X111061Y114815D01*
X110978Y114895D01*
X110897Y114977D01*
X110819Y115062D01*
X110745Y115149D01*
X110673Y115240D01*
X110604Y115332D01*
X110539Y115427D01*
X110477Y115524D01*
X110418Y115623D01*
X110363Y115724D01*
X110312Y115827D01*
X110264Y115932D01*
X110219Y116038D01*
X110178Y116145D01*
X110141Y116254D01*
X110108Y116365D01*
X110079Y116476D01*
X110053Y116588D01*
X110031Y116701D01*
X110014Y116815D01*
X110000Y116929D01*
X109990Y117044D01*
X109984Y117159D01*
X109982Y117274D01*
X109984Y117389D01*
X109990Y117504D01*
X110000Y117619D01*
X110014Y117733D01*
X110031Y117847D01*
X110053Y117960D01*
X110079Y118072D01*
X110108Y118184D01*
X110141Y118294D01*
X110178Y118403D01*
X110219Y118511D01*
X110264Y118617D01*
X110312Y118722D01*
X110363Y118824D01*
X110419Y118926D01*
X110477Y119025D01*
X110539Y119122D01*
X110605Y119217D01*
X110673Y119309D01*
X110745Y119399D01*
X110819Y119487D01*
X110897Y119572D01*
X110978Y119654D01*
X111061Y119733D01*
X111147Y119810D01*
X111236Y119883D01*
X111327Y119954D01*
X111421Y120021D01*
X111516Y120085D01*
X111614Y120146D01*
X111714Y120203D01*
X111816Y120256D01*
X111920Y120307D01*
X112025Y120353D01*
X112132Y120396D01*
X112240Y120435D01*
X112240Y120434D02*
X112529Y120571D01*
X112821Y120701D01*
X113117Y120824D01*
X113415Y120939D01*
X113716Y121048D01*
X114019Y121149D01*
X114325Y121243D01*
X114632Y121330D01*
X114942Y121409D01*
X115254Y121481D01*
X115567Y121545D01*
X115882Y121602D01*
X116198Y121652D01*
X116515Y121694D01*
X116833Y121728D01*
X117151Y121755D01*
X117471Y121774D01*
X117790Y121785D01*
X118110Y121789D01*
X118110Y112759D02*
X118430Y112763D01*
X118749Y112774D01*
X119069Y112793D01*
X119387Y112820D01*
X119705Y112854D01*
X120022Y112896D01*
X120338Y112946D01*
X120653Y113003D01*
X120966Y113067D01*
X121278Y113139D01*
X121588Y113218D01*
X121895Y113305D01*
X122201Y113399D01*
X122504Y113500D01*
X122805Y113609D01*
X123103Y113724D01*
X123399Y113847D01*
X123691Y113977D01*
X123980Y114114D01*
X123981Y114113D02*
X124089Y114152D01*
X124196Y114195D01*
X124301Y114241D01*
X124405Y114292D01*
X124507Y114345D01*
X124607Y114402D01*
X124705Y114463D01*
X124800Y114527D01*
X124894Y114594D01*
X124985Y114665D01*
X125074Y114738D01*
X125160Y114815D01*
X125243Y114894D01*
X125324Y114976D01*
X125402Y115061D01*
X125476Y115149D01*
X125548Y115239D01*
X125617Y115332D01*
X125682Y115426D01*
X125744Y115523D01*
X125802Y115623D01*
X125858Y115724D01*
X125909Y115826D01*
X125957Y115931D01*
X126002Y116037D01*
X126043Y116145D01*
X126080Y116254D01*
X126113Y116364D01*
X126142Y116476D01*
X126168Y116588D01*
X126190Y116701D01*
X126207Y116815D01*
X126221Y116929D01*
X126231Y117044D01*
X126237Y117159D01*
X126239Y117274D01*
X123980Y120434D02*
X123691Y120571D01*
X123399Y120701D01*
X123103Y120824D01*
X122805Y120939D01*
X122504Y121048D01*
X122201Y121149D01*
X121895Y121243D01*
X121588Y121330D01*
X121278Y121409D01*
X120966Y121481D01*
X120653Y121545D01*
X120338Y121602D01*
X120022Y121652D01*
X119705Y121694D01*
X119387Y121728D01*
X119069Y121755D01*
X118749Y121774D01*
X118430Y121785D01*
X118110Y121789D01*
X123980Y120435D02*
X124088Y120396D01*
X124195Y120353D01*
X124300Y120307D01*
X124404Y120256D01*
X124506Y120203D01*
X124606Y120146D01*
X124704Y120085D01*
X124799Y120021D01*
X124893Y119954D01*
X124984Y119883D01*
X125073Y119810D01*
X125159Y119733D01*
X125242Y119654D01*
X125323Y119572D01*
X125401Y119487D01*
X125475Y119399D01*
X125547Y119309D01*
X125616Y119216D01*
X125681Y119122D01*
X125743Y119025D01*
X125801Y118925D01*
X125857Y118824D01*
X125908Y118721D01*
X125956Y118617D01*
X126001Y118511D01*
X126042Y118403D01*
X126079Y118294D01*
X126112Y118184D01*
X126141Y118072D01*
X126167Y117960D01*
X126189Y117847D01*
X126206Y117733D01*
X126220Y117619D01*
X126230Y117504D01*
X126236Y117389D01*
X126238Y117274D01*
X122626Y113661D02*
X113594Y120886D01*
X107950Y609600D02*
X120650Y609600D01*
X127000Y603250D01*
X127000Y590550D01*
X120650Y584200D01*
X101600Y590550D02*
X101600Y603250D01*
X107950Y609600D01*
X101600Y590550D02*
X107950Y584200D01*
X120650Y584200D01*
D12*
X117348Y622173D02*
X114173Y622173D01*
X117348Y622173D02*
X117459Y622171D01*
X117569Y622165D01*
X117680Y622156D01*
X117790Y622142D01*
X117899Y622125D01*
X118008Y622104D01*
X118116Y622079D01*
X118223Y622050D01*
X118329Y622018D01*
X118434Y621982D01*
X118537Y621942D01*
X118639Y621899D01*
X118740Y621852D01*
X118839Y621801D01*
X118936Y621748D01*
X119030Y621691D01*
X119123Y621630D01*
X119214Y621567D01*
X119303Y621500D01*
X119389Y621430D01*
X119472Y621357D01*
X119554Y621282D01*
X119632Y621204D01*
X119707Y621122D01*
X119780Y621039D01*
X119850Y620953D01*
X119917Y620864D01*
X119980Y620773D01*
X120041Y620680D01*
X120098Y620585D01*
X120151Y620489D01*
X120202Y620390D01*
X120249Y620289D01*
X120292Y620187D01*
X120332Y620084D01*
X120368Y619979D01*
X120400Y619873D01*
X120429Y619766D01*
X120454Y619658D01*
X120475Y619549D01*
X120492Y619440D01*
X120506Y619330D01*
X120515Y619219D01*
X120521Y619109D01*
X120523Y618998D01*
X120521Y618887D01*
X120515Y618777D01*
X120506Y618666D01*
X120492Y618556D01*
X120475Y618447D01*
X120454Y618338D01*
X120429Y618230D01*
X120400Y618123D01*
X120368Y618017D01*
X120332Y617912D01*
X120292Y617809D01*
X120249Y617707D01*
X120202Y617606D01*
X120151Y617507D01*
X120098Y617411D01*
X120041Y617316D01*
X119980Y617223D01*
X119917Y617132D01*
X119850Y617043D01*
X119780Y616957D01*
X119707Y616874D01*
X119632Y616792D01*
X119554Y616714D01*
X119472Y616639D01*
X119389Y616566D01*
X119303Y616496D01*
X119214Y616429D01*
X119123Y616366D01*
X119030Y616305D01*
X118935Y616248D01*
X118839Y616195D01*
X118740Y616144D01*
X118639Y616097D01*
X118537Y616054D01*
X118434Y616014D01*
X118329Y615978D01*
X118223Y615946D01*
X118116Y615917D01*
X118008Y615892D01*
X117899Y615871D01*
X117790Y615854D01*
X117680Y615840D01*
X117569Y615831D01*
X117459Y615825D01*
X117348Y615823D01*
X114173Y615823D01*
X114173Y627253D01*
X117348Y627253D01*
X117448Y627251D01*
X117547Y627245D01*
X117647Y627235D01*
X117745Y627222D01*
X117844Y627204D01*
X117941Y627183D01*
X118037Y627158D01*
X118133Y627129D01*
X118227Y627096D01*
X118320Y627060D01*
X118411Y627020D01*
X118501Y626976D01*
X118589Y626929D01*
X118675Y626879D01*
X118759Y626825D01*
X118841Y626768D01*
X118920Y626708D01*
X118998Y626644D01*
X119072Y626578D01*
X119144Y626509D01*
X119213Y626437D01*
X119279Y626363D01*
X119343Y626285D01*
X119403Y626206D01*
X119460Y626124D01*
X119514Y626040D01*
X119564Y625954D01*
X119611Y625866D01*
X119655Y625776D01*
X119695Y625685D01*
X119731Y625592D01*
X119764Y625498D01*
X119793Y625402D01*
X119818Y625306D01*
X119839Y625209D01*
X119857Y625110D01*
X119870Y625012D01*
X119880Y624912D01*
X119886Y624813D01*
X119888Y624713D01*
X119886Y624613D01*
X119880Y624514D01*
X119870Y624414D01*
X119857Y624316D01*
X119839Y624217D01*
X119818Y624120D01*
X119793Y624024D01*
X119764Y623928D01*
X119731Y623834D01*
X119695Y623741D01*
X119655Y623650D01*
X119611Y623560D01*
X119564Y623472D01*
X119514Y623386D01*
X119460Y623302D01*
X119403Y623220D01*
X119343Y623141D01*
X119279Y623063D01*
X119213Y622989D01*
X119144Y622917D01*
X119072Y622848D01*
X118998Y622782D01*
X118920Y622718D01*
X118841Y622658D01*
X118759Y622601D01*
X118675Y622547D01*
X118589Y622497D01*
X118501Y622450D01*
X118411Y622406D01*
X118320Y622366D01*
X118227Y622330D01*
X118133Y622297D01*
X118037Y622268D01*
X117941Y622243D01*
X117844Y622222D01*
X117745Y622204D01*
X117647Y622191D01*
X117547Y622181D01*
X117448Y622175D01*
X117348Y622173D01*
X125159Y620268D02*
X132779Y620268D01*
X138875Y615823D02*
X138875Y627253D01*
X137605Y615823D02*
X140145Y615823D01*
X140145Y627253D02*
X137605Y627253D01*
X145225Y627253D02*
X145225Y615823D01*
X151575Y615823D02*
X145225Y627253D01*
X151575Y627253D02*
X151575Y615823D01*
D10*
X82550Y609600D02*
X69850Y609600D01*
X82550Y609600D02*
X88900Y603250D01*
X88900Y590550D01*
X82550Y584200D01*
X63500Y590550D02*
X63500Y603250D01*
X69850Y609600D01*
X63500Y590550D02*
X69850Y584200D01*
X82550Y584200D01*
D12*
X66548Y571373D02*
X63373Y571373D01*
X66548Y571373D02*
X66659Y571371D01*
X66769Y571365D01*
X66880Y571356D01*
X66990Y571342D01*
X67099Y571325D01*
X67208Y571304D01*
X67316Y571279D01*
X67423Y571250D01*
X67529Y571218D01*
X67634Y571182D01*
X67737Y571142D01*
X67839Y571099D01*
X67940Y571052D01*
X68039Y571001D01*
X68136Y570948D01*
X68230Y570891D01*
X68323Y570830D01*
X68414Y570767D01*
X68503Y570700D01*
X68589Y570630D01*
X68672Y570557D01*
X68754Y570482D01*
X68832Y570404D01*
X68907Y570322D01*
X68980Y570239D01*
X69050Y570153D01*
X69117Y570064D01*
X69180Y569973D01*
X69241Y569880D01*
X69298Y569785D01*
X69351Y569689D01*
X69402Y569590D01*
X69449Y569489D01*
X69492Y569387D01*
X69532Y569284D01*
X69568Y569179D01*
X69600Y569073D01*
X69629Y568966D01*
X69654Y568858D01*
X69675Y568749D01*
X69692Y568640D01*
X69706Y568530D01*
X69715Y568419D01*
X69721Y568309D01*
X69723Y568198D01*
X69721Y568087D01*
X69715Y567977D01*
X69706Y567866D01*
X69692Y567756D01*
X69675Y567647D01*
X69654Y567538D01*
X69629Y567430D01*
X69600Y567323D01*
X69568Y567217D01*
X69532Y567112D01*
X69492Y567009D01*
X69449Y566907D01*
X69402Y566806D01*
X69351Y566707D01*
X69298Y566611D01*
X69241Y566516D01*
X69180Y566423D01*
X69117Y566332D01*
X69050Y566243D01*
X68980Y566157D01*
X68907Y566074D01*
X68832Y565992D01*
X68754Y565914D01*
X68672Y565839D01*
X68589Y565766D01*
X68503Y565696D01*
X68414Y565629D01*
X68323Y565566D01*
X68230Y565505D01*
X68135Y565448D01*
X68039Y565395D01*
X67940Y565344D01*
X67839Y565297D01*
X67737Y565254D01*
X67634Y565214D01*
X67529Y565178D01*
X67423Y565146D01*
X67316Y565117D01*
X67208Y565092D01*
X67099Y565071D01*
X66990Y565054D01*
X66880Y565040D01*
X66769Y565031D01*
X66659Y565025D01*
X66548Y565023D01*
X63373Y565023D01*
X63373Y576453D01*
X66548Y576453D01*
X66648Y576451D01*
X66747Y576445D01*
X66847Y576435D01*
X66945Y576422D01*
X67044Y576404D01*
X67141Y576383D01*
X67237Y576358D01*
X67333Y576329D01*
X67427Y576296D01*
X67520Y576260D01*
X67611Y576220D01*
X67701Y576176D01*
X67789Y576129D01*
X67875Y576079D01*
X67959Y576025D01*
X68041Y575968D01*
X68120Y575908D01*
X68198Y575844D01*
X68272Y575778D01*
X68344Y575709D01*
X68413Y575637D01*
X68479Y575563D01*
X68543Y575485D01*
X68603Y575406D01*
X68660Y575324D01*
X68714Y575240D01*
X68764Y575154D01*
X68811Y575066D01*
X68855Y574976D01*
X68895Y574885D01*
X68931Y574792D01*
X68964Y574698D01*
X68993Y574602D01*
X69018Y574506D01*
X69039Y574409D01*
X69057Y574310D01*
X69070Y574212D01*
X69080Y574112D01*
X69086Y574013D01*
X69088Y573913D01*
X69086Y573813D01*
X69080Y573714D01*
X69070Y573614D01*
X69057Y573516D01*
X69039Y573417D01*
X69018Y573320D01*
X68993Y573224D01*
X68964Y573128D01*
X68931Y573034D01*
X68895Y572941D01*
X68855Y572850D01*
X68811Y572760D01*
X68764Y572672D01*
X68714Y572586D01*
X68660Y572502D01*
X68603Y572420D01*
X68543Y572341D01*
X68479Y572263D01*
X68413Y572189D01*
X68344Y572117D01*
X68272Y572048D01*
X68198Y571982D01*
X68120Y571918D01*
X68041Y571858D01*
X67959Y571801D01*
X67875Y571747D01*
X67789Y571697D01*
X67701Y571650D01*
X67611Y571606D01*
X67520Y571566D01*
X67427Y571530D01*
X67333Y571497D01*
X67237Y571468D01*
X67141Y571443D01*
X67044Y571422D01*
X66945Y571404D01*
X66847Y571391D01*
X66747Y571381D01*
X66648Y571375D01*
X66548Y571373D01*
X74359Y569468D02*
X81979Y569468D01*
X87186Y568198D02*
X87186Y573278D01*
X87188Y573389D01*
X87194Y573499D01*
X87203Y573610D01*
X87217Y573720D01*
X87234Y573829D01*
X87255Y573938D01*
X87280Y574046D01*
X87309Y574153D01*
X87341Y574259D01*
X87377Y574364D01*
X87417Y574467D01*
X87460Y574569D01*
X87507Y574670D01*
X87558Y574769D01*
X87611Y574866D01*
X87668Y574960D01*
X87729Y575053D01*
X87792Y575144D01*
X87859Y575233D01*
X87929Y575319D01*
X88002Y575402D01*
X88077Y575484D01*
X88155Y575562D01*
X88237Y575637D01*
X88320Y575710D01*
X88406Y575780D01*
X88495Y575847D01*
X88586Y575910D01*
X88679Y575971D01*
X88774Y576028D01*
X88870Y576081D01*
X88969Y576132D01*
X89070Y576179D01*
X89172Y576222D01*
X89275Y576262D01*
X89380Y576298D01*
X89486Y576330D01*
X89593Y576359D01*
X89701Y576384D01*
X89810Y576405D01*
X89919Y576422D01*
X90029Y576436D01*
X90140Y576445D01*
X90250Y576451D01*
X90361Y576453D01*
X90472Y576451D01*
X90582Y576445D01*
X90693Y576436D01*
X90803Y576422D01*
X90912Y576405D01*
X91021Y576384D01*
X91129Y576359D01*
X91236Y576330D01*
X91342Y576298D01*
X91447Y576262D01*
X91550Y576222D01*
X91652Y576179D01*
X91753Y576132D01*
X91852Y576081D01*
X91949Y576028D01*
X92043Y575971D01*
X92136Y575910D01*
X92227Y575847D01*
X92316Y575780D01*
X92402Y575710D01*
X92485Y575637D01*
X92567Y575562D01*
X92645Y575484D01*
X92720Y575402D01*
X92793Y575319D01*
X92863Y575233D01*
X92930Y575144D01*
X92993Y575053D01*
X93054Y574960D01*
X93111Y574866D01*
X93164Y574769D01*
X93215Y574670D01*
X93262Y574569D01*
X93305Y574467D01*
X93345Y574364D01*
X93381Y574259D01*
X93413Y574153D01*
X93442Y574046D01*
X93467Y573938D01*
X93488Y573829D01*
X93505Y573720D01*
X93519Y573610D01*
X93528Y573499D01*
X93534Y573389D01*
X93536Y573278D01*
X93536Y568198D01*
X93534Y568087D01*
X93528Y567977D01*
X93519Y567866D01*
X93505Y567756D01*
X93488Y567647D01*
X93467Y567538D01*
X93442Y567430D01*
X93413Y567323D01*
X93381Y567217D01*
X93345Y567112D01*
X93305Y567009D01*
X93262Y566907D01*
X93215Y566806D01*
X93164Y566707D01*
X93111Y566611D01*
X93054Y566516D01*
X92993Y566423D01*
X92930Y566332D01*
X92863Y566243D01*
X92793Y566157D01*
X92720Y566074D01*
X92645Y565992D01*
X92567Y565914D01*
X92485Y565839D01*
X92402Y565766D01*
X92316Y565696D01*
X92227Y565629D01*
X92136Y565566D01*
X92043Y565505D01*
X91948Y565448D01*
X91852Y565395D01*
X91753Y565344D01*
X91652Y565297D01*
X91550Y565254D01*
X91447Y565214D01*
X91342Y565178D01*
X91236Y565146D01*
X91129Y565117D01*
X91021Y565092D01*
X90912Y565071D01*
X90803Y565054D01*
X90693Y565040D01*
X90582Y565031D01*
X90472Y565025D01*
X90361Y565023D01*
X90250Y565025D01*
X90140Y565031D01*
X90029Y565040D01*
X89919Y565054D01*
X89810Y565071D01*
X89701Y565092D01*
X89593Y565117D01*
X89486Y565146D01*
X89380Y565178D01*
X89275Y565214D01*
X89172Y565254D01*
X89070Y565297D01*
X88969Y565344D01*
X88870Y565395D01*
X88774Y565448D01*
X88679Y565505D01*
X88586Y565566D01*
X88495Y565629D01*
X88406Y565696D01*
X88320Y565766D01*
X88237Y565839D01*
X88155Y565914D01*
X88077Y565992D01*
X88002Y566074D01*
X87929Y566157D01*
X87859Y566243D01*
X87792Y566332D01*
X87729Y566423D01*
X87668Y566516D01*
X87611Y566611D01*
X87558Y566707D01*
X87507Y566806D01*
X87460Y566907D01*
X87417Y567009D01*
X87377Y567112D01*
X87341Y567217D01*
X87309Y567323D01*
X87280Y567430D01*
X87255Y567538D01*
X87234Y567647D01*
X87217Y567756D01*
X87203Y567866D01*
X87194Y567977D01*
X87188Y568087D01*
X87186Y568198D01*
X98997Y568198D02*
X98997Y576453D01*
X98997Y568198D02*
X98999Y568087D01*
X99005Y567977D01*
X99014Y567866D01*
X99028Y567756D01*
X99045Y567647D01*
X99066Y567538D01*
X99091Y567430D01*
X99120Y567323D01*
X99152Y567217D01*
X99188Y567112D01*
X99228Y567009D01*
X99271Y566907D01*
X99318Y566806D01*
X99369Y566707D01*
X99422Y566611D01*
X99479Y566516D01*
X99540Y566423D01*
X99603Y566332D01*
X99670Y566243D01*
X99740Y566157D01*
X99813Y566074D01*
X99888Y565992D01*
X99966Y565914D01*
X100048Y565839D01*
X100131Y565766D01*
X100217Y565696D01*
X100306Y565629D01*
X100397Y565566D01*
X100490Y565505D01*
X100585Y565448D01*
X100681Y565395D01*
X100780Y565344D01*
X100881Y565297D01*
X100983Y565254D01*
X101086Y565214D01*
X101191Y565178D01*
X101297Y565146D01*
X101404Y565117D01*
X101512Y565092D01*
X101621Y565071D01*
X101730Y565054D01*
X101840Y565040D01*
X101951Y565031D01*
X102061Y565025D01*
X102172Y565023D01*
X102283Y565025D01*
X102393Y565031D01*
X102504Y565040D01*
X102614Y565054D01*
X102723Y565071D01*
X102832Y565092D01*
X102940Y565117D01*
X103047Y565146D01*
X103153Y565178D01*
X103258Y565214D01*
X103361Y565254D01*
X103463Y565297D01*
X103564Y565344D01*
X103663Y565395D01*
X103759Y565448D01*
X103854Y565505D01*
X103947Y565566D01*
X104038Y565629D01*
X104127Y565696D01*
X104213Y565766D01*
X104296Y565839D01*
X104378Y565914D01*
X104456Y565992D01*
X104531Y566074D01*
X104604Y566157D01*
X104674Y566243D01*
X104741Y566332D01*
X104804Y566423D01*
X104865Y566516D01*
X104922Y566611D01*
X104975Y566707D01*
X105026Y566806D01*
X105073Y566907D01*
X105116Y567009D01*
X105156Y567112D01*
X105192Y567217D01*
X105224Y567323D01*
X105253Y567430D01*
X105278Y567538D01*
X105299Y567647D01*
X105316Y567756D01*
X105330Y567866D01*
X105339Y567977D01*
X105345Y568087D01*
X105347Y568198D01*
X105347Y576453D01*
X113221Y576453D02*
X113221Y565023D01*
X110046Y576453D02*
X116396Y576453D01*
D10*
X38100Y528320D02*
X33020Y528320D01*
X35560Y530860D02*
X35560Y525780D01*
X0Y546100D02*
X8Y546723D01*
X31Y547346D01*
X69Y547969D01*
X122Y548590D01*
X191Y549209D01*
X275Y549827D01*
X374Y550442D01*
X488Y551055D01*
X617Y551665D01*
X761Y552272D01*
X920Y552875D01*
X1094Y553473D01*
X1282Y554068D01*
X1485Y554657D01*
X1702Y555241D01*
X1933Y555820D01*
X2179Y556393D01*
X2439Y556960D01*
X2712Y557520D01*
X2999Y558073D01*
X3300Y558620D01*
X3614Y559158D01*
X3941Y559689D01*
X4281Y560211D01*
X4633Y560726D01*
X4999Y561231D01*
X5376Y561727D01*
X5766Y562214D01*
X6167Y562691D01*
X6580Y563158D01*
X7004Y563614D01*
X7439Y564061D01*
X7886Y564496D01*
X8342Y564920D01*
X8809Y565333D01*
X9286Y565734D01*
X9773Y566124D01*
X10269Y566501D01*
X10774Y566867D01*
X11289Y567219D01*
X11811Y567559D01*
X12342Y567886D01*
X12880Y568200D01*
X13427Y568501D01*
X13980Y568788D01*
X14540Y569061D01*
X15107Y569321D01*
X15680Y569567D01*
X16259Y569798D01*
X16843Y570015D01*
X17432Y570218D01*
X18027Y570406D01*
X18625Y570580D01*
X19228Y570739D01*
X19835Y570883D01*
X20445Y571012D01*
X21058Y571126D01*
X21673Y571225D01*
X22291Y571309D01*
X22910Y571378D01*
X23531Y571431D01*
X24154Y571469D01*
X24777Y571492D01*
X25400Y571500D01*
X26023Y571492D01*
X26646Y571469D01*
X27269Y571431D01*
X27890Y571378D01*
X28509Y571309D01*
X29127Y571225D01*
X29742Y571126D01*
X30355Y571012D01*
X30965Y570883D01*
X31572Y570739D01*
X32175Y570580D01*
X32773Y570406D01*
X33368Y570218D01*
X33957Y570015D01*
X34541Y569798D01*
X35120Y569567D01*
X35693Y569321D01*
X36260Y569061D01*
X36820Y568788D01*
X37373Y568501D01*
X37920Y568200D01*
X38458Y567886D01*
X38989Y567559D01*
X39511Y567219D01*
X40026Y566867D01*
X40531Y566501D01*
X41027Y566124D01*
X41514Y565734D01*
X41991Y565333D01*
X42458Y564920D01*
X42914Y564496D01*
X43361Y564061D01*
X43796Y563614D01*
X44220Y563158D01*
X44633Y562691D01*
X45034Y562214D01*
X45424Y561727D01*
X45801Y561231D01*
X46167Y560726D01*
X46519Y560211D01*
X46859Y559689D01*
X47186Y559158D01*
X47500Y558620D01*
X47801Y558073D01*
X48088Y557520D01*
X48361Y556960D01*
X48621Y556393D01*
X48867Y555820D01*
X49098Y555241D01*
X49315Y554657D01*
X49518Y554068D01*
X49706Y553473D01*
X49880Y552875D01*
X50039Y552272D01*
X50183Y551665D01*
X50312Y551055D01*
X50426Y550442D01*
X50525Y549827D01*
X50609Y549209D01*
X50678Y548590D01*
X50731Y547969D01*
X50769Y547346D01*
X50792Y546723D01*
X50800Y546100D01*
X50792Y545477D01*
X50769Y544854D01*
X50731Y544231D01*
X50678Y543610D01*
X50609Y542991D01*
X50525Y542373D01*
X50426Y541758D01*
X50312Y541145D01*
X50183Y540535D01*
X50039Y539928D01*
X49880Y539325D01*
X49706Y538727D01*
X49518Y538132D01*
X49315Y537543D01*
X49098Y536959D01*
X48867Y536380D01*
X48621Y535807D01*
X48361Y535240D01*
X48088Y534680D01*
X47801Y534127D01*
X47500Y533580D01*
X47186Y533042D01*
X46859Y532511D01*
X46519Y531989D01*
X46167Y531474D01*
X45801Y530969D01*
X45424Y530473D01*
X45034Y529986D01*
X44633Y529509D01*
X44220Y529042D01*
X43796Y528586D01*
X43361Y528139D01*
X42914Y527704D01*
X42458Y527280D01*
X41991Y526867D01*
X41514Y526466D01*
X41027Y526076D01*
X40531Y525699D01*
X40026Y525333D01*
X39511Y524981D01*
X38989Y524641D01*
X38458Y524314D01*
X37920Y524000D01*
X37373Y523699D01*
X36820Y523412D01*
X36260Y523139D01*
X35693Y522879D01*
X35120Y522633D01*
X34541Y522402D01*
X33957Y522185D01*
X33368Y521982D01*
X32773Y521794D01*
X32175Y521620D01*
X31572Y521461D01*
X30965Y521317D01*
X30355Y521188D01*
X29742Y521074D01*
X29127Y520975D01*
X28509Y520891D01*
X27890Y520822D01*
X27269Y520769D01*
X26646Y520731D01*
X26023Y520708D01*
X25400Y520700D01*
X24777Y520708D01*
X24154Y520731D01*
X23531Y520769D01*
X22910Y520822D01*
X22291Y520891D01*
X21673Y520975D01*
X21058Y521074D01*
X20445Y521188D01*
X19835Y521317D01*
X19228Y521461D01*
X18625Y521620D01*
X18027Y521794D01*
X17432Y521982D01*
X16843Y522185D01*
X16259Y522402D01*
X15680Y522633D01*
X15107Y522879D01*
X14540Y523139D01*
X13980Y523412D01*
X13427Y523699D01*
X12880Y524000D01*
X12342Y524314D01*
X11811Y524641D01*
X11289Y524981D01*
X10774Y525333D01*
X10269Y525699D01*
X9773Y526076D01*
X9286Y526466D01*
X8809Y526867D01*
X8342Y527280D01*
X7886Y527704D01*
X7439Y528139D01*
X7004Y528586D01*
X6580Y529042D01*
X6167Y529509D01*
X5766Y529986D01*
X5376Y530473D01*
X4999Y530969D01*
X4633Y531474D01*
X4281Y531989D01*
X3941Y532511D01*
X3614Y533042D01*
X3300Y533580D01*
X2999Y534127D01*
X2712Y534680D01*
X2439Y535240D01*
X2179Y535807D01*
X1933Y536380D01*
X1702Y536959D01*
X1485Y537543D01*
X1282Y538132D01*
X1094Y538727D01*
X920Y539325D01*
X761Y539928D01*
X617Y540535D01*
X488Y541145D01*
X374Y541758D01*
X275Y542373D01*
X191Y542991D01*
X122Y543610D01*
X69Y544231D01*
X31Y544854D01*
X8Y545477D01*
X0Y546100D01*
X81280Y561340D02*
X86360Y561340D01*
X83820Y558800D02*
X83820Y563880D01*
X92710Y561340D02*
X97790Y561340D01*
X67310Y546100D02*
X67317Y546630D01*
X67336Y547159D01*
X67368Y547688D01*
X67414Y548216D01*
X67472Y548743D01*
X67544Y549268D01*
X67628Y549791D01*
X67725Y550312D01*
X67835Y550830D01*
X67957Y551346D01*
X68092Y551858D01*
X68240Y552367D01*
X68400Y552872D01*
X68572Y553373D01*
X68757Y553870D01*
X68953Y554362D01*
X69162Y554849D01*
X69383Y555331D01*
X69615Y555807D01*
X69859Y556277D01*
X70115Y556742D01*
X70382Y557199D01*
X70660Y557651D01*
X70949Y558095D01*
X71248Y558532D01*
X71559Y558961D01*
X71880Y559383D01*
X72211Y559797D01*
X72552Y560202D01*
X72903Y560599D01*
X73264Y560987D01*
X73634Y561366D01*
X74013Y561736D01*
X74401Y562097D01*
X74798Y562448D01*
X75203Y562789D01*
X75617Y563120D01*
X76039Y563441D01*
X76468Y563752D01*
X76905Y564051D01*
X77349Y564340D01*
X77801Y564618D01*
X78258Y564885D01*
X78723Y565141D01*
X79193Y565385D01*
X79669Y565617D01*
X80151Y565838D01*
X80638Y566047D01*
X81130Y566243D01*
X81627Y566428D01*
X82128Y566600D01*
X82633Y566760D01*
X83142Y566908D01*
X83654Y567043D01*
X84170Y567165D01*
X84688Y567275D01*
X85209Y567372D01*
X85732Y567456D01*
X86257Y567528D01*
X86784Y567586D01*
X87312Y567632D01*
X87841Y567664D01*
X88370Y567683D01*
X88900Y567690D01*
X89430Y567683D01*
X89959Y567664D01*
X90488Y567632D01*
X91016Y567586D01*
X91543Y567528D01*
X92068Y567456D01*
X92591Y567372D01*
X93112Y567275D01*
X93630Y567165D01*
X94146Y567043D01*
X94658Y566908D01*
X95167Y566760D01*
X95672Y566600D01*
X96173Y566428D01*
X96670Y566243D01*
X97162Y566047D01*
X97649Y565838D01*
X98131Y565617D01*
X98607Y565385D01*
X99077Y565141D01*
X99542Y564885D01*
X99999Y564618D01*
X100451Y564340D01*
X100895Y564051D01*
X101332Y563752D01*
X101761Y563441D01*
X102183Y563120D01*
X102597Y562789D01*
X103002Y562448D01*
X103399Y562097D01*
X103787Y561736D01*
X104166Y561366D01*
X104536Y560987D01*
X104897Y560599D01*
X105248Y560202D01*
X105589Y559797D01*
X105920Y559383D01*
X106241Y558961D01*
X106552Y558532D01*
X106851Y558095D01*
X107140Y557651D01*
X107418Y557199D01*
X107685Y556742D01*
X107941Y556277D01*
X108185Y555807D01*
X108417Y555331D01*
X108638Y554849D01*
X108847Y554362D01*
X109043Y553870D01*
X109228Y553373D01*
X109400Y552872D01*
X109560Y552367D01*
X109708Y551858D01*
X109843Y551346D01*
X109965Y550830D01*
X110075Y550312D01*
X110172Y549791D01*
X110256Y549268D01*
X110328Y548743D01*
X110386Y548216D01*
X110432Y547688D01*
X110464Y547159D01*
X110483Y546630D01*
X110490Y546100D01*
X110483Y545570D01*
X110464Y545041D01*
X110432Y544512D01*
X110386Y543984D01*
X110328Y543457D01*
X110256Y542932D01*
X110172Y542409D01*
X110075Y541888D01*
X109965Y541370D01*
X109843Y540854D01*
X109708Y540342D01*
X109560Y539833D01*
X109400Y539328D01*
X109228Y538827D01*
X109043Y538330D01*
X108847Y537838D01*
X108638Y537351D01*
X108417Y536869D01*
X108185Y536393D01*
X107941Y535923D01*
X107685Y535458D01*
X107418Y535001D01*
X107140Y534549D01*
X106851Y534105D01*
X106552Y533668D01*
X106241Y533239D01*
X105920Y532817D01*
X105589Y532403D01*
X105248Y531998D01*
X104897Y531601D01*
X104536Y531213D01*
X104166Y530834D01*
X103787Y530464D01*
X103399Y530103D01*
X103002Y529752D01*
X102597Y529411D01*
X102183Y529080D01*
X101761Y528759D01*
X101332Y528448D01*
X100895Y528149D01*
X100451Y527860D01*
X99999Y527582D01*
X99542Y527315D01*
X99077Y527059D01*
X98607Y526815D01*
X98131Y526583D01*
X97649Y526362D01*
X97162Y526153D01*
X96670Y525957D01*
X96173Y525772D01*
X95672Y525600D01*
X95167Y525440D01*
X94658Y525292D01*
X94146Y525157D01*
X93630Y525035D01*
X93112Y524925D01*
X92591Y524828D01*
X92068Y524744D01*
X91543Y524672D01*
X91016Y524614D01*
X90488Y524568D01*
X89959Y524536D01*
X89430Y524517D01*
X88900Y524510D01*
X88370Y524517D01*
X87841Y524536D01*
X87312Y524568D01*
X86784Y524614D01*
X86257Y524672D01*
X85732Y524744D01*
X85209Y524828D01*
X84688Y524925D01*
X84170Y525035D01*
X83654Y525157D01*
X83142Y525292D01*
X82633Y525440D01*
X82128Y525600D01*
X81627Y525772D01*
X81130Y525957D01*
X80638Y526153D01*
X80151Y526362D01*
X79669Y526583D01*
X79193Y526815D01*
X78723Y527059D01*
X78258Y527315D01*
X77801Y527582D01*
X77349Y527860D01*
X76905Y528149D01*
X76468Y528448D01*
X76039Y528759D01*
X75617Y529080D01*
X75203Y529411D01*
X74798Y529752D01*
X74401Y530103D01*
X74013Y530464D01*
X73634Y530834D01*
X73264Y531213D01*
X72903Y531601D01*
X72552Y531998D01*
X72211Y532403D01*
X71880Y532817D01*
X71559Y533239D01*
X71248Y533668D01*
X70949Y534105D01*
X70660Y534549D01*
X70382Y535001D01*
X70115Y535458D01*
X69859Y535923D01*
X69615Y536393D01*
X69383Y536869D01*
X69162Y537351D01*
X68953Y537838D01*
X68757Y538330D01*
X68572Y538827D01*
X68400Y539328D01*
X68240Y539833D01*
X68092Y540342D01*
X67957Y540854D01*
X67835Y541370D01*
X67725Y541888D01*
X67628Y542409D01*
X67544Y542932D01*
X67472Y543457D01*
X67414Y543984D01*
X67368Y544512D01*
X67336Y545041D01*
X67317Y545570D01*
X67310Y546100D01*
X33020Y581660D02*
X27940Y581660D01*
X30480Y584200D02*
X30480Y579120D01*
X21590Y581660D02*
X16510Y581660D01*
X3810Y596900D02*
X3817Y597430D01*
X3836Y597959D01*
X3868Y598488D01*
X3914Y599016D01*
X3972Y599543D01*
X4044Y600068D01*
X4128Y600591D01*
X4225Y601112D01*
X4335Y601630D01*
X4457Y602146D01*
X4592Y602658D01*
X4740Y603167D01*
X4900Y603672D01*
X5072Y604173D01*
X5257Y604670D01*
X5453Y605162D01*
X5662Y605649D01*
X5883Y606131D01*
X6115Y606607D01*
X6359Y607077D01*
X6615Y607542D01*
X6882Y607999D01*
X7160Y608451D01*
X7449Y608895D01*
X7748Y609332D01*
X8059Y609761D01*
X8380Y610183D01*
X8711Y610597D01*
X9052Y611002D01*
X9403Y611399D01*
X9764Y611787D01*
X10134Y612166D01*
X10513Y612536D01*
X10901Y612897D01*
X11298Y613248D01*
X11703Y613589D01*
X12117Y613920D01*
X12539Y614241D01*
X12968Y614552D01*
X13405Y614851D01*
X13849Y615140D01*
X14301Y615418D01*
X14758Y615685D01*
X15223Y615941D01*
X15693Y616185D01*
X16169Y616417D01*
X16651Y616638D01*
X17138Y616847D01*
X17630Y617043D01*
X18127Y617228D01*
X18628Y617400D01*
X19133Y617560D01*
X19642Y617708D01*
X20154Y617843D01*
X20670Y617965D01*
X21188Y618075D01*
X21709Y618172D01*
X22232Y618256D01*
X22757Y618328D01*
X23284Y618386D01*
X23812Y618432D01*
X24341Y618464D01*
X24870Y618483D01*
X25400Y618490D01*
X25930Y618483D01*
X26459Y618464D01*
X26988Y618432D01*
X27516Y618386D01*
X28043Y618328D01*
X28568Y618256D01*
X29091Y618172D01*
X29612Y618075D01*
X30130Y617965D01*
X30646Y617843D01*
X31158Y617708D01*
X31667Y617560D01*
X32172Y617400D01*
X32673Y617228D01*
X33170Y617043D01*
X33662Y616847D01*
X34149Y616638D01*
X34631Y616417D01*
X35107Y616185D01*
X35577Y615941D01*
X36042Y615685D01*
X36499Y615418D01*
X36951Y615140D01*
X37395Y614851D01*
X37832Y614552D01*
X38261Y614241D01*
X38683Y613920D01*
X39097Y613589D01*
X39502Y613248D01*
X39899Y612897D01*
X40287Y612536D01*
X40666Y612166D01*
X41036Y611787D01*
X41397Y611399D01*
X41748Y611002D01*
X42089Y610597D01*
X42420Y610183D01*
X42741Y609761D01*
X43052Y609332D01*
X43351Y608895D01*
X43640Y608451D01*
X43918Y607999D01*
X44185Y607542D01*
X44441Y607077D01*
X44685Y606607D01*
X44917Y606131D01*
X45138Y605649D01*
X45347Y605162D01*
X45543Y604670D01*
X45728Y604173D01*
X45900Y603672D01*
X46060Y603167D01*
X46208Y602658D01*
X46343Y602146D01*
X46465Y601630D01*
X46575Y601112D01*
X46672Y600591D01*
X46756Y600068D01*
X46828Y599543D01*
X46886Y599016D01*
X46932Y598488D01*
X46964Y597959D01*
X46983Y597430D01*
X46990Y596900D01*
X46983Y596370D01*
X46964Y595841D01*
X46932Y595312D01*
X46886Y594784D01*
X46828Y594257D01*
X46756Y593732D01*
X46672Y593209D01*
X46575Y592688D01*
X46465Y592170D01*
X46343Y591654D01*
X46208Y591142D01*
X46060Y590633D01*
X45900Y590128D01*
X45728Y589627D01*
X45543Y589130D01*
X45347Y588638D01*
X45138Y588151D01*
X44917Y587669D01*
X44685Y587193D01*
X44441Y586723D01*
X44185Y586258D01*
X43918Y585801D01*
X43640Y585349D01*
X43351Y584905D01*
X43052Y584468D01*
X42741Y584039D01*
X42420Y583617D01*
X42089Y583203D01*
X41748Y582798D01*
X41397Y582401D01*
X41036Y582013D01*
X40666Y581634D01*
X40287Y581264D01*
X39899Y580903D01*
X39502Y580552D01*
X39097Y580211D01*
X38683Y579880D01*
X38261Y579559D01*
X37832Y579248D01*
X37395Y578949D01*
X36951Y578660D01*
X36499Y578382D01*
X36042Y578115D01*
X35577Y577859D01*
X35107Y577615D01*
X34631Y577383D01*
X34149Y577162D01*
X33662Y576953D01*
X33170Y576757D01*
X32673Y576572D01*
X32172Y576400D01*
X31667Y576240D01*
X31158Y576092D01*
X30646Y575957D01*
X30130Y575835D01*
X29612Y575725D01*
X29091Y575628D01*
X28568Y575544D01*
X28043Y575472D01*
X27516Y575414D01*
X26988Y575368D01*
X26459Y575336D01*
X25930Y575317D01*
X25400Y575310D01*
X24870Y575317D01*
X24341Y575336D01*
X23812Y575368D01*
X23284Y575414D01*
X22757Y575472D01*
X22232Y575544D01*
X21709Y575628D01*
X21188Y575725D01*
X20670Y575835D01*
X20154Y575957D01*
X19642Y576092D01*
X19133Y576240D01*
X18628Y576400D01*
X18127Y576572D01*
X17630Y576757D01*
X17138Y576953D01*
X16651Y577162D01*
X16169Y577383D01*
X15693Y577615D01*
X15223Y577859D01*
X14758Y578115D01*
X14301Y578382D01*
X13849Y578660D01*
X13405Y578949D01*
X12968Y579248D01*
X12539Y579559D01*
X12117Y579880D01*
X11703Y580211D01*
X11298Y580552D01*
X10901Y580903D01*
X10513Y581264D01*
X10134Y581634D01*
X9764Y582013D01*
X9403Y582401D01*
X9052Y582798D01*
X8711Y583203D01*
X8380Y583617D01*
X8059Y584039D01*
X7748Y584468D01*
X7449Y584905D01*
X7160Y585349D01*
X6882Y585801D01*
X6615Y586258D01*
X6359Y586723D01*
X6115Y587193D01*
X5883Y587669D01*
X5662Y588151D01*
X5453Y588638D01*
X5257Y589130D01*
X5072Y589627D01*
X4900Y590128D01*
X4740Y590633D01*
X4592Y591142D01*
X4457Y591654D01*
X4335Y592170D01*
X4225Y592688D01*
X4128Y593209D01*
X4044Y593732D01*
X3972Y594257D01*
X3914Y594784D01*
X3868Y595312D01*
X3836Y595841D01*
X3817Y596370D01*
X3810Y596900D01*
X40640Y58420D02*
X40640Y53340D01*
X38100Y55880D02*
X43180Y55880D01*
X40640Y46990D02*
X40640Y41910D01*
X3810Y50800D02*
X3817Y51330D01*
X3836Y51859D01*
X3868Y52388D01*
X3914Y52916D01*
X3972Y53443D01*
X4044Y53968D01*
X4128Y54491D01*
X4225Y55012D01*
X4335Y55530D01*
X4457Y56046D01*
X4592Y56558D01*
X4740Y57067D01*
X4900Y57572D01*
X5072Y58073D01*
X5257Y58570D01*
X5453Y59062D01*
X5662Y59549D01*
X5883Y60031D01*
X6115Y60507D01*
X6359Y60977D01*
X6615Y61442D01*
X6882Y61899D01*
X7160Y62351D01*
X7449Y62795D01*
X7748Y63232D01*
X8059Y63661D01*
X8380Y64083D01*
X8711Y64497D01*
X9052Y64902D01*
X9403Y65299D01*
X9764Y65687D01*
X10134Y66066D01*
X10513Y66436D01*
X10901Y66797D01*
X11298Y67148D01*
X11703Y67489D01*
X12117Y67820D01*
X12539Y68141D01*
X12968Y68452D01*
X13405Y68751D01*
X13849Y69040D01*
X14301Y69318D01*
X14758Y69585D01*
X15223Y69841D01*
X15693Y70085D01*
X16169Y70317D01*
X16651Y70538D01*
X17138Y70747D01*
X17630Y70943D01*
X18127Y71128D01*
X18628Y71300D01*
X19133Y71460D01*
X19642Y71608D01*
X20154Y71743D01*
X20670Y71865D01*
X21188Y71975D01*
X21709Y72072D01*
X22232Y72156D01*
X22757Y72228D01*
X23284Y72286D01*
X23812Y72332D01*
X24341Y72364D01*
X24870Y72383D01*
X25400Y72390D01*
X25930Y72383D01*
X26459Y72364D01*
X26988Y72332D01*
X27516Y72286D01*
X28043Y72228D01*
X28568Y72156D01*
X29091Y72072D01*
X29612Y71975D01*
X30130Y71865D01*
X30646Y71743D01*
X31158Y71608D01*
X31667Y71460D01*
X32172Y71300D01*
X32673Y71128D01*
X33170Y70943D01*
X33662Y70747D01*
X34149Y70538D01*
X34631Y70317D01*
X35107Y70085D01*
X35577Y69841D01*
X36042Y69585D01*
X36499Y69318D01*
X36951Y69040D01*
X37395Y68751D01*
X37832Y68452D01*
X38261Y68141D01*
X38683Y67820D01*
X39097Y67489D01*
X39502Y67148D01*
X39899Y66797D01*
X40287Y66436D01*
X40666Y66066D01*
X41036Y65687D01*
X41397Y65299D01*
X41748Y64902D01*
X42089Y64497D01*
X42420Y64083D01*
X42741Y63661D01*
X43052Y63232D01*
X43351Y62795D01*
X43640Y62351D01*
X43918Y61899D01*
X44185Y61442D01*
X44441Y60977D01*
X44685Y60507D01*
X44917Y60031D01*
X45138Y59549D01*
X45347Y59062D01*
X45543Y58570D01*
X45728Y58073D01*
X45900Y57572D01*
X46060Y57067D01*
X46208Y56558D01*
X46343Y56046D01*
X46465Y55530D01*
X46575Y55012D01*
X46672Y54491D01*
X46756Y53968D01*
X46828Y53443D01*
X46886Y52916D01*
X46932Y52388D01*
X46964Y51859D01*
X46983Y51330D01*
X46990Y50800D01*
X46983Y50270D01*
X46964Y49741D01*
X46932Y49212D01*
X46886Y48684D01*
X46828Y48157D01*
X46756Y47632D01*
X46672Y47109D01*
X46575Y46588D01*
X46465Y46070D01*
X46343Y45554D01*
X46208Y45042D01*
X46060Y44533D01*
X45900Y44028D01*
X45728Y43527D01*
X45543Y43030D01*
X45347Y42538D01*
X45138Y42051D01*
X44917Y41569D01*
X44685Y41093D01*
X44441Y40623D01*
X44185Y40158D01*
X43918Y39701D01*
X43640Y39249D01*
X43351Y38805D01*
X43052Y38368D01*
X42741Y37939D01*
X42420Y37517D01*
X42089Y37103D01*
X41748Y36698D01*
X41397Y36301D01*
X41036Y35913D01*
X40666Y35534D01*
X40287Y35164D01*
X39899Y34803D01*
X39502Y34452D01*
X39097Y34111D01*
X38683Y33780D01*
X38261Y33459D01*
X37832Y33148D01*
X37395Y32849D01*
X36951Y32560D01*
X36499Y32282D01*
X36042Y32015D01*
X35577Y31759D01*
X35107Y31515D01*
X34631Y31283D01*
X34149Y31062D01*
X33662Y30853D01*
X33170Y30657D01*
X32673Y30472D01*
X32172Y30300D01*
X31667Y30140D01*
X31158Y29992D01*
X30646Y29857D01*
X30130Y29735D01*
X29612Y29625D01*
X29091Y29528D01*
X28568Y29444D01*
X28043Y29372D01*
X27516Y29314D01*
X26988Y29268D01*
X26459Y29236D01*
X25930Y29217D01*
X25400Y29210D01*
X24870Y29217D01*
X24341Y29236D01*
X23812Y29268D01*
X23284Y29314D01*
X22757Y29372D01*
X22232Y29444D01*
X21709Y29528D01*
X21188Y29625D01*
X20670Y29735D01*
X20154Y29857D01*
X19642Y29992D01*
X19133Y30140D01*
X18628Y30300D01*
X18127Y30472D01*
X17630Y30657D01*
X17138Y30853D01*
X16651Y31062D01*
X16169Y31283D01*
X15693Y31515D01*
X15223Y31759D01*
X14758Y32015D01*
X14301Y32282D01*
X13849Y32560D01*
X13405Y32849D01*
X12968Y33148D01*
X12539Y33459D01*
X12117Y33780D01*
X11703Y34111D01*
X11298Y34452D01*
X10901Y34803D01*
X10513Y35164D01*
X10134Y35534D01*
X9764Y35913D01*
X9403Y36301D01*
X9052Y36698D01*
X8711Y37103D01*
X8380Y37517D01*
X8059Y37939D01*
X7748Y38368D01*
X7449Y38805D01*
X7160Y39249D01*
X6882Y39701D01*
X6615Y40158D01*
X6359Y40623D01*
X6115Y41093D01*
X5883Y41569D01*
X5662Y42051D01*
X5453Y42538D01*
X5257Y43030D01*
X5072Y43527D01*
X4900Y44028D01*
X4740Y44533D01*
X4592Y45042D01*
X4457Y45554D01*
X4335Y46070D01*
X4225Y46588D01*
X4128Y47109D01*
X4044Y47632D01*
X3972Y48157D01*
X3914Y48684D01*
X3868Y49212D01*
X3836Y49741D01*
X3817Y50270D01*
X3810Y50800D01*
X17780Y396240D02*
X22860Y396240D01*
X20320Y393700D02*
X20320Y398780D01*
X29210Y396240D02*
X34290Y396240D01*
X3810Y381000D02*
X3817Y381530D01*
X3836Y382059D01*
X3868Y382588D01*
X3914Y383116D01*
X3972Y383643D01*
X4044Y384168D01*
X4128Y384691D01*
X4225Y385212D01*
X4335Y385730D01*
X4457Y386246D01*
X4592Y386758D01*
X4740Y387267D01*
X4900Y387772D01*
X5072Y388273D01*
X5257Y388770D01*
X5453Y389262D01*
X5662Y389749D01*
X5883Y390231D01*
X6115Y390707D01*
X6359Y391177D01*
X6615Y391642D01*
X6882Y392099D01*
X7160Y392551D01*
X7449Y392995D01*
X7748Y393432D01*
X8059Y393861D01*
X8380Y394283D01*
X8711Y394697D01*
X9052Y395102D01*
X9403Y395499D01*
X9764Y395887D01*
X10134Y396266D01*
X10513Y396636D01*
X10901Y396997D01*
X11298Y397348D01*
X11703Y397689D01*
X12117Y398020D01*
X12539Y398341D01*
X12968Y398652D01*
X13405Y398951D01*
X13849Y399240D01*
X14301Y399518D01*
X14758Y399785D01*
X15223Y400041D01*
X15693Y400285D01*
X16169Y400517D01*
X16651Y400738D01*
X17138Y400947D01*
X17630Y401143D01*
X18127Y401328D01*
X18628Y401500D01*
X19133Y401660D01*
X19642Y401808D01*
X20154Y401943D01*
X20670Y402065D01*
X21188Y402175D01*
X21709Y402272D01*
X22232Y402356D01*
X22757Y402428D01*
X23284Y402486D01*
X23812Y402532D01*
X24341Y402564D01*
X24870Y402583D01*
X25400Y402590D01*
X25930Y402583D01*
X26459Y402564D01*
X26988Y402532D01*
X27516Y402486D01*
X28043Y402428D01*
X28568Y402356D01*
X29091Y402272D01*
X29612Y402175D01*
X30130Y402065D01*
X30646Y401943D01*
X31158Y401808D01*
X31667Y401660D01*
X32172Y401500D01*
X32673Y401328D01*
X33170Y401143D01*
X33662Y400947D01*
X34149Y400738D01*
X34631Y400517D01*
X35107Y400285D01*
X35577Y400041D01*
X36042Y399785D01*
X36499Y399518D01*
X36951Y399240D01*
X37395Y398951D01*
X37832Y398652D01*
X38261Y398341D01*
X38683Y398020D01*
X39097Y397689D01*
X39502Y397348D01*
X39899Y396997D01*
X40287Y396636D01*
X40666Y396266D01*
X41036Y395887D01*
X41397Y395499D01*
X41748Y395102D01*
X42089Y394697D01*
X42420Y394283D01*
X42741Y393861D01*
X43052Y393432D01*
X43351Y392995D01*
X43640Y392551D01*
X43918Y392099D01*
X44185Y391642D01*
X44441Y391177D01*
X44685Y390707D01*
X44917Y390231D01*
X45138Y389749D01*
X45347Y389262D01*
X45543Y388770D01*
X45728Y388273D01*
X45900Y387772D01*
X46060Y387267D01*
X46208Y386758D01*
X46343Y386246D01*
X46465Y385730D01*
X46575Y385212D01*
X46672Y384691D01*
X46756Y384168D01*
X46828Y383643D01*
X46886Y383116D01*
X46932Y382588D01*
X46964Y382059D01*
X46983Y381530D01*
X46990Y381000D01*
X46983Y380470D01*
X46964Y379941D01*
X46932Y379412D01*
X46886Y378884D01*
X46828Y378357D01*
X46756Y377832D01*
X46672Y377309D01*
X46575Y376788D01*
X46465Y376270D01*
X46343Y375754D01*
X46208Y375242D01*
X46060Y374733D01*
X45900Y374228D01*
X45728Y373727D01*
X45543Y373230D01*
X45347Y372738D01*
X45138Y372251D01*
X44917Y371769D01*
X44685Y371293D01*
X44441Y370823D01*
X44185Y370358D01*
X43918Y369901D01*
X43640Y369449D01*
X43351Y369005D01*
X43052Y368568D01*
X42741Y368139D01*
X42420Y367717D01*
X42089Y367303D01*
X41748Y366898D01*
X41397Y366501D01*
X41036Y366113D01*
X40666Y365734D01*
X40287Y365364D01*
X39899Y365003D01*
X39502Y364652D01*
X39097Y364311D01*
X38683Y363980D01*
X38261Y363659D01*
X37832Y363348D01*
X37395Y363049D01*
X36951Y362760D01*
X36499Y362482D01*
X36042Y362215D01*
X35577Y361959D01*
X35107Y361715D01*
X34631Y361483D01*
X34149Y361262D01*
X33662Y361053D01*
X33170Y360857D01*
X32673Y360672D01*
X32172Y360500D01*
X31667Y360340D01*
X31158Y360192D01*
X30646Y360057D01*
X30130Y359935D01*
X29612Y359825D01*
X29091Y359728D01*
X28568Y359644D01*
X28043Y359572D01*
X27516Y359514D01*
X26988Y359468D01*
X26459Y359436D01*
X25930Y359417D01*
X25400Y359410D01*
X24870Y359417D01*
X24341Y359436D01*
X23812Y359468D01*
X23284Y359514D01*
X22757Y359572D01*
X22232Y359644D01*
X21709Y359728D01*
X21188Y359825D01*
X20670Y359935D01*
X20154Y360057D01*
X19642Y360192D01*
X19133Y360340D01*
X18628Y360500D01*
X18127Y360672D01*
X17630Y360857D01*
X17138Y361053D01*
X16651Y361262D01*
X16169Y361483D01*
X15693Y361715D01*
X15223Y361959D01*
X14758Y362215D01*
X14301Y362482D01*
X13849Y362760D01*
X13405Y363049D01*
X12968Y363348D01*
X12539Y363659D01*
X12117Y363980D01*
X11703Y364311D01*
X11298Y364652D01*
X10901Y365003D01*
X10513Y365364D01*
X10134Y365734D01*
X9764Y366113D01*
X9403Y366501D01*
X9052Y366898D01*
X8711Y367303D01*
X8380Y367717D01*
X8059Y368139D01*
X7748Y368568D01*
X7449Y369005D01*
X7160Y369449D01*
X6882Y369901D01*
X6615Y370358D01*
X6359Y370823D01*
X6115Y371293D01*
X5883Y371769D01*
X5662Y372251D01*
X5453Y372738D01*
X5257Y373230D01*
X5072Y373727D01*
X4900Y374228D01*
X4740Y374733D01*
X4592Y375242D01*
X4457Y375754D01*
X4335Y376270D01*
X4225Y376788D01*
X4128Y377309D01*
X4044Y377832D01*
X3972Y378357D01*
X3914Y378884D01*
X3868Y379412D01*
X3836Y379941D01*
X3817Y380470D01*
X3810Y381000D01*
X304800Y552450D02*
X311150Y558800D01*
X304800Y552450D02*
X304800Y539750D01*
X311150Y533400D01*
X304800Y527050D01*
X304800Y514350D01*
X311150Y508000D01*
X304800Y501650D01*
X304800Y488950D01*
X311150Y482600D01*
X304800Y476250D01*
X304800Y463550D01*
X311150Y457200D01*
X304800Y450850D01*
X304800Y438150D01*
X311150Y431800D01*
X304800Y425450D01*
X304800Y412750D01*
X311150Y406400D01*
X311150Y558800D02*
X349250Y558800D01*
X355600Y552450D01*
X355600Y539750D01*
X349250Y533400D01*
X355600Y527050D01*
X355600Y514350D01*
X349250Y508000D01*
X355600Y501650D01*
X355600Y488950D01*
X349250Y482600D01*
X355600Y476250D01*
X355600Y463550D01*
X349250Y457200D01*
X355600Y450850D01*
X355600Y438150D01*
X349250Y431800D01*
X355600Y425450D01*
X355600Y412750D01*
X349250Y406400D01*
X355600Y400050D01*
X355600Y387350D01*
X349250Y381000D01*
X355600Y374650D01*
X355600Y361950D01*
X349250Y355600D01*
X355600Y349250D01*
X355600Y336550D01*
X349250Y330200D01*
X355600Y323850D01*
X355600Y311150D01*
X349250Y304800D01*
X355600Y298450D01*
X355600Y285750D01*
X349250Y279400D01*
X355600Y273050D01*
X355600Y260350D01*
X349250Y254000D01*
X355600Y247650D01*
X355600Y234950D01*
X349250Y228600D01*
X355600Y222250D01*
X355600Y209550D01*
X349250Y203200D01*
X355600Y196850D01*
X355600Y184150D01*
X349250Y177800D01*
X355600Y171450D01*
X355600Y158750D01*
X349250Y152400D01*
X355600Y146050D01*
X355600Y133350D01*
X349250Y127000D01*
X355600Y120650D01*
X355600Y107950D01*
X349250Y101600D01*
X355600Y95250D01*
X355600Y82550D01*
X349250Y76200D01*
X311150Y76200D02*
X304800Y82550D01*
X304800Y95250D01*
X311150Y101600D01*
X304800Y107950D01*
X304800Y120650D01*
X311150Y127000D01*
X304800Y133350D01*
X304800Y146050D01*
X311150Y152400D01*
X304800Y158750D01*
X304800Y171450D01*
X311150Y177800D01*
X304800Y184150D01*
X304800Y196850D01*
X311150Y203200D01*
X304800Y209550D01*
X304800Y222250D01*
X311150Y228600D01*
X304800Y234950D01*
X304800Y247650D01*
X311150Y254000D01*
X304800Y260350D01*
X304800Y273050D01*
X311150Y279400D01*
X304800Y285750D01*
X304800Y298450D01*
X311150Y304800D01*
X304800Y311150D01*
X304800Y323850D01*
X311150Y330200D01*
X304800Y336550D01*
X304800Y349250D01*
X311150Y355600D01*
X304800Y361950D01*
X304800Y374650D01*
X311150Y381000D01*
X304800Y387350D01*
X304800Y400050D01*
X311150Y406400D01*
X311150Y533400D02*
X349250Y533400D01*
X349250Y508000D02*
X311150Y508000D01*
X311150Y482600D02*
X349250Y482600D01*
X349250Y457200D02*
X311150Y457200D01*
X311150Y431800D02*
X349250Y431800D01*
X349250Y406400D02*
X311150Y406400D01*
X311150Y381000D02*
X349250Y381000D01*
X349250Y355600D02*
X311150Y355600D01*
X311150Y330200D02*
X349250Y330200D01*
X349250Y304800D02*
X311150Y304800D01*
X311150Y279400D02*
X349250Y279400D01*
X349250Y254000D02*
X311150Y254000D01*
X311150Y228600D02*
X349250Y228600D01*
X349250Y203200D02*
X311150Y203200D01*
X311150Y177800D02*
X349250Y177800D01*
X349250Y152400D02*
X311150Y152400D01*
X311150Y127000D02*
X349250Y127000D01*
X349250Y101600D02*
X311150Y101600D01*
X311150Y76200D02*
X349250Y76200D01*
X355600Y69850D01*
X355600Y57150D01*
X349250Y50800D01*
X311150Y50800D02*
X304800Y57150D01*
X304800Y69850D01*
X311150Y76200D01*
X311150Y50800D02*
X349250Y50800D01*
D12*
X367665Y526161D02*
X367665Y528066D01*
X374015Y528066D01*
X374015Y524256D01*
X374013Y524156D01*
X374007Y524057D01*
X373997Y523957D01*
X373984Y523859D01*
X373966Y523760D01*
X373945Y523663D01*
X373920Y523567D01*
X373891Y523471D01*
X373858Y523377D01*
X373822Y523284D01*
X373782Y523193D01*
X373738Y523103D01*
X373691Y523015D01*
X373641Y522929D01*
X373587Y522845D01*
X373530Y522763D01*
X373470Y522684D01*
X373406Y522606D01*
X373340Y522532D01*
X373271Y522460D01*
X373199Y522391D01*
X373125Y522325D01*
X373047Y522261D01*
X372968Y522201D01*
X372886Y522144D01*
X372802Y522090D01*
X372716Y522040D01*
X372628Y521993D01*
X372538Y521949D01*
X372447Y521909D01*
X372354Y521873D01*
X372260Y521840D01*
X372164Y521811D01*
X372068Y521786D01*
X371971Y521765D01*
X371872Y521747D01*
X371774Y521734D01*
X371674Y521724D01*
X371575Y521718D01*
X371475Y521716D01*
X365125Y521716D01*
X365025Y521718D01*
X364926Y521724D01*
X364826Y521734D01*
X364728Y521747D01*
X364629Y521765D01*
X364532Y521786D01*
X364436Y521811D01*
X364340Y521840D01*
X364246Y521873D01*
X364153Y521909D01*
X364062Y521949D01*
X363972Y521993D01*
X363884Y522040D01*
X363798Y522090D01*
X363714Y522144D01*
X363632Y522201D01*
X363553Y522261D01*
X363475Y522325D01*
X363401Y522391D01*
X363329Y522460D01*
X363260Y522532D01*
X363194Y522606D01*
X363130Y522684D01*
X363070Y522763D01*
X363013Y522845D01*
X362959Y522929D01*
X362909Y523015D01*
X362862Y523103D01*
X362818Y523193D01*
X362778Y523284D01*
X362742Y523377D01*
X362709Y523471D01*
X362680Y523567D01*
X362655Y523663D01*
X362634Y523760D01*
X362616Y523859D01*
X362603Y523957D01*
X362593Y524057D01*
X362587Y524156D01*
X362585Y524256D01*
X362585Y528066D01*
X362585Y534099D02*
X374015Y534099D01*
X362585Y534099D02*
X362585Y537274D01*
X362587Y537385D01*
X362593Y537495D01*
X362602Y537606D01*
X362616Y537716D01*
X362633Y537825D01*
X362654Y537934D01*
X362679Y538042D01*
X362708Y538149D01*
X362740Y538255D01*
X362776Y538360D01*
X362816Y538463D01*
X362859Y538565D01*
X362906Y538666D01*
X362957Y538765D01*
X363010Y538862D01*
X363067Y538956D01*
X363128Y539049D01*
X363191Y539140D01*
X363258Y539229D01*
X363328Y539315D01*
X363401Y539398D01*
X363476Y539480D01*
X363554Y539558D01*
X363636Y539633D01*
X363719Y539706D01*
X363805Y539776D01*
X363894Y539843D01*
X363985Y539906D01*
X364078Y539967D01*
X364173Y540024D01*
X364269Y540077D01*
X364368Y540128D01*
X364469Y540175D01*
X364571Y540218D01*
X364674Y540258D01*
X364779Y540294D01*
X364885Y540326D01*
X364992Y540355D01*
X365100Y540380D01*
X365209Y540401D01*
X365318Y540418D01*
X365428Y540432D01*
X365539Y540441D01*
X365649Y540447D01*
X365760Y540449D01*
X365871Y540447D01*
X365981Y540441D01*
X366092Y540432D01*
X366202Y540418D01*
X366311Y540401D01*
X366420Y540380D01*
X366528Y540355D01*
X366635Y540326D01*
X366741Y540294D01*
X366846Y540258D01*
X366949Y540218D01*
X367051Y540175D01*
X367152Y540128D01*
X367251Y540077D01*
X367348Y540024D01*
X367442Y539967D01*
X367535Y539906D01*
X367626Y539843D01*
X367715Y539776D01*
X367801Y539706D01*
X367884Y539633D01*
X367966Y539558D01*
X368044Y539480D01*
X368119Y539398D01*
X368192Y539315D01*
X368262Y539229D01*
X368329Y539140D01*
X368392Y539049D01*
X368453Y538956D01*
X368510Y538862D01*
X368563Y538765D01*
X368614Y538666D01*
X368661Y538565D01*
X368704Y538463D01*
X368744Y538360D01*
X368780Y538255D01*
X368812Y538149D01*
X368841Y538042D01*
X368866Y537934D01*
X368887Y537825D01*
X368904Y537716D01*
X368918Y537606D01*
X368927Y537495D01*
X368933Y537385D01*
X368935Y537274D01*
X368935Y534099D01*
X374015Y545846D02*
X362585Y545846D01*
X374015Y544576D02*
X374015Y547116D01*
X362585Y547116D02*
X362585Y544576D01*
X365760Y551815D02*
X370840Y551815D01*
X365760Y551815D02*
X365649Y551817D01*
X365539Y551823D01*
X365428Y551832D01*
X365318Y551846D01*
X365209Y551863D01*
X365100Y551884D01*
X364992Y551909D01*
X364885Y551938D01*
X364779Y551970D01*
X364674Y552006D01*
X364571Y552046D01*
X364469Y552089D01*
X364368Y552136D01*
X364269Y552187D01*
X364173Y552240D01*
X364078Y552297D01*
X363985Y552358D01*
X363894Y552421D01*
X363805Y552488D01*
X363719Y552558D01*
X363636Y552631D01*
X363554Y552706D01*
X363476Y552784D01*
X363401Y552866D01*
X363328Y552949D01*
X363258Y553035D01*
X363191Y553124D01*
X363128Y553215D01*
X363067Y553308D01*
X363010Y553403D01*
X362957Y553499D01*
X362906Y553598D01*
X362859Y553699D01*
X362816Y553801D01*
X362776Y553904D01*
X362740Y554009D01*
X362708Y554115D01*
X362679Y554222D01*
X362654Y554330D01*
X362633Y554439D01*
X362616Y554548D01*
X362602Y554658D01*
X362593Y554769D01*
X362587Y554879D01*
X362585Y554990D01*
X362587Y555101D01*
X362593Y555211D01*
X362602Y555322D01*
X362616Y555432D01*
X362633Y555541D01*
X362654Y555650D01*
X362679Y555758D01*
X362708Y555865D01*
X362740Y555971D01*
X362776Y556076D01*
X362816Y556179D01*
X362859Y556281D01*
X362906Y556382D01*
X362957Y556481D01*
X363010Y556578D01*
X363067Y556672D01*
X363128Y556765D01*
X363191Y556856D01*
X363258Y556945D01*
X363328Y557031D01*
X363401Y557114D01*
X363476Y557196D01*
X363554Y557274D01*
X363636Y557349D01*
X363719Y557422D01*
X363805Y557492D01*
X363894Y557559D01*
X363985Y557622D01*
X364078Y557683D01*
X364173Y557740D01*
X364269Y557793D01*
X364368Y557844D01*
X364469Y557891D01*
X364571Y557934D01*
X364674Y557974D01*
X364779Y558010D01*
X364885Y558042D01*
X364992Y558071D01*
X365100Y558096D01*
X365209Y558117D01*
X365318Y558134D01*
X365428Y558148D01*
X365539Y558157D01*
X365649Y558163D01*
X365760Y558165D01*
X370840Y558165D01*
X370951Y558163D01*
X371061Y558157D01*
X371172Y558148D01*
X371282Y558134D01*
X371391Y558117D01*
X371500Y558096D01*
X371608Y558071D01*
X371715Y558042D01*
X371821Y558010D01*
X371926Y557974D01*
X372029Y557934D01*
X372131Y557891D01*
X372232Y557844D01*
X372331Y557793D01*
X372428Y557740D01*
X372522Y557683D01*
X372615Y557622D01*
X372706Y557559D01*
X372795Y557492D01*
X372881Y557422D01*
X372964Y557349D01*
X373046Y557274D01*
X373124Y557196D01*
X373199Y557114D01*
X373272Y557031D01*
X373342Y556945D01*
X373409Y556856D01*
X373472Y556765D01*
X373533Y556672D01*
X373590Y556577D01*
X373643Y556481D01*
X373694Y556382D01*
X373741Y556281D01*
X373784Y556179D01*
X373824Y556076D01*
X373860Y555971D01*
X373892Y555865D01*
X373921Y555758D01*
X373946Y555650D01*
X373967Y555541D01*
X373984Y555432D01*
X373998Y555322D01*
X374007Y555211D01*
X374013Y555101D01*
X374015Y554990D01*
X374013Y554879D01*
X374007Y554769D01*
X373998Y554658D01*
X373984Y554548D01*
X373967Y554439D01*
X373946Y554330D01*
X373921Y554222D01*
X373892Y554115D01*
X373860Y554009D01*
X373824Y553904D01*
X373784Y553801D01*
X373741Y553699D01*
X373694Y553598D01*
X373643Y553499D01*
X373590Y553403D01*
X373533Y553308D01*
X373472Y553215D01*
X373409Y553124D01*
X373342Y553035D01*
X373272Y552949D01*
X373199Y552866D01*
X373124Y552784D01*
X373046Y552706D01*
X372964Y552631D01*
X372881Y552558D01*
X372795Y552488D01*
X372706Y552421D01*
X372615Y552358D01*
X372522Y552297D01*
X372428Y552240D01*
X372331Y552187D01*
X372232Y552136D01*
X372131Y552089D01*
X372029Y552046D01*
X371926Y552006D01*
X371821Y551970D01*
X371715Y551938D01*
X371608Y551909D01*
X371500Y551884D01*
X371391Y551863D01*
X371282Y551846D01*
X371172Y551832D01*
X371061Y551823D01*
X370951Y551817D01*
X370840Y551815D01*
D10*
X241300Y600710D02*
X139700Y600710D01*
X139700Y542290D02*
X241300Y542290D01*
X241300Y600710D01*
X139700Y600710D02*
X139700Y581660D01*
X139700Y561340D02*
X139700Y542290D01*
X139700Y561340D02*
X139947Y561343D01*
X140195Y561352D01*
X140442Y561367D01*
X140688Y561388D01*
X140934Y561415D01*
X141179Y561448D01*
X141424Y561487D01*
X141667Y561532D01*
X141909Y561583D01*
X142150Y561640D01*
X142389Y561702D01*
X142627Y561771D01*
X142863Y561845D01*
X143097Y561925D01*
X143329Y562010D01*
X143559Y562102D01*
X143787Y562198D01*
X144012Y562301D01*
X144235Y562408D01*
X144455Y562522D01*
X144672Y562640D01*
X144887Y562764D01*
X145098Y562893D01*
X145306Y563027D01*
X145511Y563166D01*
X145712Y563310D01*
X145910Y563458D01*
X146104Y563612D01*
X146294Y563770D01*
X146480Y563933D01*
X146662Y564100D01*
X146840Y564272D01*
X147014Y564448D01*
X147184Y564628D01*
X147349Y564813D01*
X147509Y565001D01*
X147665Y565193D01*
X147817Y565389D01*
X147963Y565588D01*
X148105Y565791D01*
X148241Y565998D01*
X148373Y566207D01*
X148499Y566420D01*
X148620Y566636D01*
X148736Y566854D01*
X148846Y567076D01*
X148951Y567300D01*
X149051Y567526D01*
X149145Y567755D01*
X149233Y567986D01*
X149316Y568220D01*
X149393Y568455D01*
X149464Y568692D01*
X149530Y568930D01*
X149589Y569170D01*
X149643Y569412D01*
X149691Y569655D01*
X149733Y569898D01*
X149769Y570143D01*
X149799Y570389D01*
X149823Y570635D01*
X149841Y570882D01*
X149853Y571129D01*
X149859Y571376D01*
X149859Y571624D01*
X149853Y571871D01*
X149841Y572118D01*
X149823Y572365D01*
X149799Y572611D01*
X149769Y572857D01*
X149733Y573102D01*
X149691Y573345D01*
X149643Y573588D01*
X149589Y573830D01*
X149530Y574070D01*
X149464Y574308D01*
X149393Y574545D01*
X149316Y574780D01*
X149233Y575014D01*
X149145Y575245D01*
X149051Y575474D01*
X148951Y575700D01*
X148846Y575924D01*
X148736Y576146D01*
X148620Y576364D01*
X148499Y576580D01*
X148373Y576793D01*
X148241Y577002D01*
X148105Y577209D01*
X147963Y577412D01*
X147817Y577611D01*
X147665Y577807D01*
X147509Y577999D01*
X147349Y578187D01*
X147184Y578372D01*
X147014Y578552D01*
X146840Y578728D01*
X146662Y578900D01*
X146480Y579067D01*
X146294Y579230D01*
X146104Y579388D01*
X145910Y579542D01*
X145712Y579690D01*
X145511Y579834D01*
X145306Y579973D01*
X145098Y580107D01*
X144887Y580236D01*
X144672Y580360D01*
X144455Y580478D01*
X144235Y580592D01*
X144012Y580699D01*
X143787Y580802D01*
X143559Y580898D01*
X143329Y580990D01*
X143097Y581075D01*
X142863Y581155D01*
X142627Y581229D01*
X142389Y581298D01*
X142150Y581360D01*
X141909Y581417D01*
X141667Y581468D01*
X141424Y581513D01*
X141179Y581552D01*
X140934Y581585D01*
X140688Y581612D01*
X140442Y581633D01*
X140195Y581648D01*
X139947Y581657D01*
X139700Y581660D01*
X279400Y463550D02*
X279400Y450850D01*
X273050Y444500D01*
X260350Y444500D01*
X254000Y450850D01*
X273050Y444500D02*
X279400Y438150D01*
X279400Y425450D01*
X273050Y419100D01*
X260350Y419100D01*
X254000Y425450D01*
X254000Y438150D01*
X260350Y444500D01*
X260350Y469900D02*
X273050Y469900D01*
X279400Y463550D01*
X260350Y469900D02*
X254000Y463550D01*
X254000Y450850D01*
X273050Y419100D02*
X279400Y412750D01*
X279400Y400050D01*
X273050Y393700D01*
X260350Y393700D01*
X254000Y400050D01*
X254000Y412750D01*
X260350Y419100D01*
D12*
X285623Y441960D02*
X297053Y441960D01*
X297053Y448310D02*
X285623Y441960D01*
X285623Y448310D02*
X297053Y448310D01*
X297053Y454177D02*
X297053Y459257D01*
X297053Y454177D02*
X285623Y454177D01*
X285623Y459257D01*
X290703Y457987D02*
X290703Y454177D01*
X288798Y463677D02*
X293878Y463677D01*
X288798Y463677D02*
X288687Y463679D01*
X288577Y463685D01*
X288466Y463694D01*
X288356Y463708D01*
X288247Y463725D01*
X288138Y463746D01*
X288030Y463771D01*
X287923Y463800D01*
X287817Y463832D01*
X287712Y463868D01*
X287609Y463908D01*
X287507Y463951D01*
X287406Y463998D01*
X287307Y464049D01*
X287211Y464102D01*
X287116Y464159D01*
X287023Y464220D01*
X286932Y464283D01*
X286843Y464350D01*
X286757Y464420D01*
X286674Y464493D01*
X286592Y464568D01*
X286514Y464646D01*
X286439Y464728D01*
X286366Y464811D01*
X286296Y464897D01*
X286229Y464986D01*
X286166Y465077D01*
X286105Y465170D01*
X286048Y465265D01*
X285995Y465361D01*
X285944Y465460D01*
X285897Y465561D01*
X285854Y465663D01*
X285814Y465766D01*
X285778Y465871D01*
X285746Y465977D01*
X285717Y466084D01*
X285692Y466192D01*
X285671Y466301D01*
X285654Y466410D01*
X285640Y466520D01*
X285631Y466631D01*
X285625Y466741D01*
X285623Y466852D01*
X285625Y466963D01*
X285631Y467073D01*
X285640Y467184D01*
X285654Y467294D01*
X285671Y467403D01*
X285692Y467512D01*
X285717Y467620D01*
X285746Y467727D01*
X285778Y467833D01*
X285814Y467938D01*
X285854Y468041D01*
X285897Y468143D01*
X285944Y468244D01*
X285995Y468343D01*
X286048Y468440D01*
X286105Y468534D01*
X286166Y468627D01*
X286229Y468718D01*
X286296Y468807D01*
X286366Y468893D01*
X286439Y468976D01*
X286514Y469058D01*
X286592Y469136D01*
X286674Y469211D01*
X286757Y469284D01*
X286843Y469354D01*
X286932Y469421D01*
X287023Y469484D01*
X287116Y469545D01*
X287211Y469602D01*
X287307Y469655D01*
X287406Y469706D01*
X287507Y469753D01*
X287609Y469796D01*
X287712Y469836D01*
X287817Y469872D01*
X287923Y469904D01*
X288030Y469933D01*
X288138Y469958D01*
X288247Y469979D01*
X288356Y469996D01*
X288466Y470010D01*
X288577Y470019D01*
X288687Y470025D01*
X288798Y470027D01*
X293878Y470027D01*
X293989Y470025D01*
X294099Y470019D01*
X294210Y470010D01*
X294320Y469996D01*
X294429Y469979D01*
X294538Y469958D01*
X294646Y469933D01*
X294753Y469904D01*
X294859Y469872D01*
X294964Y469836D01*
X295067Y469796D01*
X295169Y469753D01*
X295270Y469706D01*
X295369Y469655D01*
X295466Y469602D01*
X295560Y469545D01*
X295653Y469484D01*
X295744Y469421D01*
X295833Y469354D01*
X295919Y469284D01*
X296002Y469211D01*
X296084Y469136D01*
X296162Y469058D01*
X296237Y468976D01*
X296310Y468893D01*
X296380Y468807D01*
X296447Y468718D01*
X296510Y468627D01*
X296571Y468534D01*
X296628Y468439D01*
X296681Y468343D01*
X296732Y468244D01*
X296779Y468143D01*
X296822Y468041D01*
X296862Y467938D01*
X296898Y467833D01*
X296930Y467727D01*
X296959Y467620D01*
X296984Y467512D01*
X297005Y467403D01*
X297022Y467294D01*
X297036Y467184D01*
X297045Y467073D01*
X297051Y466963D01*
X297053Y466852D01*
X297051Y466741D01*
X297045Y466631D01*
X297036Y466520D01*
X297022Y466410D01*
X297005Y466301D01*
X296984Y466192D01*
X296959Y466084D01*
X296930Y465977D01*
X296898Y465871D01*
X296862Y465766D01*
X296822Y465663D01*
X296779Y465561D01*
X296732Y465460D01*
X296681Y465361D01*
X296628Y465264D01*
X296571Y465170D01*
X296510Y465077D01*
X296447Y464986D01*
X296380Y464897D01*
X296310Y464811D01*
X296237Y464728D01*
X296162Y464646D01*
X296084Y464568D01*
X296002Y464493D01*
X295919Y464420D01*
X295833Y464350D01*
X295744Y464283D01*
X295653Y464220D01*
X295560Y464159D01*
X295466Y464102D01*
X295369Y464049D01*
X295270Y463998D01*
X295169Y463951D01*
X295067Y463908D01*
X294964Y463868D01*
X294859Y463832D01*
X294753Y463800D01*
X294646Y463771D01*
X294538Y463746D01*
X294429Y463725D01*
X294320Y463708D01*
X294210Y463694D01*
X294099Y463685D01*
X293989Y463679D01*
X293878Y463677D01*
D10*
X2540Y104140D02*
X2542Y104040D01*
X2548Y103941D01*
X2558Y103841D01*
X2571Y103743D01*
X2589Y103644D01*
X2610Y103547D01*
X2635Y103451D01*
X2664Y103355D01*
X2697Y103261D01*
X2733Y103168D01*
X2773Y103077D01*
X2817Y102987D01*
X2864Y102899D01*
X2914Y102813D01*
X2968Y102729D01*
X3025Y102647D01*
X3085Y102568D01*
X3149Y102490D01*
X3215Y102416D01*
X3284Y102344D01*
X3356Y102275D01*
X3430Y102209D01*
X3508Y102145D01*
X3587Y102085D01*
X3669Y102028D01*
X3753Y101974D01*
X3839Y101924D01*
X3927Y101877D01*
X4017Y101833D01*
X4108Y101793D01*
X4201Y101757D01*
X4295Y101724D01*
X4391Y101695D01*
X4487Y101670D01*
X4584Y101649D01*
X4683Y101631D01*
X4781Y101618D01*
X4881Y101608D01*
X4980Y101602D01*
X5080Y101600D01*
X20320Y101600D02*
X20420Y101602D01*
X20519Y101608D01*
X20619Y101618D01*
X20717Y101631D01*
X20816Y101649D01*
X20913Y101670D01*
X21009Y101695D01*
X21105Y101724D01*
X21199Y101757D01*
X21292Y101793D01*
X21383Y101833D01*
X21473Y101877D01*
X21561Y101924D01*
X21647Y101974D01*
X21731Y102028D01*
X21813Y102085D01*
X21892Y102145D01*
X21970Y102209D01*
X22044Y102275D01*
X22116Y102344D01*
X22185Y102416D01*
X22251Y102490D01*
X22315Y102568D01*
X22375Y102647D01*
X22432Y102729D01*
X22486Y102813D01*
X22536Y102899D01*
X22583Y102987D01*
X22627Y103077D01*
X22667Y103168D01*
X22703Y103261D01*
X22736Y103355D01*
X22765Y103451D01*
X22790Y103547D01*
X22811Y103644D01*
X22829Y103743D01*
X22842Y103841D01*
X22852Y103941D01*
X22858Y104040D01*
X22860Y104140D01*
X22860Y149860D02*
X22858Y149960D01*
X22852Y150059D01*
X22842Y150159D01*
X22829Y150257D01*
X22811Y150356D01*
X22790Y150453D01*
X22765Y150549D01*
X22736Y150645D01*
X22703Y150739D01*
X22667Y150832D01*
X22627Y150923D01*
X22583Y151013D01*
X22536Y151101D01*
X22486Y151187D01*
X22432Y151271D01*
X22375Y151353D01*
X22315Y151432D01*
X22251Y151510D01*
X22185Y151584D01*
X22116Y151656D01*
X22044Y151725D01*
X21970Y151791D01*
X21892Y151855D01*
X21813Y151915D01*
X21731Y151972D01*
X21647Y152026D01*
X21561Y152076D01*
X21473Y152123D01*
X21383Y152167D01*
X21292Y152207D01*
X21199Y152243D01*
X21105Y152276D01*
X21009Y152305D01*
X20913Y152330D01*
X20816Y152351D01*
X20717Y152369D01*
X20619Y152382D01*
X20519Y152392D01*
X20420Y152398D01*
X20320Y152400D01*
X5080Y152400D02*
X4980Y152398D01*
X4881Y152392D01*
X4781Y152382D01*
X4683Y152369D01*
X4584Y152351D01*
X4487Y152330D01*
X4391Y152305D01*
X4295Y152276D01*
X4201Y152243D01*
X4108Y152207D01*
X4017Y152167D01*
X3927Y152123D01*
X3839Y152076D01*
X3753Y152026D01*
X3669Y151972D01*
X3587Y151915D01*
X3508Y151855D01*
X3430Y151791D01*
X3356Y151725D01*
X3284Y151656D01*
X3215Y151584D01*
X3149Y151510D01*
X3085Y151432D01*
X3025Y151353D01*
X2968Y151271D01*
X2914Y151187D01*
X2864Y151101D01*
X2817Y151013D01*
X2773Y150923D01*
X2733Y150832D01*
X2697Y150739D01*
X2664Y150645D01*
X2635Y150549D01*
X2610Y150453D01*
X2589Y150356D01*
X2571Y150257D01*
X2558Y150159D01*
X2548Y150059D01*
X2542Y149960D01*
X2540Y149860D01*
X5080Y101600D02*
X20320Y101600D01*
X2540Y104140D02*
X2540Y107950D01*
X3810Y109220D01*
X22860Y107950D02*
X22860Y104140D01*
X22860Y107950D02*
X21590Y109220D01*
X3810Y144780D02*
X2540Y146050D01*
X3810Y144780D02*
X3810Y109220D01*
X21590Y144780D02*
X22860Y146050D01*
X21590Y144780D02*
X21590Y109220D01*
X2540Y146050D02*
X2540Y149860D01*
X22860Y149860D02*
X22860Y146050D01*
X20320Y152400D02*
X5080Y152400D01*
D13*
X12700Y154305D03*
X12700Y99695D03*
D10*
X22860Y251460D02*
X22858Y251560D01*
X22852Y251659D01*
X22842Y251759D01*
X22829Y251857D01*
X22811Y251956D01*
X22790Y252053D01*
X22765Y252149D01*
X22736Y252245D01*
X22703Y252339D01*
X22667Y252432D01*
X22627Y252523D01*
X22583Y252613D01*
X22536Y252701D01*
X22486Y252787D01*
X22432Y252871D01*
X22375Y252953D01*
X22315Y253032D01*
X22251Y253110D01*
X22185Y253184D01*
X22116Y253256D01*
X22044Y253325D01*
X21970Y253391D01*
X21892Y253455D01*
X21813Y253515D01*
X21731Y253572D01*
X21647Y253626D01*
X21561Y253676D01*
X21473Y253723D01*
X21383Y253767D01*
X21292Y253807D01*
X21199Y253843D01*
X21105Y253876D01*
X21009Y253905D01*
X20913Y253930D01*
X20816Y253951D01*
X20717Y253969D01*
X20619Y253982D01*
X20519Y253992D01*
X20420Y253998D01*
X20320Y254000D01*
X5080Y254000D02*
X4980Y253998D01*
X4881Y253992D01*
X4781Y253982D01*
X4683Y253969D01*
X4584Y253951D01*
X4487Y253930D01*
X4391Y253905D01*
X4295Y253876D01*
X4201Y253843D01*
X4108Y253807D01*
X4017Y253767D01*
X3927Y253723D01*
X3839Y253676D01*
X3753Y253626D01*
X3669Y253572D01*
X3587Y253515D01*
X3508Y253455D01*
X3430Y253391D01*
X3356Y253325D01*
X3284Y253256D01*
X3215Y253184D01*
X3149Y253110D01*
X3085Y253032D01*
X3025Y252953D01*
X2968Y252871D01*
X2914Y252787D01*
X2864Y252701D01*
X2817Y252613D01*
X2773Y252523D01*
X2733Y252432D01*
X2697Y252339D01*
X2664Y252245D01*
X2635Y252149D01*
X2610Y252053D01*
X2589Y251956D01*
X2571Y251857D01*
X2558Y251759D01*
X2548Y251659D01*
X2542Y251560D01*
X2540Y251460D01*
X2540Y205740D02*
X2542Y205640D01*
X2548Y205541D01*
X2558Y205441D01*
X2571Y205343D01*
X2589Y205244D01*
X2610Y205147D01*
X2635Y205051D01*
X2664Y204955D01*
X2697Y204861D01*
X2733Y204768D01*
X2773Y204677D01*
X2817Y204587D01*
X2864Y204499D01*
X2914Y204413D01*
X2968Y204329D01*
X3025Y204247D01*
X3085Y204168D01*
X3149Y204090D01*
X3215Y204016D01*
X3284Y203944D01*
X3356Y203875D01*
X3430Y203809D01*
X3508Y203745D01*
X3587Y203685D01*
X3669Y203628D01*
X3753Y203574D01*
X3839Y203524D01*
X3927Y203477D01*
X4017Y203433D01*
X4108Y203393D01*
X4201Y203357D01*
X4295Y203324D01*
X4391Y203295D01*
X4487Y203270D01*
X4584Y203249D01*
X4683Y203231D01*
X4781Y203218D01*
X4881Y203208D01*
X4980Y203202D01*
X5080Y203200D01*
X20320Y203200D02*
X20420Y203202D01*
X20519Y203208D01*
X20619Y203218D01*
X20717Y203231D01*
X20816Y203249D01*
X20913Y203270D01*
X21009Y203295D01*
X21105Y203324D01*
X21199Y203357D01*
X21292Y203393D01*
X21383Y203433D01*
X21473Y203477D01*
X21561Y203524D01*
X21647Y203574D01*
X21731Y203628D01*
X21813Y203685D01*
X21892Y203745D01*
X21970Y203809D01*
X22044Y203875D01*
X22116Y203944D01*
X22185Y204016D01*
X22251Y204090D01*
X22315Y204168D01*
X22375Y204247D01*
X22432Y204329D01*
X22486Y204413D01*
X22536Y204499D01*
X22583Y204587D01*
X22627Y204677D01*
X22667Y204768D01*
X22703Y204861D01*
X22736Y204955D01*
X22765Y205051D01*
X22790Y205147D01*
X22811Y205244D01*
X22829Y205343D01*
X22842Y205441D01*
X22852Y205541D01*
X22858Y205640D01*
X22860Y205740D01*
X20320Y254000D02*
X5080Y254000D01*
X22860Y251460D02*
X22860Y247650D01*
X21590Y246380D01*
X2540Y247650D02*
X2540Y251460D01*
X2540Y247650D02*
X3810Y246380D01*
X21590Y210820D02*
X22860Y209550D01*
X21590Y210820D02*
X21590Y246380D01*
X3810Y210820D02*
X2540Y209550D01*
X3810Y210820D02*
X3810Y246380D01*
X22860Y209550D02*
X22860Y205740D01*
X2540Y205740D02*
X2540Y209550D01*
X5080Y203200D02*
X20320Y203200D01*
D13*
X12700Y201295D03*
X12700Y255905D03*
D10*
X162560Y425450D02*
X171450Y431800D01*
X184150Y425450D01*
X184150Y412750D01*
X177800Y412750D01*
X196850Y412750D02*
X203200Y412750D01*
X196850Y412750D02*
X196850Y425450D01*
X209550Y431800D01*
X218440Y425450D01*
X189230Y461010D02*
X199390Y471170D01*
X189230Y461010D02*
X185420Y464820D01*
X185420Y457200D01*
X176530Y448310D01*
X194310Y455930D02*
X204470Y466090D01*
X194310Y455930D02*
X198120Y452120D01*
X190500Y452120D01*
X181610Y443230D01*
X177800Y400050D02*
X203200Y400050D01*
X218440Y420370D02*
X218440Y425450D01*
X162560Y425450D02*
X162560Y420370D01*
X226157Y415838D02*
X227134Y416701D01*
X228090Y417587D01*
X229025Y418495D01*
X229938Y419426D01*
X230828Y420378D01*
X231696Y421351D01*
X232540Y422344D01*
X233360Y423358D01*
X234155Y424390D01*
X234926Y425442D01*
X235671Y426511D01*
X236391Y427598D01*
X237084Y428702D01*
X237751Y429822D01*
X238391Y430957D01*
X239004Y432108D01*
X239589Y433273D01*
X240146Y434451D01*
X240675Y435642D01*
X241175Y436846D01*
X241647Y438062D01*
X242089Y439288D01*
X242502Y440524D01*
X242885Y441770D01*
X243238Y443025D01*
X243562Y444288D01*
X243855Y445558D01*
X244117Y446835D01*
X244349Y448117D01*
X244551Y449405D01*
X244721Y450697D01*
X244861Y451993D01*
X244970Y453292D01*
X245048Y454594D01*
X245094Y455896D01*
X245110Y457200D01*
X154451Y416179D02*
X153466Y417066D01*
X152502Y417977D01*
X151561Y418911D01*
X150643Y419868D01*
X149748Y420847D01*
X148878Y421847D01*
X148032Y422868D01*
X147211Y423909D01*
X146415Y424970D01*
X145646Y426049D01*
X144903Y427148D01*
X144187Y428263D01*
X143498Y429396D01*
X142837Y430546D01*
X142203Y431711D01*
X141599Y432891D01*
X141023Y434085D01*
X140477Y435293D01*
X139959Y436514D01*
X139472Y437747D01*
X139015Y438992D01*
X138588Y440247D01*
X138192Y441513D01*
X137826Y442787D01*
X137492Y444070D01*
X137189Y445361D01*
X136917Y446659D01*
X136677Y447963D01*
X136468Y449272D01*
X136292Y450586D01*
X136147Y451904D01*
X136035Y453226D01*
X135954Y454549D01*
X135906Y455874D01*
X135890Y457200D01*
X135906Y458517D01*
X135954Y459834D01*
X136033Y461148D01*
X136144Y462461D01*
X136287Y463770D01*
X136461Y465076D01*
X136667Y466377D01*
X136903Y467672D01*
X137172Y468962D01*
X137471Y470244D01*
X137801Y471519D01*
X138161Y472786D01*
X138553Y474044D01*
X138974Y475292D01*
X139425Y476529D01*
X139906Y477755D01*
X140417Y478970D01*
X140956Y480171D01*
X141525Y481359D01*
X142122Y482533D01*
X142747Y483693D01*
X143399Y484837D01*
X144080Y485964D01*
X144787Y487076D01*
X145521Y488169D01*
X146281Y489245D01*
X147066Y490302D01*
X147877Y491340D01*
X148713Y492358D01*
X149573Y493356D01*
X150457Y494332D01*
X151364Y495287D01*
X152294Y496220D01*
X153246Y497130D01*
X154220Y498017D01*
X155215Y498880D01*
X156230Y499719D01*
X157266Y500533D01*
X158320Y501322D01*
X159394Y502085D01*
X160485Y502822D01*
X161594Y503533D01*
X162720Y504216D01*
X163862Y504872D01*
X165019Y505501D01*
X166192Y506102D01*
X167378Y506674D01*
X168578Y507217D01*
X169791Y507731D01*
X171015Y508216D01*
X172251Y508671D01*
X173498Y509096D01*
X174754Y509491D01*
X176020Y509855D01*
X205116Y509818D02*
X206402Y509443D01*
X207678Y509038D01*
X208944Y508601D01*
X210199Y508133D01*
X211442Y507635D01*
X212673Y507106D01*
X213890Y506547D01*
X215093Y505959D01*
X216282Y505341D01*
X217454Y504694D01*
X218611Y504019D01*
X219751Y503316D01*
X220873Y502584D01*
X221977Y501826D01*
X223062Y501041D01*
X224127Y500229D01*
X225172Y499391D01*
X226196Y498528D01*
X227199Y497641D01*
X228180Y496728D01*
X229138Y495793D01*
X230072Y494833D01*
X230983Y493852D01*
X231870Y492848D01*
X232732Y491823D01*
X233568Y490777D01*
X234379Y489710D01*
X235163Y488624D01*
X235920Y487520D01*
X236650Y486397D01*
X237352Y485256D01*
X238026Y484099D01*
X238671Y482925D01*
X239288Y481736D01*
X239875Y480532D01*
X240432Y479315D01*
X240959Y478083D01*
X241456Y476840D01*
X241922Y475584D01*
X242358Y474318D01*
X242762Y473041D01*
X243135Y471754D01*
X243476Y470459D01*
X243785Y469156D01*
X244062Y467846D01*
X244307Y466529D01*
X244520Y465207D01*
X244700Y463880D01*
X244847Y462548D01*
X244962Y461214D01*
X245044Y459877D01*
X245094Y458539D01*
X245110Y457200D01*
X172466Y457200D02*
X172471Y457643D01*
X172488Y458085D01*
X172515Y458527D01*
X172553Y458968D01*
X172602Y459408D01*
X172661Y459846D01*
X172732Y460283D01*
X172813Y460718D01*
X172904Y461151D01*
X173006Y461582D01*
X173119Y462010D01*
X173243Y462435D01*
X173376Y462857D01*
X173520Y463275D01*
X173674Y463690D01*
X173839Y464101D01*
X174013Y464508D01*
X174197Y464911D01*
X174392Y465308D01*
X174595Y465701D01*
X174809Y466089D01*
X175032Y466471D01*
X175264Y466848D01*
X175505Y467219D01*
X175756Y467584D01*
X176015Y467943D01*
X176283Y468295D01*
X176560Y468641D01*
X176844Y468979D01*
X177138Y469311D01*
X177439Y469635D01*
X177748Y469952D01*
X178065Y470261D01*
X178389Y470562D01*
X178721Y470856D01*
X179059Y471140D01*
X179405Y471417D01*
X179757Y471685D01*
X180116Y471944D01*
X180481Y472195D01*
X180852Y472436D01*
X181229Y472668D01*
X181611Y472891D01*
X181999Y473105D01*
X182392Y473308D01*
X182789Y473503D01*
X183192Y473687D01*
X183599Y473861D01*
X184010Y474026D01*
X184425Y474180D01*
X184843Y474324D01*
X185265Y474457D01*
X185690Y474581D01*
X186118Y474694D01*
X186549Y474796D01*
X186982Y474887D01*
X187417Y474968D01*
X187854Y475039D01*
X188292Y475098D01*
X188732Y475147D01*
X189173Y475185D01*
X189615Y475212D01*
X190057Y475229D01*
X190500Y475234D01*
X190943Y475229D01*
X191385Y475212D01*
X191827Y475185D01*
X192268Y475147D01*
X192708Y475098D01*
X193146Y475039D01*
X193583Y474968D01*
X194018Y474887D01*
X194451Y474796D01*
X194882Y474694D01*
X195310Y474581D01*
X195735Y474457D01*
X196157Y474324D01*
X196575Y474180D01*
X196990Y474026D01*
X197401Y473861D01*
X197808Y473687D01*
X198211Y473503D01*
X198608Y473308D01*
X199001Y473105D01*
X199389Y472891D01*
X199771Y472668D01*
X200148Y472436D01*
X200519Y472195D01*
X200884Y471944D01*
X201243Y471685D01*
X201595Y471417D01*
X201941Y471140D01*
X202279Y470856D01*
X202611Y470562D01*
X202935Y470261D01*
X203252Y469952D01*
X203561Y469635D01*
X203862Y469311D01*
X204156Y468979D01*
X204440Y468641D01*
X204717Y468295D01*
X204985Y467943D01*
X205244Y467584D01*
X205495Y467219D01*
X205736Y466848D01*
X205968Y466471D01*
X206191Y466089D01*
X206405Y465701D01*
X206608Y465308D01*
X206803Y464911D01*
X206987Y464508D01*
X207161Y464101D01*
X207326Y463690D01*
X207480Y463275D01*
X207624Y462857D01*
X207757Y462435D01*
X207881Y462010D01*
X207994Y461582D01*
X208096Y461151D01*
X208187Y460718D01*
X208268Y460283D01*
X208339Y459846D01*
X208398Y459408D01*
X208447Y458968D01*
X208485Y458527D01*
X208512Y458085D01*
X208529Y457643D01*
X208534Y457200D01*
X208529Y456757D01*
X208512Y456315D01*
X208485Y455873D01*
X208447Y455432D01*
X208398Y454992D01*
X208339Y454554D01*
X208268Y454117D01*
X208187Y453682D01*
X208096Y453249D01*
X207994Y452818D01*
X207881Y452390D01*
X207757Y451965D01*
X207624Y451543D01*
X207480Y451125D01*
X207326Y450710D01*
X207161Y450299D01*
X206987Y449892D01*
X206803Y449489D01*
X206608Y449092D01*
X206405Y448699D01*
X206191Y448311D01*
X205968Y447929D01*
X205736Y447552D01*
X205495Y447181D01*
X205244Y446816D01*
X204985Y446457D01*
X204717Y446105D01*
X204440Y445759D01*
X204156Y445421D01*
X203862Y445089D01*
X203561Y444765D01*
X203252Y444448D01*
X202935Y444139D01*
X202611Y443838D01*
X202279Y443544D01*
X201941Y443260D01*
X201595Y442983D01*
X201243Y442715D01*
X200884Y442456D01*
X200519Y442205D01*
X200148Y441964D01*
X199771Y441732D01*
X199389Y441509D01*
X199001Y441295D01*
X198608Y441092D01*
X198211Y440897D01*
X197808Y440713D01*
X197401Y440539D01*
X196990Y440374D01*
X196575Y440220D01*
X196157Y440076D01*
X195735Y439943D01*
X195310Y439819D01*
X194882Y439706D01*
X194451Y439604D01*
X194018Y439513D01*
X193583Y439432D01*
X193146Y439361D01*
X192708Y439302D01*
X192268Y439253D01*
X191827Y439215D01*
X191385Y439188D01*
X190943Y439171D01*
X190500Y439166D01*
X190057Y439171D01*
X189615Y439188D01*
X189173Y439215D01*
X188732Y439253D01*
X188292Y439302D01*
X187854Y439361D01*
X187417Y439432D01*
X186982Y439513D01*
X186549Y439604D01*
X186118Y439706D01*
X185690Y439819D01*
X185265Y439943D01*
X184843Y440076D01*
X184425Y440220D01*
X184010Y440374D01*
X183599Y440539D01*
X183192Y440713D01*
X182789Y440897D01*
X182392Y441092D01*
X181999Y441295D01*
X181611Y441509D01*
X181229Y441732D01*
X180852Y441964D01*
X180481Y442205D01*
X180116Y442456D01*
X179757Y442715D01*
X179405Y442983D01*
X179059Y443260D01*
X178721Y443544D01*
X178389Y443838D01*
X178065Y444139D01*
X177748Y444448D01*
X177439Y444765D01*
X177138Y445089D01*
X176844Y445421D01*
X176560Y445759D01*
X176283Y446105D01*
X176015Y446457D01*
X175756Y446816D01*
X175505Y447181D01*
X175264Y447552D01*
X175032Y447929D01*
X174809Y448311D01*
X174595Y448699D01*
X174392Y449092D01*
X174197Y449489D01*
X174013Y449892D01*
X173839Y450299D01*
X173674Y450710D01*
X173520Y451125D01*
X173376Y451543D01*
X173243Y451965D01*
X173119Y452390D01*
X173006Y452818D01*
X172904Y453249D01*
X172813Y453682D01*
X172732Y454117D01*
X172661Y454554D01*
X172602Y454992D01*
X172553Y455432D01*
X172515Y455873D01*
X172488Y456315D01*
X172471Y456757D01*
X172466Y457200D01*
D14*
X162560Y457200D02*
X162568Y457886D01*
X162594Y458571D01*
X162636Y459255D01*
X162695Y459939D01*
X162770Y460620D01*
X162862Y461300D01*
X162971Y461977D01*
X163097Y462651D01*
X163239Y463322D01*
X163397Y463989D01*
X163572Y464652D01*
X163763Y465311D01*
X163970Y465964D01*
X164193Y466613D01*
X164432Y467255D01*
X164687Y467892D01*
X164957Y468522D01*
X165243Y469146D01*
X165543Y469762D01*
X165859Y470371D01*
X166190Y470972D01*
X166535Y471564D01*
X166895Y472148D01*
X167269Y472723D01*
X167657Y473288D01*
X168058Y473844D01*
X168474Y474390D01*
X168902Y474925D01*
X169344Y475450D01*
X169798Y475963D01*
X170265Y476466D01*
X170743Y476957D01*
X171234Y477435D01*
X171737Y477902D01*
X172250Y478356D01*
X172775Y478798D01*
X173310Y479226D01*
X173856Y479642D01*
X174412Y480043D01*
X174977Y480431D01*
X175552Y480805D01*
X176136Y481165D01*
X176728Y481510D01*
X177329Y481841D01*
X177938Y482157D01*
X178554Y482457D01*
X179178Y482743D01*
X179808Y483013D01*
X180445Y483268D01*
X181087Y483507D01*
X181736Y483730D01*
X182389Y483937D01*
X183048Y484128D01*
X183711Y484303D01*
X184378Y484461D01*
X185049Y484603D01*
X185723Y484729D01*
X186400Y484838D01*
X187080Y484930D01*
X187761Y485005D01*
X188445Y485064D01*
X189129Y485106D01*
X189814Y485132D01*
X190500Y485140D01*
X191186Y485132D01*
X191871Y485106D01*
X192555Y485064D01*
X193239Y485005D01*
X193920Y484930D01*
X194600Y484838D01*
X195277Y484729D01*
X195951Y484603D01*
X196622Y484461D01*
X197289Y484303D01*
X197952Y484128D01*
X198611Y483937D01*
X199264Y483730D01*
X199913Y483507D01*
X200555Y483268D01*
X201192Y483013D01*
X201822Y482743D01*
X202446Y482457D01*
X203062Y482157D01*
X203671Y481841D01*
X204272Y481510D01*
X204864Y481165D01*
X205448Y480805D01*
X206023Y480431D01*
X206588Y480043D01*
X207144Y479642D01*
X207690Y479226D01*
X208225Y478798D01*
X208750Y478356D01*
X209263Y477902D01*
X209766Y477435D01*
X210257Y476957D01*
X210735Y476466D01*
X211202Y475963D01*
X211656Y475450D01*
X212098Y474925D01*
X212526Y474390D01*
X212942Y473844D01*
X213343Y473288D01*
X213731Y472723D01*
X214105Y472148D01*
X214465Y471564D01*
X214810Y470972D01*
X215141Y470371D01*
X215457Y469762D01*
X215757Y469146D01*
X216043Y468522D01*
X216313Y467892D01*
X216568Y467255D01*
X216807Y466613D01*
X217030Y465964D01*
X217237Y465311D01*
X217428Y464652D01*
X217603Y463989D01*
X217761Y463322D01*
X217903Y462651D01*
X218029Y461977D01*
X218138Y461300D01*
X218230Y460620D01*
X218305Y459939D01*
X218364Y459255D01*
X218406Y458571D01*
X218432Y457886D01*
X218440Y457200D01*
X218432Y456514D01*
X218406Y455829D01*
X218364Y455145D01*
X218305Y454461D01*
X218230Y453780D01*
X218138Y453100D01*
X218029Y452423D01*
X217903Y451749D01*
X217761Y451078D01*
X217603Y450411D01*
X217428Y449748D01*
X217237Y449089D01*
X217030Y448436D01*
X216807Y447787D01*
X216568Y447145D01*
X216313Y446508D01*
X216043Y445878D01*
X215757Y445254D01*
X215457Y444638D01*
X215141Y444029D01*
X214810Y443428D01*
X214465Y442836D01*
X214105Y442252D01*
X213731Y441677D01*
X213343Y441112D01*
X212942Y440556D01*
X212526Y440010D01*
X212098Y439475D01*
X211656Y438950D01*
X211202Y438437D01*
X210735Y437934D01*
X210257Y437443D01*
X209766Y436965D01*
X209263Y436498D01*
X208750Y436044D01*
X208225Y435602D01*
X207690Y435174D01*
X207144Y434758D01*
X206588Y434357D01*
X206023Y433969D01*
X205448Y433595D01*
X204864Y433235D01*
X204272Y432890D01*
X203671Y432559D01*
X203062Y432243D01*
X202446Y431943D01*
X201822Y431657D01*
X201192Y431387D01*
X200555Y431132D01*
X199913Y430893D01*
X199264Y430670D01*
X198611Y430463D01*
X197952Y430272D01*
X197289Y430097D01*
X196622Y429939D01*
X195951Y429797D01*
X195277Y429671D01*
X194600Y429562D01*
X193920Y429470D01*
X193239Y429395D01*
X192555Y429336D01*
X191871Y429294D01*
X191186Y429268D01*
X190500Y429260D01*
X189814Y429268D01*
X189129Y429294D01*
X188445Y429336D01*
X187761Y429395D01*
X187080Y429470D01*
X186400Y429562D01*
X185723Y429671D01*
X185049Y429797D01*
X184378Y429939D01*
X183711Y430097D01*
X183048Y430272D01*
X182389Y430463D01*
X181736Y430670D01*
X181087Y430893D01*
X180445Y431132D01*
X179808Y431387D01*
X179178Y431657D01*
X178554Y431943D01*
X177938Y432243D01*
X177329Y432559D01*
X176728Y432890D01*
X176136Y433235D01*
X175552Y433595D01*
X174977Y433969D01*
X174412Y434357D01*
X173856Y434758D01*
X173310Y435174D01*
X172775Y435602D01*
X172250Y436044D01*
X171737Y436498D01*
X171234Y436965D01*
X170743Y437443D01*
X170265Y437934D01*
X169798Y438437D01*
X169344Y438950D01*
X168902Y439475D01*
X168474Y440010D01*
X168058Y440556D01*
X167657Y441112D01*
X167269Y441677D01*
X166895Y442252D01*
X166535Y442836D01*
X166190Y443428D01*
X165859Y444029D01*
X165543Y444638D01*
X165243Y445254D01*
X164957Y445878D01*
X164687Y446508D01*
X164432Y447145D01*
X164193Y447787D01*
X163970Y448436D01*
X163763Y449089D01*
X163572Y449748D01*
X163397Y450411D01*
X163239Y451078D01*
X163097Y451749D01*
X162971Y452423D01*
X162862Y453100D01*
X162770Y453780D01*
X162695Y454461D01*
X162636Y455145D01*
X162594Y455829D01*
X162568Y456514D01*
X162560Y457200D01*
D10*
X279400Y527050D02*
X279400Y539750D01*
X279400Y527050D02*
X273050Y520700D01*
X260350Y520700D01*
X254000Y527050D01*
X273050Y520700D02*
X279400Y514350D01*
X279400Y501650D01*
X273050Y495300D01*
X260350Y495300D01*
X254000Y501650D01*
X254000Y514350D01*
X260350Y520700D01*
X279400Y565150D02*
X273050Y571500D01*
X279400Y565150D02*
X279400Y552450D01*
X273050Y546100D01*
X260350Y546100D01*
X254000Y552450D01*
X254000Y565150D01*
X260350Y571500D01*
X273050Y546100D02*
X279400Y539750D01*
X260350Y546100D02*
X254000Y539750D01*
X254000Y527050D01*
X279400Y603250D02*
X279400Y615950D01*
X279400Y603250D02*
X273050Y596900D01*
X260350Y596900D01*
X254000Y603250D01*
X273050Y596900D02*
X279400Y590550D01*
X279400Y577850D01*
X273050Y571500D01*
X260350Y571500D01*
X254000Y577850D01*
X254000Y590550D01*
X260350Y596900D01*
X260350Y622300D02*
X273050Y622300D01*
X279400Y615950D01*
X260350Y622300D02*
X254000Y615950D01*
X254000Y603250D01*
X279400Y488950D02*
X279400Y476250D01*
X273050Y469900D01*
X260350Y469900D01*
X254000Y476250D01*
X273050Y495300D02*
X279400Y488950D01*
X260350Y495300D02*
X254000Y488950D01*
X254000Y476250D01*
D12*
X285623Y596131D02*
X297053Y596131D01*
X285623Y596131D02*
X285623Y599306D01*
X285625Y599417D01*
X285631Y599527D01*
X285640Y599638D01*
X285654Y599748D01*
X285671Y599857D01*
X285692Y599966D01*
X285717Y600074D01*
X285746Y600181D01*
X285778Y600287D01*
X285814Y600392D01*
X285854Y600495D01*
X285897Y600597D01*
X285944Y600698D01*
X285995Y600797D01*
X286048Y600894D01*
X286105Y600988D01*
X286166Y601081D01*
X286229Y601172D01*
X286296Y601261D01*
X286366Y601347D01*
X286439Y601430D01*
X286514Y601512D01*
X286592Y601590D01*
X286674Y601665D01*
X286757Y601738D01*
X286843Y601808D01*
X286932Y601875D01*
X287023Y601938D01*
X287116Y601999D01*
X287211Y602056D01*
X287307Y602109D01*
X287406Y602160D01*
X287507Y602207D01*
X287609Y602250D01*
X287712Y602290D01*
X287817Y602326D01*
X287923Y602358D01*
X288030Y602387D01*
X288138Y602412D01*
X288247Y602433D01*
X288356Y602450D01*
X288466Y602464D01*
X288577Y602473D01*
X288687Y602479D01*
X288798Y602481D01*
X288909Y602479D01*
X289019Y602473D01*
X289130Y602464D01*
X289240Y602450D01*
X289349Y602433D01*
X289458Y602412D01*
X289566Y602387D01*
X289673Y602358D01*
X289779Y602326D01*
X289884Y602290D01*
X289987Y602250D01*
X290089Y602207D01*
X290190Y602160D01*
X290289Y602109D01*
X290386Y602056D01*
X290480Y601999D01*
X290573Y601938D01*
X290664Y601875D01*
X290753Y601808D01*
X290839Y601738D01*
X290922Y601665D01*
X291004Y601590D01*
X291082Y601512D01*
X291157Y601430D01*
X291230Y601347D01*
X291300Y601261D01*
X291367Y601172D01*
X291430Y601081D01*
X291491Y600988D01*
X291548Y600894D01*
X291601Y600797D01*
X291652Y600698D01*
X291699Y600597D01*
X291742Y600495D01*
X291782Y600392D01*
X291818Y600287D01*
X291850Y600181D01*
X291879Y600074D01*
X291904Y599966D01*
X291925Y599857D01*
X291942Y599748D01*
X291956Y599638D01*
X291965Y599527D01*
X291971Y599417D01*
X291973Y599306D01*
X291973Y596131D01*
X291973Y599941D02*
X297053Y602481D01*
X297053Y609891D02*
X285623Y609891D01*
X285623Y606716D02*
X285623Y613066D01*
X297053Y619887D02*
X297053Y622427D01*
X297053Y619887D02*
X297051Y619787D01*
X297045Y619688D01*
X297035Y619588D01*
X297022Y619490D01*
X297004Y619391D01*
X296983Y619294D01*
X296958Y619198D01*
X296929Y619102D01*
X296896Y619008D01*
X296860Y618915D01*
X296820Y618824D01*
X296776Y618734D01*
X296729Y618646D01*
X296679Y618560D01*
X296625Y618476D01*
X296568Y618394D01*
X296508Y618315D01*
X296444Y618237D01*
X296378Y618163D01*
X296309Y618091D01*
X296237Y618022D01*
X296163Y617956D01*
X296085Y617892D01*
X296006Y617832D01*
X295924Y617775D01*
X295840Y617721D01*
X295754Y617671D01*
X295666Y617624D01*
X295576Y617580D01*
X295485Y617540D01*
X295392Y617504D01*
X295298Y617471D01*
X295202Y617442D01*
X295106Y617417D01*
X295009Y617396D01*
X294910Y617378D01*
X294812Y617365D01*
X294712Y617355D01*
X294613Y617349D01*
X294513Y617347D01*
X288163Y617347D01*
X288063Y617349D01*
X287964Y617355D01*
X287864Y617365D01*
X287766Y617378D01*
X287667Y617396D01*
X287570Y617417D01*
X287474Y617442D01*
X287378Y617471D01*
X287284Y617504D01*
X287191Y617540D01*
X287100Y617580D01*
X287010Y617624D01*
X286922Y617671D01*
X286836Y617721D01*
X286752Y617775D01*
X286670Y617832D01*
X286591Y617892D01*
X286513Y617956D01*
X286439Y618022D01*
X286367Y618091D01*
X286298Y618163D01*
X286232Y618237D01*
X286168Y618315D01*
X286108Y618394D01*
X286051Y618476D01*
X285997Y618560D01*
X285947Y618646D01*
X285900Y618734D01*
X285856Y618824D01*
X285816Y618915D01*
X285780Y619008D01*
X285747Y619102D01*
X285718Y619198D01*
X285693Y619294D01*
X285672Y619391D01*
X285654Y619490D01*
X285641Y619588D01*
X285631Y619688D01*
X285625Y619787D01*
X285623Y619887D01*
X285623Y622427D01*
D10*
X126130Y415290D02*
X26310Y415290D01*
X126130Y505210D02*
X126130Y507240D01*
X26310Y507240D01*
X26310Y439170D02*
X26310Y415290D01*
X26310Y439170D02*
X42310Y439170D01*
X60090Y439170D02*
X92350Y439170D01*
X110130Y439170D02*
X126130Y439170D01*
X26310Y439170D02*
X26310Y505210D01*
X126130Y439170D02*
X126130Y415290D01*
X126130Y505210D02*
X26310Y505210D01*
X26310Y507240D01*
X126130Y505210D02*
X126130Y439170D01*
X46120Y491998D02*
X46122Y492140D01*
X46128Y492283D01*
X46138Y492425D01*
X46152Y492567D01*
X46170Y492708D01*
X46192Y492849D01*
X46218Y492989D01*
X46247Y493128D01*
X46281Y493267D01*
X46319Y493404D01*
X46360Y493541D01*
X46405Y493676D01*
X46454Y493810D01*
X46507Y493942D01*
X46563Y494073D01*
X46623Y494202D01*
X46687Y494330D01*
X46754Y494455D01*
X46825Y494579D01*
X46899Y494701D01*
X46976Y494820D01*
X47057Y494938D01*
X47141Y495053D01*
X47228Y495165D01*
X47319Y495275D01*
X47412Y495383D01*
X47509Y495488D01*
X47608Y495590D01*
X47710Y495689D01*
X47815Y495786D01*
X47923Y495879D01*
X48033Y495970D01*
X48145Y496057D01*
X48260Y496141D01*
X48378Y496222D01*
X48497Y496299D01*
X48619Y496373D01*
X48743Y496444D01*
X48868Y496511D01*
X48996Y496575D01*
X49125Y496635D01*
X49256Y496691D01*
X49388Y496744D01*
X49522Y496793D01*
X49657Y496838D01*
X49794Y496879D01*
X49931Y496917D01*
X50070Y496951D01*
X50209Y496980D01*
X50349Y497006D01*
X50490Y497028D01*
X50631Y497046D01*
X50773Y497060D01*
X50915Y497070D01*
X51058Y497076D01*
X51200Y497078D01*
X51342Y497076D01*
X51485Y497070D01*
X51627Y497060D01*
X51769Y497046D01*
X51910Y497028D01*
X52051Y497006D01*
X52191Y496980D01*
X52330Y496951D01*
X52469Y496917D01*
X52606Y496879D01*
X52743Y496838D01*
X52878Y496793D01*
X53012Y496744D01*
X53144Y496691D01*
X53275Y496635D01*
X53404Y496575D01*
X53532Y496511D01*
X53657Y496444D01*
X53781Y496373D01*
X53903Y496299D01*
X54022Y496222D01*
X54140Y496141D01*
X54255Y496057D01*
X54367Y495970D01*
X54477Y495879D01*
X54585Y495786D01*
X54690Y495689D01*
X54792Y495590D01*
X54891Y495488D01*
X54988Y495383D01*
X55081Y495275D01*
X55172Y495165D01*
X55259Y495053D01*
X55343Y494938D01*
X55424Y494820D01*
X55501Y494701D01*
X55575Y494579D01*
X55646Y494455D01*
X55713Y494330D01*
X55777Y494202D01*
X55837Y494073D01*
X55893Y493942D01*
X55946Y493810D01*
X55995Y493676D01*
X56040Y493541D01*
X56081Y493404D01*
X56119Y493267D01*
X56153Y493128D01*
X56182Y492989D01*
X56208Y492849D01*
X56230Y492708D01*
X56248Y492567D01*
X56262Y492425D01*
X56272Y492283D01*
X56278Y492140D01*
X56280Y491998D01*
X56278Y491856D01*
X56272Y491713D01*
X56262Y491571D01*
X56248Y491429D01*
X56230Y491288D01*
X56208Y491147D01*
X56182Y491007D01*
X56153Y490868D01*
X56119Y490729D01*
X56081Y490592D01*
X56040Y490455D01*
X55995Y490320D01*
X55946Y490186D01*
X55893Y490054D01*
X55837Y489923D01*
X55777Y489794D01*
X55713Y489666D01*
X55646Y489541D01*
X55575Y489417D01*
X55501Y489295D01*
X55424Y489176D01*
X55343Y489058D01*
X55259Y488943D01*
X55172Y488831D01*
X55081Y488721D01*
X54988Y488613D01*
X54891Y488508D01*
X54792Y488406D01*
X54690Y488307D01*
X54585Y488210D01*
X54477Y488117D01*
X54367Y488026D01*
X54255Y487939D01*
X54140Y487855D01*
X54022Y487774D01*
X53903Y487697D01*
X53781Y487623D01*
X53657Y487552D01*
X53532Y487485D01*
X53404Y487421D01*
X53275Y487361D01*
X53144Y487305D01*
X53012Y487252D01*
X52878Y487203D01*
X52743Y487158D01*
X52606Y487117D01*
X52469Y487079D01*
X52330Y487045D01*
X52191Y487016D01*
X52051Y486990D01*
X51910Y486968D01*
X51769Y486950D01*
X51627Y486936D01*
X51485Y486926D01*
X51342Y486920D01*
X51200Y486918D01*
X51058Y486920D01*
X50915Y486926D01*
X50773Y486936D01*
X50631Y486950D01*
X50490Y486968D01*
X50349Y486990D01*
X50209Y487016D01*
X50070Y487045D01*
X49931Y487079D01*
X49794Y487117D01*
X49657Y487158D01*
X49522Y487203D01*
X49388Y487252D01*
X49256Y487305D01*
X49125Y487361D01*
X48996Y487421D01*
X48868Y487485D01*
X48743Y487552D01*
X48619Y487623D01*
X48497Y487697D01*
X48378Y487774D01*
X48260Y487855D01*
X48145Y487939D01*
X48033Y488026D01*
X47923Y488117D01*
X47815Y488210D01*
X47710Y488307D01*
X47608Y488406D01*
X47509Y488508D01*
X47412Y488613D01*
X47319Y488721D01*
X47228Y488831D01*
X47141Y488943D01*
X47057Y489058D01*
X46976Y489176D01*
X46899Y489295D01*
X46825Y489417D01*
X46754Y489541D01*
X46687Y489666D01*
X46623Y489794D01*
X46563Y489923D01*
X46507Y490054D01*
X46454Y490186D01*
X46405Y490320D01*
X46360Y490455D01*
X46319Y490592D01*
X46281Y490729D01*
X46247Y490868D01*
X46218Y491007D01*
X46192Y491147D01*
X46170Y491288D01*
X46152Y491429D01*
X46138Y491571D01*
X46128Y491713D01*
X46122Y491856D01*
X46120Y491998D01*
X96158Y491998D02*
X96160Y492140D01*
X96166Y492283D01*
X96176Y492425D01*
X96190Y492567D01*
X96208Y492708D01*
X96230Y492849D01*
X96256Y492989D01*
X96285Y493128D01*
X96319Y493267D01*
X96357Y493404D01*
X96398Y493541D01*
X96443Y493676D01*
X96492Y493810D01*
X96545Y493942D01*
X96601Y494073D01*
X96661Y494202D01*
X96725Y494330D01*
X96792Y494455D01*
X96863Y494579D01*
X96937Y494701D01*
X97014Y494820D01*
X97095Y494938D01*
X97179Y495053D01*
X97266Y495165D01*
X97357Y495275D01*
X97450Y495383D01*
X97547Y495488D01*
X97646Y495590D01*
X97748Y495689D01*
X97853Y495786D01*
X97961Y495879D01*
X98071Y495970D01*
X98183Y496057D01*
X98298Y496141D01*
X98416Y496222D01*
X98535Y496299D01*
X98657Y496373D01*
X98781Y496444D01*
X98906Y496511D01*
X99034Y496575D01*
X99163Y496635D01*
X99294Y496691D01*
X99426Y496744D01*
X99560Y496793D01*
X99695Y496838D01*
X99832Y496879D01*
X99969Y496917D01*
X100108Y496951D01*
X100247Y496980D01*
X100387Y497006D01*
X100528Y497028D01*
X100669Y497046D01*
X100811Y497060D01*
X100953Y497070D01*
X101096Y497076D01*
X101238Y497078D01*
X101380Y497076D01*
X101523Y497070D01*
X101665Y497060D01*
X101807Y497046D01*
X101948Y497028D01*
X102089Y497006D01*
X102229Y496980D01*
X102368Y496951D01*
X102507Y496917D01*
X102644Y496879D01*
X102781Y496838D01*
X102916Y496793D01*
X103050Y496744D01*
X103182Y496691D01*
X103313Y496635D01*
X103442Y496575D01*
X103570Y496511D01*
X103695Y496444D01*
X103819Y496373D01*
X103941Y496299D01*
X104060Y496222D01*
X104178Y496141D01*
X104293Y496057D01*
X104405Y495970D01*
X104515Y495879D01*
X104623Y495786D01*
X104728Y495689D01*
X104830Y495590D01*
X104929Y495488D01*
X105026Y495383D01*
X105119Y495275D01*
X105210Y495165D01*
X105297Y495053D01*
X105381Y494938D01*
X105462Y494820D01*
X105539Y494701D01*
X105613Y494579D01*
X105684Y494455D01*
X105751Y494330D01*
X105815Y494202D01*
X105875Y494073D01*
X105931Y493942D01*
X105984Y493810D01*
X106033Y493676D01*
X106078Y493541D01*
X106119Y493404D01*
X106157Y493267D01*
X106191Y493128D01*
X106220Y492989D01*
X106246Y492849D01*
X106268Y492708D01*
X106286Y492567D01*
X106300Y492425D01*
X106310Y492283D01*
X106316Y492140D01*
X106318Y491998D01*
X106316Y491856D01*
X106310Y491713D01*
X106300Y491571D01*
X106286Y491429D01*
X106268Y491288D01*
X106246Y491147D01*
X106220Y491007D01*
X106191Y490868D01*
X106157Y490729D01*
X106119Y490592D01*
X106078Y490455D01*
X106033Y490320D01*
X105984Y490186D01*
X105931Y490054D01*
X105875Y489923D01*
X105815Y489794D01*
X105751Y489666D01*
X105684Y489541D01*
X105613Y489417D01*
X105539Y489295D01*
X105462Y489176D01*
X105381Y489058D01*
X105297Y488943D01*
X105210Y488831D01*
X105119Y488721D01*
X105026Y488613D01*
X104929Y488508D01*
X104830Y488406D01*
X104728Y488307D01*
X104623Y488210D01*
X104515Y488117D01*
X104405Y488026D01*
X104293Y487939D01*
X104178Y487855D01*
X104060Y487774D01*
X103941Y487697D01*
X103819Y487623D01*
X103695Y487552D01*
X103570Y487485D01*
X103442Y487421D01*
X103313Y487361D01*
X103182Y487305D01*
X103050Y487252D01*
X102916Y487203D01*
X102781Y487158D01*
X102644Y487117D01*
X102507Y487079D01*
X102368Y487045D01*
X102229Y487016D01*
X102089Y486990D01*
X101948Y486968D01*
X101807Y486950D01*
X101665Y486936D01*
X101523Y486926D01*
X101380Y486920D01*
X101238Y486918D01*
X101096Y486920D01*
X100953Y486926D01*
X100811Y486936D01*
X100669Y486950D01*
X100528Y486968D01*
X100387Y486990D01*
X100247Y487016D01*
X100108Y487045D01*
X99969Y487079D01*
X99832Y487117D01*
X99695Y487158D01*
X99560Y487203D01*
X99426Y487252D01*
X99294Y487305D01*
X99163Y487361D01*
X99034Y487421D01*
X98906Y487485D01*
X98781Y487552D01*
X98657Y487623D01*
X98535Y487697D01*
X98416Y487774D01*
X98298Y487855D01*
X98183Y487939D01*
X98071Y488026D01*
X97961Y488117D01*
X97853Y488210D01*
X97748Y488307D01*
X97646Y488406D01*
X97547Y488508D01*
X97450Y488613D01*
X97357Y488721D01*
X97266Y488831D01*
X97179Y488943D01*
X97095Y489058D01*
X97014Y489176D01*
X96937Y489295D01*
X96863Y489417D01*
X96792Y489541D01*
X96725Y489666D01*
X96661Y489794D01*
X96601Y489923D01*
X96545Y490054D01*
X96492Y490186D01*
X96443Y490320D01*
X96398Y490455D01*
X96357Y490592D01*
X96319Y490729D01*
X96285Y490868D01*
X96256Y491007D01*
X96230Y491147D01*
X96208Y491288D01*
X96190Y491429D01*
X96176Y491571D01*
X96166Y491713D01*
X96160Y491856D01*
X96158Y491998D01*
D12*
X45993Y431927D02*
X38373Y420497D01*
X45993Y420497D02*
X38373Y431927D01*
X50438Y429387D02*
X53613Y431927D01*
X53613Y420497D01*
X50438Y420497D02*
X56788Y420497D01*
X31515Y485775D02*
X34690Y488315D01*
X34690Y476885D01*
X31515Y476885D02*
X37865Y476885D01*
X84538Y488316D02*
X84642Y488314D01*
X84747Y488308D01*
X84851Y488299D01*
X84954Y488286D01*
X85057Y488268D01*
X85159Y488248D01*
X85261Y488223D01*
X85361Y488195D01*
X85461Y488163D01*
X85559Y488127D01*
X85656Y488088D01*
X85751Y488046D01*
X85845Y488000D01*
X85937Y487950D01*
X86027Y487898D01*
X86115Y487842D01*
X86201Y487782D01*
X86285Y487720D01*
X86366Y487655D01*
X86445Y487587D01*
X86522Y487515D01*
X86595Y487442D01*
X86667Y487365D01*
X86735Y487286D01*
X86800Y487205D01*
X86862Y487121D01*
X86922Y487035D01*
X86978Y486947D01*
X87030Y486857D01*
X87080Y486765D01*
X87126Y486671D01*
X87168Y486576D01*
X87207Y486479D01*
X87243Y486381D01*
X87275Y486281D01*
X87303Y486181D01*
X87328Y486079D01*
X87348Y485977D01*
X87366Y485874D01*
X87379Y485771D01*
X87388Y485667D01*
X87394Y485562D01*
X87396Y485458D01*
X84538Y488315D02*
X84420Y488313D01*
X84301Y488307D01*
X84183Y488298D01*
X84066Y488285D01*
X83949Y488267D01*
X83832Y488247D01*
X83716Y488222D01*
X83601Y488194D01*
X83488Y488161D01*
X83375Y488126D01*
X83263Y488086D01*
X83153Y488044D01*
X83044Y487997D01*
X82936Y487947D01*
X82831Y487894D01*
X82727Y487837D01*
X82625Y487777D01*
X82525Y487714D01*
X82427Y487647D01*
X82331Y487578D01*
X82238Y487505D01*
X82147Y487429D01*
X82058Y487351D01*
X81972Y487269D01*
X81889Y487185D01*
X81808Y487099D01*
X81731Y487009D01*
X81656Y486918D01*
X81584Y486824D01*
X81515Y486727D01*
X81450Y486629D01*
X81387Y486528D01*
X81328Y486425D01*
X81272Y486321D01*
X81220Y486215D01*
X81171Y486107D01*
X81126Y485998D01*
X81084Y485887D01*
X81046Y485775D01*
X86443Y483236D02*
X86519Y483311D01*
X86594Y483390D01*
X86665Y483471D01*
X86734Y483555D01*
X86799Y483641D01*
X86861Y483729D01*
X86921Y483819D01*
X86977Y483911D01*
X87030Y484006D01*
X87079Y484102D01*
X87125Y484200D01*
X87168Y484299D01*
X87207Y484400D01*
X87242Y484502D01*
X87274Y484605D01*
X87302Y484709D01*
X87327Y484814D01*
X87348Y484921D01*
X87365Y485027D01*
X87378Y485134D01*
X87387Y485242D01*
X87393Y485350D01*
X87395Y485458D01*
X86443Y483235D02*
X81045Y476885D01*
X87395Y476885D01*
M02*
