G04 EAGLE Gerber X2 export*
%TF.Part,Single*%
%TF.FileFunction,Soldermask,Top,1*%
%TF.FilePolarity,Negative*%
%TF.GenerationSoftware,Autodesk,EAGLE,8.6.0*%
%TF.CreationDate,2018-02-06T17:03:27Z*%
G75*
%MOMM*%
%FSLAX34Y34*%
%LPD*%
%AMOC8*
5,1,8,0,0,1.08239X$1,22.5*%
G01*
%ADD10P,2.309387X8X22.500000*%
%ADD11P,1.759533X8X202.500000*%
%ADD12C,1.625600*%
%ADD13P,1.759533X8X22.500000*%
%ADD14P,1.759533X8X292.500000*%
%ADD15P,1.869504X8X292.500000*%
%ADD16C,1.524000*%
%ADD17C,2.133600*%
%ADD18C,1.727200*%
%ADD19P,1.649562X8X112.500000*%
%ADD20P,1.649562X8X292.500000*%
%ADD21P,2.364373X8X22.500000*%
%ADD22P,1.869504X8X22.500000*%
%ADD23C,1.993900*%
%ADD24C,0.959600*%


D10*
X114300Y596900D03*
X76200Y596900D03*
D11*
X15240Y546100D03*
D12*
X35560Y546100D03*
D13*
X99060Y546100D03*
D12*
X78740Y546100D03*
D11*
X15240Y596900D03*
D12*
X35560Y596900D03*
D14*
X25400Y40640D03*
D12*
X25400Y60960D03*
D13*
X35560Y381000D03*
D12*
X15240Y381000D03*
D15*
X317500Y546100D03*
X342900Y546100D03*
X317500Y520700D03*
X342900Y520700D03*
X317500Y495300D03*
X342900Y495300D03*
X317500Y469900D03*
X342900Y469900D03*
X317500Y444500D03*
X342900Y444500D03*
X317500Y419100D03*
X342900Y419100D03*
X317500Y393700D03*
X342900Y393700D03*
X317500Y368300D03*
X342900Y368300D03*
X317500Y342900D03*
X342900Y342900D03*
X317500Y317500D03*
X342900Y317500D03*
X317500Y292100D03*
X342900Y292100D03*
X317500Y266700D03*
X342900Y266700D03*
X317500Y241300D03*
X342900Y241300D03*
X317500Y215900D03*
X342900Y215900D03*
X317500Y190500D03*
X342900Y190500D03*
X317500Y165100D03*
X342900Y165100D03*
X317500Y139700D03*
X342900Y139700D03*
X317500Y114300D03*
X342900Y114300D03*
X317500Y88900D03*
X342900Y88900D03*
X317500Y63500D03*
X342900Y63500D03*
D16*
X152400Y533400D03*
X177800Y533400D03*
X177800Y609600D03*
X152400Y609600D03*
X203200Y533400D03*
X228600Y533400D03*
X203200Y609600D03*
X228600Y609600D03*
D17*
X279400Y304800D03*
X279400Y279400D03*
X279400Y254000D03*
X279400Y228600D03*
X279400Y203200D03*
X279400Y177800D03*
X279400Y152400D03*
X279400Y127000D03*
X279400Y101600D03*
X279400Y76200D03*
X279400Y50800D03*
X63500Y304800D03*
X63500Y279400D03*
X63500Y254000D03*
X63500Y228600D03*
X63500Y203200D03*
X63500Y177800D03*
X63500Y152400D03*
X63500Y127000D03*
X63500Y101600D03*
X63500Y76200D03*
X63500Y50800D03*
D18*
X266700Y457200D03*
X266700Y431800D03*
X266700Y406400D03*
D19*
X12700Y88900D03*
X12700Y165100D03*
D20*
X12700Y266700D03*
X12700Y190500D03*
D21*
X165100Y406400D03*
X190500Y508000D03*
X215900Y406400D03*
D22*
X266700Y609600D03*
X266700Y584200D03*
X266700Y558800D03*
X266700Y533400D03*
X266700Y508000D03*
X266700Y482600D03*
D23*
X51200Y466154D02*
X51200Y448247D01*
X101200Y448247D02*
X101200Y466154D01*
D24*
X176213Y558800D03*
X165100Y585788D03*
M02*
